<svg id="Layer_1" data-name="Layer 1" xmlns="http://www.w3.org/2000/svg" viewBox="0 0 100 100">
  <defs>
    <style>
      .cls-1 {
        fill: #ff4000;
      }
    </style>
  </defs>
  <g>
    <path d="M35.7,19.46A52.49,52.49,0,0,0,30,21.54a33.67,33.67,0,0,0-6.5,3.71c-5.45,4-9.14,9-12.24,15C8.84,44.9,5.52,48.74.5,50.6c0,0,0,1.32,0,1.55,3.2-.23,6.19,2.7,8,5.06,2.24,3,4,6.25,6.34,9.19a39.25,39.25,0,0,0,7.59,7.27C31.22,80.22,42,83.1,52.94,83.13a72.91,72.91,0,0,0,9.15-.56,53.42,53.42,0,0,0,19.43-5.92,49.18,49.18,0,0,0,4.73-3,40.59,40.59,0,0,0,3.85-3.08,36.7,36.7,0,0,0,5.43-5.94,24.17,24.17,0,0,0,3.34-7.29c0.11-.39.93-4.79,0.51-4.79H80.31s-0.64,2.17-.73,2.38a10.43,10.43,0,0,1-1.29,2.35c-3.4,4.61-9,7.68-14.41,9.14a38.53,38.53,0,0,1-4.85,1,33.39,33.39,0,0,1-22.76-4.34c-3.36-2-7.12-4.56-8.56-8.38C24.55,46.29,30.27,39,37.51,35.48a33.9,33.9,0,0,1,6-2.26,44,44,0,0,1,6.25-1.17c6.72-.82,14.69.16,20.65,3.59,1.12,0.65,2.18,1.38,3.26,2.1A7.45,7.45,0,0,0,75.58,39H98.52l-0.23-.35A46.92,46.92,0,0,0,76.38,21a53.31,53.31,0,0,0-8-2.51,66.08,66.08,0,0,0-25.72-.64A59.66,59.66,0,0,0,35.7,19.46ZM10.27,45.38c4-5.57,6.06-11.81,11.43-16.34a49.26,49.26,0,0,1,4.48-3.35,36.23,36.23,0,0,1,11.1-4.76,65.88,65.88,0,0,1,25.47-1.78,53.48,53.48,0,0,1,20.53,7.21,39.1,39.1,0,0,1,6.52,5.11c1,1,2,2,2.89,3l2.39,2.66H76.26A38.7,38.7,0,0,0,53.55,30c-8.47,0-19.39,3-24.91,9.93a17.16,17.16,0,0,0-3.15,6.17A14.1,14.1,0,0,0,26.92,57a18.14,18.14,0,0,0,3.67,4.3A35.23,35.23,0,0,0,53.2,69.6c7.35,0,14.89-1.65,21-5.9,3.24-2.26,6.44-5.29,7.51-9.23H97.53v0.07l0,0.08v0.09a21.91,21.91,0,0,1-3.07,8.2,27,27,0,0,1-5.76,6.47,46.87,46.87,0,0,1-15.92,9,56.34,56.34,0,0,1-10.5,2.33c-10.31,1.33-21.4.41-31-3.9a41.2,41.2,0,0,1-16.6-13.63c-3.25-4.5-6.16-9.76-11.41-12.26,0.35,0.18,2.1-1.1,2.38-1.31A21.54,21.54,0,0,0,10.27,45.38Z"/>
    <path class="cls-1" d="M7.76,51.09a15.14,15.14,0,0,0,3.75-3.63A25.21,25.21,0,0,0,13.15,45c1-1.78,2.09-3.77,2.93-5.62a19.19,19.19,0,0,1,3-4.7,36.72,36.72,0,0,1,3.71-4,38.13,38.13,0,0,1,10.69-6.35,50.7,50.7,0,0,1,14.78-3.7,54.92,54.92,0,0,1,7.39-.17c7.92,0.38,16.25,1.85,23.3,5.6a40.9,40.9,0,0,1,5.35,3.44,49.71,49.71,0,0,1,4.1,3.2c0.48,0.45,2.57,2.53,2.57,2.53l-14.28,0a21.81,21.81,0,0,0-2.89-2.09c-1-.52-2.08-1-3.11-1.5a41.51,41.51,0,0,0-4.54-1.6,38.59,38.59,0,0,0-9.89-1.71c-6.63-.31-13.68.5-19.66,3.55a33.68,33.68,0,0,0-4.67,2.75,25.66,25.66,0,0,0-5.26,4.89A18.48,18.48,0,0,0,23.27,46a15.56,15.56,0,0,0-.37,6.4,13.86,13.86,0,0,0,2.33,5.87A26.09,26.09,0,0,0,33.3,66a40.94,40.94,0,0,0,13.38,5,40.23,40.23,0,0,0,24.84-3.37C75.67,65.49,80,62.14,82.28,58l1-1.8H95a9.88,9.88,0,0,1-.54,1.94,13.35,13.35,0,0,1-.91,2c-0.37.63-.61,1-1,1.65a32.58,32.58,0,0,1-2.72,3.41A31.7,31.7,0,0,1,83,71.18,47.2,47.2,0,0,1,66.12,78a54.2,54.2,0,0,1-17.5,1c-1.66-.21-3.31-0.46-5-0.71a37.35,37.35,0,0,1-12.93-4.17c-1.5-.84-3.05-1.64-4.47-2.61-0.72-.49-1.47-1-2.16-1.48-1-.79-1.38-1.12-2-1.65a33.09,33.09,0,0,1-3.46-3.47,33.75,33.75,0,0,1-2.84-3.79c-1.81-2.72-3.08-5.68-5.51-7.94C10.06,53,8,50.91,7.76,51.09Z"/>
  </g>
</svg>
