<svg id="Layer_1" data-name="Layer 1" xmlns="http://www.w3.org/2000/svg" viewBox="0 0 100 100">
  <defs>
    <style>
      .cls-1 {
        fill: #dce0e5;
      }

      .cls-2 {
        fill: #fff;
      }

      .cls-3 {
        fill: #161413;
      }

      .cls-4 {
        fill: #b01742;
      }
    </style>
  </defs>
  <g id="layer1">
    <g id="g8">
      <path id="path10" class="cls-1" d="M88.55,41.53s5.32-.81,6.29-5.81-2.44-9-8.55-11.77c-8.87-4-19.52-7.9-41.93-12.9C32.25,8.35,28.87,7.5,28.87,7.5L5,33l20.48-.65S18.71,42.66,19.84,59.6s8.34,25.4,14,29.19a30.81,30.81,0,0,0,9.19,3.71,12.79,12.79,0,0,1-1.94-8.71c0.81-4.84,2.74-7.42,4.19-10s10.81-21,10.81-21,3.39,0,4.84.16,2.42,0.81,2.42,1.61a4.14,4.14,0,0,1-1,1.94,28.79,28.79,0,0,0,11.13-2.1C79.84,52,81.93,48,81.93,48a45.24,45.24,0,0,0-6-6,68.47,68.47,0,0,0-5.81-4.19H84.35s2.74,0,3.71.81S88.55,41.53,88.55,41.53Z"/>
    </g>
    <g id="g12">
      <path id="path14" class="cls-2" d="M90.08,39.52a5.26,5.26,0,0,0,3.47-4.11A7.72,7.72,0,0,0,91.21,29c-1-1-5.24-4-12.74-6.69C72.29,20.15,62.9,17.66,46,13.87A127.86,127.86,0,0,0,30.48,11L12.9,30,31,29.92s-7.5,9.2-8.14,27.42c-1,27.42,17.58,33.22,17.58,33.22a12.6,12.6,0,0,1-1.29-6.93c0.48-3.71,2.1-6.61,3.87-9.84S54.52,51.37,54.52,51.37h6.77a5,5,0,0,1,3.55,1.53,1.69,1.69,0,0,1,.32,1.61s4.68,0.33,7.82-1a19.58,19.58,0,0,0,7-5.08,37.49,37.49,0,0,0-8-6.85c-4.76-3-8.79-5-8.79-5h22.5s2.74,0,3.55.73A3.5,3.5,0,0,1,90.08,39.52Z"/>
    </g>
    <g id="g16">
      <path id="path18" class="cls-3" d="M91,37.5a3.56,3.56,0,0,0,1.45-3.23c0-1.86-1.77-4-3.23-5.08a36,36,0,0,0-9.76-4.68c-5.16-1.69-16-4.35-25.4-6.29s-24.6-4.44-24.6-4.44l1.37,2L20.81,26.61l35.81,2.82-0.32.4h-24l1.77,1.77-3.87,6.85L50.4,34.27l-0.56.56-23.55,8,2,1.29a15.4,15.4,0,0,0-1.21,4.27c-0.48,2.9-.81,5.64-0.81,5.64L46.45,41.69l-0.08.48L24.11,59.92l2.1,0.56a51.05,51.05,0,0,0,.48,6c0.4,2.26,1,4.84,1,4.84L46,49.92v0.73L28,77.1h1.77A22.1,22.1,0,0,0,33,82.82a30.22,30.22,0,0,0,5.56,5.24,13.15,13.15,0,0,1-.73-6.77c0.32-2.74,3.06-7.26,4.35-9.84S59.92,36.37,59.92,36.37l-3.15-1.69H87.34a6.76,6.76,0,0,1,2.74,1A2.89,2.89,0,0,1,91,37.5Z"/>
    </g>
    <g id="g20">
      <path id="path22" class="cls-2" d="M91.29,35.48A4.21,4.21,0,0,0,91,32.66a6.84,6.84,0,0,0-2.34-2.18l0.32,1.61-8.39,1-0.32.48h8.15a4.16,4.16,0,0,1,1.77.61A3.12,3.12,0,0,1,91.29,35.48Z"/>
    </g>
    <g id="g24">
      <path id="path26" class="cls-2" d="M87.34,31.21A9,9,0,0,0,85,29.11c-1.45-.89-4-2.1-4-2.1a28.52,28.52,0,0,1,2.66,2.54,8.25,8.25,0,0,1,1.13,1.57Z"/>
    </g>
    <g id="g28">
      <path id="path30" class="cls-4" d="M77.74,28.55S67,25.64,54.52,23.23s-21.69-3.87-21.69-3.87L30,22.66l47.66,6.45Z"/>
    </g>
    <g id="g32">
      <path id="path34" class="cls-4" d="M48.79,32.18l-12.9.24-1.65,2.9,14.39-2.74Z"/>
    </g>
    <g id="g36">
      <path id="path38" class="cls-4" d="M44.39,39.72l-14,5-0.93,3.71,14.68-8.19Z"/>
    </g>
    <g id="g40">
      <path id="path42" class="cls-4" d="M42.42,49.15L28.83,60.65s0,1.49.16,2.22,0.32,1.61.32,1.61L42.46,49.8Z"/>
    </g>
    <g id="g44">
      <path id="path46" class="cls-4" d="M44.88,58.39S41,64.15,38.31,68.23s-5.28,8-5.28,8,0.6,1.21,1,1.85,1,1.45,1,1.45L45.16,58.75Z"/>
    </g>
    <g id="g48">
      <path id="path50" class="cls-3" d="M61,37a122.12,122.12,0,0,1,11,6.09,42.15,42.15,0,0,1,6.45,5.36,9.92,9.92,0,0,1-2.74,2.46,11.49,11.49,0,0,1-4,1.57,6.78,6.78,0,0,0,1.65-2.06c0.12-.69-0.16-0.85-0.56-0.85H68.43a1.94,1.94,0,0,0-.69,1.61A3.33,3.33,0,0,0,68.31,53a4.32,4.32,0,0,1-2.42-1.37,3.48,3.48,0,0,1-1-2H55.68l5.77-11.33Z"/>
    </g>
    <g id="g52">
      <path id="path54" class="cls-4" d="M60.08,46l10.28,1.57-0.24.48H59Z"/>
    </g>
  </g>
</svg>
