<svg id="Layer_1" data-name="Layer 1" xmlns="http://www.w3.org/2000/svg" viewBox="0 0 100 100">
  <defs>
    <style>
      .cls-1 {
        fill: #fff;
      }

      .cls-2 {
        fill: #13264b;
      }

      .cls-3 {
        fill: #c8ae74;
      }
    </style>
  </defs>
  <g>
    <path class="cls-1" d="M72.93,84.57l2.37-.6a37.36,37.36,0,0,0,5.84-1.72l0.95-.46,0.54-.9A52.82,52.82,0,0,0,88.2,66l2.4-2.19,0.05-.57,0.07-.78c0.07-.7.1-1.41,0.1-2.12a26.38,26.38,0,0,0-.31-3.94,15.84,15.84,0,0,0,7.12-8.45A19.6,19.6,0,0,0,99,40.58a24.32,24.32,0,0,0-1.33-7.82,26.65,26.65,0,0,0-12-14.4c-4.58-2.7-11-3.85-17.25-3.06a25.84,25.84,0,0,0-17.54,9.62c-0.32.41-.62,0.85-0.91,1.31l-0.14,0C26.71,29.86,8.4,44.9,7.63,45.54L1,51l8.59,0.69A67.23,67.23,0,0,1,41.77,62.48a45.18,45.18,0,0,1,10.29,9.08l2.23,3,2.87-2.47A9.17,9.17,0,0,0,58.5,70.7l0.1,0.09,0.65,0.54a9.1,9.1,0,0,1,1.22,1.14,2,2,0,0,1,.17.83,2.92,2.92,0,0,1-.3,1.48l-0.1.23c-0.25.59-.71,1.44-0.72,1.45l-0.7,1.29,12.79,7.18"/>
    <path class="cls-2" d="M59.93,67.29l0.15,0.13v0Z"/>
    <path class="cls-2" d="M81.59,46.21l-0.21.21,0.13-.12Z"/>
    <path class="cls-3" d="M84.9,19.65C76.71,14.81,60.55,14.77,52,25.83a19.16,19.16,0,0,0-1.18,1.74l-0.81.15c-22.68,3.53-40.72,18.33-41.47,19L4.76,49.85l4.95,0.4c30,2.41,43.41,20.23,43.54,20.42l1.29,1.76L56.2,71a8.06,8.06,0,0,0,2-2.59l1.41,1.26a14.85,14.85,0,0,1,2.16,2,3.43,3.43,0,0,1,.39,1.63,4.59,4.59,0,0,1-.52,2.28c-0.28.67-.78,1.59-0.78,1.59l11,6.16,0.74-.21,2.38-.61a37.57,37.57,0,0,0,5.56-1.62L81,80.64l0.31-.52A51.56,51.56,0,0,0,86.84,65.2l2.34-2.13,0.07-.78q0.09-1,.09-2a25.43,25.43,0,0,0-.47-4.76,14.23,14.23,0,0,0,7.39-8.18C99.42,39.58,96.9,26.74,84.9,19.65Z"/>
    <path class="cls-2" d="M93.42,32.13c-6.94-16.78-26-13.43-26-13.43h0.15a28.64,28.64,0,0,1,12.28,1.93c5,2.05,10.52,7.16,11.86,13.91A22.69,22.69,0,0,1,92.16,39V39.3a18.57,18.57,0,0,1-1.73,7.79,11.93,11.93,0,0,1-2.9,3.58,3.68,3.68,0,0,1-2.08.82,1.53,1.53,0,0,1-.3,0h0a1.1,1.1,0,0,1-.26-0.08c-0.53-.24-0.71-0.87-1.91-2.56a24.53,24.53,0,0,0-1.81-2.21l0.28-.27h0l0.13-.14a4.77,4.77,0,0,0,.32-0.39,5.78,5.78,0,0,0,.74-1.38l0-.06c0.06-.17.12-0.34,0.17-0.52A12.3,12.3,0,0,0,78.35,31.5c-4.65-3.72-9.68-4-13.75-2.4-6.85,2.75-11,11-6.11,17.74a6,6,0,0,0,8.63,1.65c2.24-1.72,3.75-7-1.77-9.81,4.44-.38,9.82,4.92,7.17,11.75a10,10,0,0,1-.68,1.4C68,58.31,57.51,57.6,52.47,51.57a20.72,20.72,0,0,1-3.39-20.28c0.17-.48.36-0.95,0.57-1.41A77.07,77.07,0,0,0,16.28,46.51c28.33,5.88,38.6,23,38.6,23a6.79,6.79,0,0,0,1.94-3.11,8.4,8.4,0,0,1-1.1-6.23,12.86,12.86,0,0,0,2,4.89,28.16,28.16,0,0,0,2.2,2.27l0.14,0.09v0a28.27,28.27,0,0,1,3.4,3.21c1.52,2.74-.07,5.85-0.07,5.85L72,81.19c1.91-.54,6.39-1.52,7.62-2.11A49.64,49.64,0,0,0,85,64.15l2.25-2c0.83-2.36-.64-7.5-0.64-7.5l0.56-.17a8,8,0,0,0,1.34-.59C93.35,51.15,97.82,42.74,93.42,32.13Z"/>
    <path class="cls-1" d="M92.16,39a22.66,22.66,0,0,0-.44-4.43c-1.34-6.75-6.89-11.86-11.86-13.91a28.64,28.64,0,0,0-12.28-1.93l-0.69.09a21.62,21.62,0,0,0-12.4,6.6c7-5.46,17.46-6.1,24.39-3.26s12,8.61,13.29,17.18c0,0,0-.05,0-0.08S92.16,39.06,92.16,39Z"/>
    <g>
      <path class="cls-1" d="M69.65,72.63a1.52,1.52,0,0,1,1.07-.42,5.7,5.7,0,0,1-.46,4.34C70.21,75.43,70.41,73.32,69.65,72.63Z"/>
      <path class="cls-1" d="M52.47,51.57a20.72,20.72,0,0,1-3.39-20.28c-1.41,2.17-4.64,8.6-.64,17.47C53.3,59.5,66.58,59.93,71.05,53.2a13.31,13.31,0,0,0,.79-1.36C68,58.32,57.51,57.6,52.47,51.57Z"/>
    </g>
    <g>
      <path class="cls-1" d="M78,61.36a1.6,1.6,0,0,1,1.6-1.61h0.08a6.84,6.84,0,0,0-1.33-2.81,6.71,6.71,0,0,1-.14,1.76,2.58,2.58,0,0,0,1.2,4.86,4.84,4.84,0,0,0,.2-0.6h0A1.6,1.6,0,0,1,78,61.36Z"/>
      <path class="cls-2" d="M79.75,62.06l-0.05.12a0.87,0.87,0,0,1-1.09-.5,1,1,0,0,0,1.18-.14l0,0A1.41,1.41,0,0,1,79.75,62.06Z"/>
      <path class="cls-1" d="M79.83,61.51l0,0a1,1,0,0,1-1.18.14,0.87,0.87,0,0,0,1.09.5l0.05-.12A1.42,1.42,0,0,0,79.83,61.51Z"/>
    </g>
    <path class="cls-1" d="M84.79,61.08c0.2-8.15-6.6-13.56-6.6-13.56s5,6.21,4.41,13.52l-1.36,1.26a22.94,22.94,0,0,1-2,10,15.24,15.24,0,0,0-8.19-6.41,23.25,23.25,0,0,0-5.55,4,6.52,6.52,0,0,1,.73,1.75,9.35,9.35,0,0,1-.22,4.5s3,1.7,3,1.62c0.83-2.88-.27-4.17-1.12-5.65a38.63,38.63,0,0,1,3.62-1.94c0.9,1.24,1.36,3.29.4,6.21-0.29.87-.71,1.76-1,2.38a10.53,10.53,0,0,0,1.18.62,4.68,4.68,0,0,0,3.48-2.83,2,2,0,0,0,0-1.12A3.09,3.09,0,0,1,75,76a1.91,1.91,0,0,1,.1-2.19,1.17,1.17,0,0,1,.89-0.4,1.14,1.14,0,0,1,1.08.7c0.76,1.87-1,3.85-1,3.85a9.49,9.49,0,0,0,2.18-.32,53.17,53.17,0,0,0,5-15.2Z"/>
  </g>
</svg>
