<svg id="Layer_1" data-name="Layer 1" xmlns="http://www.w3.org/2000/svg" viewBox="0 0 100 100">
  <defs>
    <style>
      .cls-1 {
        fill: #13264b;
      }

      .cls-2 {
        fill: #de6226;
      }

      .cls-3 {
        fill: #fff;
      }
    </style>
  </defs>
  <g>
    <g>
      <path class="cls-1" d="M1,36.84s-0.51,9.6,10.69,15.7c0,0,4.51,2.4,15.13,4.36,9.33,1.72,14.34,5.35,16.33,7.63,2.54,2.92,5,8.2,6.16,12.84,0,0,0,1.2.86,1.15,0,0,.76.05,0.7-1,0,0-.27-7.29,1.84-10.8,1.61-2.88,4.5-5.38,9.29-7.13A13.82,13.82,0,0,0,69.72,62a16.11,16.11,0,0,0,6.21-1.4s5.78,2,6.43,5.13A3.48,3.48,0,0,1,82.2,67l7.24,0.38,3.94-3.56s-7.34-.54-7.51-2.65c0,0-.11-1,1.87-1,0,0,4.57-.08,8.82,6.29L99,60.09s-1.87-.93-1.83-2.65A8.94,8.94,0,0,1,98,54.3l-3-1.38s-1.64-1.54-11.48-7.67l1.27-.82L73.84,39.72s-3.48-5.49-13.2-5.53c0,0-7.59-12.45-19.7-12.45a20.05,20.05,0,0,0-9.58,2.42s-2,.93-4,2.06c0,0-4.15,2.88-8.9-3.4,0,0-1.73,7.41,3.47,10.58,0,0-5,1-6.73-3.22A17.92,17.92,0,0,1,14,21.48,14,14,0,0,0,10.2,31.54,11.08,11.08,0,0,0,13,38.63a6,6,0,0,0-3.66,1.2S5.38,42.67,1,36.84Z"/>
      <path class="cls-2" d="M19.55,26.11s0.73,6.54,6.29,6.54A13.45,13.45,0,0,0,30,31.89c2-.76,4.91-2.24,8.8-2.24,0,0,5.08-.48,7.91,5.13a60.6,60.6,0,0,1,12.56.78s-6.91-12.18-18.93-12a17.9,17.9,0,0,0-8.18,2.16l-1.89.89c-1.38.65-1.92,1-1.92,1a8.22,8.22,0,0,1-3.8,1.11S22.14,28.89,19.55,26.11Zm-6.88.22S9.45,35.21,16.5,39.17a11.49,11.49,0,0,0,5.77,1.71,72.7,72.7,0,0,1,20.11-5.8s-1.21-2.59-6-2.59a28,28,0,0,0-8.15,1.28s-1.42.36-3.09,0.93c-2.39.58-6.37,1.17-8.93-.45C16.26,34.26,12.76,32.52,12.67,26.33ZM3.62,41.27A6.11,6.11,0,0,0,9.93,46s3.81,0.09,9.18-3.19a20.19,20.19,0,0,1-2.8-1.33,5.22,5.22,0,0,0-4.07-.91,17.86,17.86,0,0,0-2.28.88,6.49,6.49,0,0,1-3.26.87A5.44,5.44,0,0,1,3.62,41.27Z"/>
      <path class="cls-3" d="M33,56.58S43.87,45.12,59.52,49.1A10.69,10.69,0,0,0,70,58.63a11,11,0,0,0,6.41-2l6.08,2.27-6.38-4a8.58,8.58,0,0,1-5.73,2c-3.69,0-8.17-3.74-7.78-9a73,73,0,0,0-14.19-5.11l2.24,3.54s-14.53-.92-26.44,8.32c0,0-11.37-2.52-12.74-4.71,0,0,23.4-19,53.35-11.31,0,0,.35-0.51-0.52-1.23A9.79,9.79,0,0,0,61.49,36s7.33-.39,11.15,5.17l8.42,3.54-0.88.62s12.88,8,13.74,9.13l1.8,0.75S94.43,58.94,97.05,61l-1,2.57s-4.31-4.64-8.6-4.82c0,0-3.17-.07-3.17,2.47,0,0-.38,2.72,5.94,3.51L88.94,65.9l-4.82-.31s0.11-3.93-8.31-7c0,0-6.91,4.11-13.45-1,0,0-11.92,2.86-13,13.84a25.92,25.92,0,0,0-4.23-7.69s1.57-5.6,10.06-8.41a17.46,17.46,0,0,0-13,5.7A28,28,0,0,0,33,56.58Z"/>
    </g>
    <path class="cls-1" d="M72,43.6s5.94,0.89,16.16,9.23l-9.66-5.27a5.85,5.85,0,0,0-1,.67A27.53,27.53,0,0,0,72,43.6Z"/>
    <path class="cls-2" d="M76.84,45.37a1.1,1.1,0,0,0-.3,1.13,1.11,1.11,0,0,0,1,.69,1,1,0,0,0,1-.93L78.16,46l-1.07.8,0.3-1.19Z"/>
    <path class="cls-1" d="M94,55.46a1.25,1.25,0,0,0-.82,1s-0.2.76,1.45,2.41c0,0-2.45-1.79-2.91-2.87,0,0-.42-0.79.77-0.79A6.57,6.57,0,0,1,94,55.46Z"/>
    <path class="cls-1" d="M66.18,39.13s1.51,0,1.68-.35c0,0,.37-0.38-1.66-1.34a7.41,7.41,0,0,1,4.56,3.17A25.34,25.34,0,0,0,66.18,39.13Z"/>
  </g>
</svg>
