<svg id="Layer_1" data-name="Layer 1" xmlns="http://www.w3.org/2000/svg" viewBox="0 0 100 100">
  <defs>
    <style>
      .cls-1 {
        fill: #fff;
      }

      .cls-2 {
        fill: #bfc0c0;
      }

      .cls-3 {
        fill: #b21e35;
      }

      .cls-4 {
        fill: #db6126;
      }
    </style>
  </defs>
  <g>
    <g>
      <g>
        <g id="_Group_" data-name="&lt;Group&gt;">
          <g>
            <path d="M93.38,8.77A37.75,37.75,0,0,1,95,20.09a37.08,37.08,0,0,1-2.29,12.51A5.11,5.11,0,0,1,91.35,34l1,0.78s-2,6.12-3.79,9.87c-1.93,4.1-6.44,12.15-10,14.91L67.21,78A6.14,6.14,0,0,1,63,77a3.47,3.47,0,0,1-1.6-2.67l6.86-10.22a34.67,34.67,0,0,1-5.22.38,45.56,45.56,0,0,1-19-4.37C34.92,56,30.41,53.74,23.84,53.74c-6,0-12.79,4.6-14.75,12.48,0,0-4.09-4.89-4.09-11s5.81-10.48,8.1-11.68,3.12-2.33,3.12-4c0-2.06-2-5-4.77-7.52l6.63-2.27-1.3-1.82s4.43,0.79,8.14-3.74c0,0-2.54-.24-11.5,3.88,0.07-.21,2.53-6.89,13.77-12.36,11.42-5.55,20.8-4,31,.1s12.94,5.43,19.57,5.43A25.08,25.08,0,0,0,91.5,17.28,55.91,55.91,0,0,0,93.38,8.77Z"/>
            <path d="M68.46,77.62s1.53,2.67-.11,6.9-6.28,8.54-12.41,5.91a1.39,1.39,0,0,1-1.19.75,1.34,1.34,0,0,1-1.28-1.06,1.22,1.22,0,0,1,.28-1S52,87.49,51.88,86.76a0.86,0.86,0,0,1,.26-1,0.87,0.87,0,0,1,.92.33c0.39,0.4.54,0.6,0.54,0.6L59,78.34a7.75,7.75,0,0,1-1.72-4.63,4.21,4.21,0,0,1,4-.51s-1.53.87-.22,3,4.23,2.63,4.82,2.66S68.24,78.82,68.46,77.62ZM64.61,87a7,7,0,0,0,1-5.45A5,5,0,0,1,64,81.47l-5.54,8.08A5.83,5.83,0,0,0,64.61,87Z"/>
            <path class="cls-1" d="M65.57,81.58a7,7,0,0,1-1,5.45,5.83,5.83,0,0,1-6.1,2.52L64,81.47A5,5,0,0,0,65.57,81.58Z"/>
          </g>
        </g>
        <path class="cls-2" d="M64.9,75.4a1.53,1.53,0,0,1-1.39-1.14l7.34-10.73,2.38-.7Z"/>
        <path class="cls-3" d="M8.25,59.7s-3.43-4.81,2.41-11.06a11,11,0,0,1,6.17-.88s-5.27,1-6.43,5.34c0,0,2.76-4.74,11.61-4.31,0,0-2.48-3-8.25-2.48,0,0,1.26-1.52,6.29-2.19a12.3,12.3,0,0,0-4.39.07,6.68,6.68,0,0,0,2.69-5.41c0-3.65-3.57-6.12-3.57-6.12a29.53,29.53,0,0,1,5.62-1.81A4.29,4.29,0,0,0,19.09,29s5.74,0.29,8.89-6.72a4.08,4.08,0,0,0-1.62-.37,21.55,21.55,0,0,0-8,2.35s2.14-2.57,8.14-5.57,10.15-3.06,10.15-3.06A6.13,6.13,0,0,1,39,16a20.67,20.67,0,0,0-7.34,2.22,42.52,42.52,0,0,1,6.14-.56A19.18,19.18,0,0,1,44,19a5.35,5.35,0,0,0-3.83-2.26,3.28,3.28,0,0,1,2-.4,13.14,13.14,0,0,1,4.6,1.46,7.42,7.42,0,0,0-3.69-2.41s5.89-.56,16,3.58c9.27,3.8,12.85,4.38,18.32,4.38a33.22,33.22,0,0,0,15.76-4.45,12.07,12.07,0,0,1-.09,3.3c-0.33,1.9-1.7,3.24-8.67,3.31a14,14,0,0,0,7.74,1,61.48,61.48,0,0,1-2.74,9.33A90.59,90.59,0,0,1,81.55,52a40.55,40.55,0,0,1-3.78,5.31,67.18,67.18,0,0,1-6.35,2.38S73,57.91,73,56.74a21.75,21.75,0,0,1-5.62,4,24.8,24.8,0,0,1-7.52.95c-15.11,0-24.53-10.22-37.45-10.22A15.43,15.43,0,0,0,8.25,59.7ZM57.58,88.86s-1.45.34-2.77-1.45c0,0-.19-0.16.07-0.57l5-7.68a12.92,12.92,0,0,0,3.36,2,4,4,0,0,1-2.8-.63,2.06,2.06,0,0,0,1.17,2A4.58,4.58,0,0,1,59.31,82a2.05,2.05,0,0,0,1.31,2,3.11,3.11,0,0,1-2.32-.26s-0.22.85,1.11,1.83a6.27,6.27,0,0,1-2.34-.26,2.65,2.65,0,0,0,1.24,1.93A4.79,4.79,0,0,1,56,86.86S55.94,87.84,57.58,88.86Z"/>
      </g>
      <path d="M40.4,51.48l-0.13.18-1.06.6-1.58.49-2.79.1-0.94-.49-0.53-.1-0.18-.13-0.28.08a16.07,16.07,0,0,0-2.31-1.38l-0.72-1,0-.11-0.15,0a1,1,0,0,0,0-.58l-0.28-.86H29.22l-0.39-.53,0.32-1.34,1.24-1.28,0.37-.62,0.14,0V44.31l1-.64,1.24,0,0.52,0.22,0.1,0.43L34,44.87l0.13,0.07,1.5,0,0.86,0.19L37.08,45l0.59-.57a8.74,8.74,0,0,0-1.6-1.8,17.21,17.21,0,0,0-1.25-2.11l-0.25-.39L33.49,38l0.75-.53a4.21,4.21,0,0,0-.94-0.12l-0.61-1.54L32.6,34.48l0-2.28a11,11,0,0,1,.26-1.71,7.71,7.71,0,0,0,.52-2.34l0.76-1.27,0.27-1.09a0.77,0.77,0,0,1,.15-0.28,9.59,9.59,0,0,0,1.14-1.74l0.9-1a6.92,6.92,0,0,1,1.57-1.08L37.85,23a12.44,12.44,0,0,1-.18,2.27,3,3,0,0,1-.33.85l0,1.36a11.38,11.38,0,0,0,.47,3.7,16.41,16.41,0,0,1,.78,2S39.42,35,40,36.5a8.93,8.93,0,0,0,1.84,2.41l1.47,1.55A15,15,0,0,1,45,41.57a1.58,1.58,0,0,1-.18-0.46c0-.19,0-0.92,0-0.92a1.2,1.2,0,0,1-.36-0.74l1.11-3.32a5,5,0,0,1-1-3.49h0.41s0.11,0,.08-0.08L44.57,32l0.18-3.32,0.53,0.2a3.37,3.37,0,0,0,.34-1.25,4.5,4.5,0,0,1,1.57-3.17,7.62,7.62,0,0,1,3.73-2.85,32.65,32.65,0,0,0,3.31-1l0.95,0.14a7,7,0,0,1,2.85-.5,5.07,5.07,0,0,1,3.33.93C62,21.6,64.8,23.8,64.87,24a0.43,0.43,0,0,1,0,.32,7.34,7.34,0,0,0,1.35,1.42,3.18,3.18,0,0,1,.58,1.1,3.39,3.39,0,0,1,.27,1.06,4.74,4.74,0,0,1-.13.64,1.5,1.5,0,0,1,.13.43,8.29,8.29,0,0,1-1.31,3.15,2.77,2.77,0,0,0-.64.84l0.83,0.11s-1,1.42-2.14,2.81a7.34,7.34,0,0,1-1.73,1.86,0.88,0.88,0,0,0-.62,0l0,0.49s-1.33.86-1.62,1c0,0-.91,2.19-1.53,3.27l-0.82.38a2.84,2.84,0,0,0-.73.75l-1.08.6s4.2-.93,5.15-1.24,1-.53,1.53-0.69,1.42-.33,1.42-0.33,1-.66,1.09-0.67a2.74,2.74,0,0,1,.8.22l0.05-.8,1.46-.88c0.51-.31,1.21-1.06,1.72-1.42s1.13-.69,1.33-0.86A21.67,21.67,0,0,0,73.7,33.7a8.16,8.16,0,0,0,.58-1.22l1.06-.79a1.83,1.83,0,0,1,.26-0.82c0.24-.37.8-1.11,0.8-1.11a0.85,0.85,0,0,1,.16.46,1.2,1.2,0,0,0,.2.53,11,11,0,0,0,.11,1.35l-0.2.88-0.05,1.2s-0.35.69-.53,1.17a7.87,7.87,0,0,0-.29,1.41L75,38.09a10.38,10.38,0,0,1-1.39,2.55c-0.88,1.11-1.75,2.19-1.75,2.19l-0.8.84-1.33.89s-0.15.09-.46,0.31l-0.64.47c-0.08.06-.2,0.08-0.49,0.24-1.05.55-3.39,1.76-5.47,2.88a3.87,3.87,0,0,1-.75.24c-0.38.07-1.13,0.13-1.11,0.4a4.44,4.44,0,0,0,.15.71,0.77,0.77,0,0,0,.51.42,1.48,1.48,0,0,1,.67.07,2.74,2.74,0,0,1,.75.4,3.75,3.75,0,0,1,.77.22L64,50.7a1.54,1.54,0,0,0,.53-0.46l0.71,0a10.06,10.06,0,0,0,1,.37,8.33,8.33,0,0,0,.38.93l0,0.18,0.07,0.07-0.11.71a12.51,12.51,0,0,1,.11,1.57s-0.4.86-.58,1.22c0,0-.6.26-0.71,0.33l-0.11-.06A3.82,3.82,0,0,0,64,56.67l-0.18,0a0.05,0.05,0,0,1,0,.09c-0.09,0-1.35.6-1.35,0.6a18.12,18.12,0,0,0-2.9.29l-0.24-.17-0.44,0s-0.11-.18-1.48,0c0,0-1.93-1-2.21-1.08l-1-1-0.2-.28-0.17-.35-0.15-.33a0.27,0.27,0,0,0-.27,0,11.68,11.68,0,0,0-1.75.46,9.17,9.17,0,0,0-2.21.18,9,9,0,0,0-2-.13s-0.95-.13-1.1-0.13a17.81,17.81,0,0,0-2.57-.88,3.53,3.53,0,0,1-.53-0.24,9.58,9.58,0,0,0-1.4-1A10.15,10.15,0,0,0,40.4,51.48Z"/>
      <path class="cls-4" d="M43.66,47.18s1.54-.15,2-0.13L46,46.74l0.09-.53,1.1,0a2.42,2.42,0,0,1-.35.75s-0.08.1,0.08,0.1h1A0.2,0.2,0,0,0,48,46.92a1.09,1.09,0,0,1,.28-0.62,1.13,1.13,0,0,1,.45-0.05l0.46,0.09,0.06,0-0.09.29L48.89,47a0.06,0.06,0,0,0,.06.09,5.39,5.39,0,0,1,1,.23s0.18,0.09.23,0,0.11-.28.11-0.28V46.66s0-.09.15-0.09a2.22,2.22,0,0,1,.77.27,0.24,0.24,0,0,1,0,.23,3.36,3.36,0,0,1-.24.57l0.86,0.43a1.54,1.54,0,0,1,.32-0.34l0.08-.45s0-.13.14-0.06,0.73,0.37.73,0.37a0.13,0.13,0,0,1,0,.14c0,0.09-.15.47-0.15,0.47a0.21,0.21,0,0,1-.11.09,0.18,0.18,0,0,0-.05.26l1.3,0.73-1.27-.44a0.12,0.12,0,0,0-.11,0l-0.25.46a5,5,0,0,1-1,0,2.73,2.73,0,0,1,.27-0.8l-0.86-.31-0.34.37-0.11.58a2.32,2.32,0,0,1-.59.09,0.93,0.93,0,0,1-.48-0.13l0.21-.63a1.24,1.24,0,0,1,.27-0.53s0-.18-1-0.27a4,4,0,0,0-.52,1.24,1.29,1.29,0,0,1-1-.32l0.14-.45,0.27-.33V47.54a5.15,5.15,0,0,0-1-.1,0.83,0.83,0,0,0-.35.62l-0.08.34-0.49-.08L45.37,48a1.29,1.29,0,0,1,.29-0.54s0.06-.09,0-0.1Zm0.24,3.94A22.59,22.59,0,0,0,47.85,53c1.38,0.31.89-1.24,0.89-1.24a9.8,9.8,0,0,0,3.73.8,7.94,7.94,0,0,0,4.41-1.3h0a4.27,4.27,0,0,0-.16-1c-0.11-.24-0.59-1-0.73-1.32A4.06,4.06,0,0,0,55.25,48a29.65,29.65,0,0,0-2.49-1.78c-0.57-.29-1.26-0.57-1.52-0.73a2.82,2.82,0,0,0-.71-0.24L50,45.16A6.7,6.7,0,0,1,49.21,45a12,12,0,0,1-1.39-.13l-0.38,0a8.18,8.18,0,0,1-1.94.22s-2.16.68-3,.88a2.22,2.22,0,0,0-.66.33,11.5,11.5,0,0,1-1.37.62,0.71,0.71,0,0,0-.37.35l-0.42.4,0,0.84A9,9,0,0,1,40.71,50s1.81,1.76,2.18,2.23a7.9,7.9,0,0,1,1,.53,0.42,0.42,0,0,0,.35-0.44A4.13,4.13,0,0,0,43.9,51.13Z"/>
      <path class="cls-1" d="M46.47,40.62a4.61,4.61,0,0,1,.41-1.3,8.59,8.59,0,0,0,.33-2.4,7.74,7.74,0,0,1,.53,1.64A8.9,8.9,0,0,1,47.85,40l0.06,0.1,0.72-.76,1,0.48s0.07,0,0,.25-0.15,1-.15,1l0.94-1,1.08,0.39a0.24,0.24,0,0,1,0,.25c0,0.21,0,1,0,1l0.91-1,1.2,0.07a0.67,0.67,0,0,1,0,.17c0,0.1.1,1,.1,1l0.64-1,0.08-.07,1.2,0,0.08,0.49s-1,2.09-5.08,1.76a4.71,4.71,0,0,0,2.48.56,2.61,2.61,0,0,1-1.74.38,5.32,5.32,0,0,1-3.82-1.81A14.26,14.26,0,0,0,46.47,40.62Zm2.05-4.92a5.41,5.41,0,0,1,0,.94L49.07,37l0.18-.44-0.67-.87Zm1.28,1-0.23.56a0.19,0.19,0,0,0,.1.2l0.76,0.38,0.31-.77-0.33-.5Zm1.27,1.2s-0.08.12,0,.15S52,38.37,52,38.35a0.16,0.16,0,0,0,.15-0.1c0-.1.28-0.65,0.28-0.65l-0.4-.66-0.64.23a0.43,0.43,0,0,0-.12.16C51.26,37.45,51.08,37.94,51.08,37.94Zm1.69,0.46a0.13,0.13,0,0,0,.15.15c0.16,0,1,.07,1,0.07l0.33-.81-0.46-.51-0.58.25a0.83,0.83,0,0,0-.23.33C52.87,38.09,52.77,38.4,52.77,38.4ZM55,37.79l-0.28.74s-0.06.11,0.1,0.11h0.69L55.78,38a0.12,0.12,0,0,0,0-.1s-0.43-.28-0.43-0.28Zm-9-7.18-0.14,2.18a1.25,1.25,0,0,0,.16.56,2.15,2.15,0,0,0,.75.55s1.51,0.43,1.69,1.34l1.42,0.91,0.8-.08,0.61,0.64,0.91-.19,0.7,0.62,1-.24,0.73,0.49,1-.33,0.67,0.43a4,4,0,0,1,1-.1,4.76,4.76,0,0,0,.68-0.71l-0.56-1.23a4.09,4.09,0,0,0,1.53.22,4.46,4.46,0,0,0,3.44-1.4A5.1,5.1,0,0,1,62,32.63a4.12,4.12,0,0,1,2-2.88l0-.85a6.9,6.9,0,0,0-.33-1.29,4.21,4.21,0,0,0-1.94-1.5c-1.27-.58-3.48-1.29-3.48-1.29a19,19,0,0,1,3.89-.3s-1-1.16-4.67-1.64a7.1,7.1,0,0,1,3,0,2.41,2.41,0,0,0-1.7-.64s-0.16-.3-1.29-0.3A8.25,8.25,0,0,0,56,22c-0.11,0-.83.15-1.82,0.34-0.47.09-1,.13-1.57,0.29-1.5.44-3.06,1.16-3.7,2.35a4.7,4.7,0,0,1,1-.32,19.13,19.13,0,0,0-1.92,1.9c-0.21.39-.53,1.21-0.71,1.44a1.54,1.54,0,0,0,0,1.15,4.92,4.92,0,0,1,2.47-2.51,7.72,7.72,0,0,0-2.26,4.49Zm3.54-2.47L52,28s0.44,1.34,3,2.1a1.71,1.71,0,0,0-.85.41,3.33,3.33,0,0,1-2.72,1.63c-1.15,0-2.35-1.47-2.35-1.47s0.08-.94,2-1.86ZM56,30.31l0.21,0a2.34,2.34,0,0,0,1.17.08A7,7,0,0,0,60,29.65l2.08,1-1.92-.08a3.79,3.79,0,0,1,.65,1.55,1,1,0,0,1-.2.81,5.19,5.19,0,0,1-2,.5,2.22,2.22,0,0,1-1.69-.52,3,3,0,0,1-.55-2.13Zm-3.78,3.84a7.55,7.55,0,0,0,2.59-2.48L55,31.5s0.09-.07.09,0a6.46,6.46,0,0,0,.43,3.22s0.05,0.06-.07.15l-1.58.84A3.26,3.26,0,0,1,54,35.12a5.41,5.41,0,0,0,.27-1.67,7.22,7.22,0,0,0-1.17,2.13A0.23,0.23,0,0,1,53,35.47Zm2.91,12.58-1-.73,0.42-.13,0.2,0,0.15,0,0.78-.15,0.29,0a13.45,13.45,0,0,1,2.88-.85,3.41,3.41,0,0,0,1.42-.31l1.44-.58,1.2-.55a7.19,7.19,0,0,1,1.84-.8,7.54,7.54,0,0,0,2-1c0.11-.05,1.08-0.87,2.06-1.55,0.42-.29.89-0.49,1.22-0.71a10.63,10.63,0,0,0,2.1-2s0.77-.68.95-0.82a30.86,30.86,0,0,0,2.32-3.3s0.2,0.58-1.1,3.41l-0.47,1.22a8.57,8.57,0,0,0-.68,1.06,23.57,23.57,0,0,0-1.53,2.34s-1.5,1.44-1.88,1.84c0,0-1.72,1-3.51,2.23l-2.5,1.35a31.53,31.53,0,0,0-4.18,1.41,20.61,20.61,0,0,0-2.7.55l-0.82-.93s4.62-1.35,5-1.57l0.37-.29L64,44.72a13.7,13.7,0,0,1,1.48-1,6.58,6.58,0,0,1,.75-0.29,6.23,6.23,0,0,0,2.3-1.93l-1.53.8s-1.17.62-1.79,1-2.41,1.1-2.41,1.1l-2.14.8a9.32,9.32,0,0,0-1.31.49,9.64,9.64,0,0,1-2.63.78C56.07,46.54,55.14,46.72,55.14,46.72Zm-0.2,7.17,0-.08a12,12,0,0,1,1.69-.73A3.43,3.43,0,0,0,58.3,51.6V50.75l-0.17-.65a2,2,0,0,0-.21-1.38s1-.28,1.45-0.34a4,4,0,0,1,.06,2.27,0.23,0.23,0,0,0,.19.32,1.46,1.46,0,0,1,.93.23,3.56,3.56,0,0,0,.83.23,0.94,0.94,0,0,1,.7.34,1,1,0,0,0,.62.16,1.39,1.39,0,0,1,.87.36,0.89,0.89,0,0,0,.91.08l0.24-.67a0.35,0.35,0,0,1,.47-0.19c0.32,0.15.21,0.31,0.21,0.31L65.05,53a0.26,0.26,0,0,0,.26.13,0.57,0.57,0,0,1,.06,1,0.1,0.1,0,0,1-.13-0.1l0-.28s0-.08-0.11.09a4,4,0,0,1-.26.48,0.74,0.74,0,0,1-.41-0.09,14,14,0,0,1-.91,1.17,9.45,9.45,0,0,1-3.84,1l-0.52-.15A4.67,4.67,0,0,1,54.95,53.89Zm-14.42-8.7a9.41,9.41,0,0,0-1.08-.86,6.14,6.14,0,0,0-1.73,2.1l-0.24.05a1.87,1.87,0,0,0-.69-0.22c-0.29,0-.27.07-0.51,0.07s-0.68-.18-0.88-0.18-0.77.11-.91,0.11a3.42,3.42,0,0,0-.89-0.2,3.6,3.6,0,0,0-.71.09,1.08,1.08,0,0,1-.64-0.29l0.27-.68a0.27,0.27,0,0,0-.23-0.34,0.45,0.45,0,0,0-.48.27s-0.32.67-.45,1l-0.07.08A0.85,0.85,0,0,0,31,46.21a0.71,0.71,0,0,0-.74.67,0.36,0.36,0,0,0,.05.18,0.93,0.93,0,0,1,.47-0.32,2.23,2.23,0,0,0-.16.58c0,0.12.32,0.12,0.32,0.12s0.08,0,.06.17a5.89,5.89,0,0,0,0,.8,0.65,0.65,0,0,0,.06.48A5.49,5.49,0,0,0,33.5,51a1.07,1.07,0,0,0,.27.07,2.75,2.75,0,0,1,1,.31,3.21,3.21,0,0,0,1.31.17,7.47,7.47,0,0,0,3.52-1,8.61,8.61,0,0,1-1.43-3.08l0.78-.85,0.24-.12A2.74,2.74,0,0,1,40.53,45.19Zm1.07,0.2A14.65,14.65,0,0,0,39.9,44a2.44,2.44,0,0,1-.94-1,12.21,12.21,0,0,0-1.87-1.84l-1.24-2.05a20.93,20.93,0,0,0-1.49-3.3s-0.23-1.71-.35-2.18a1.39,1.39,0,0,1,.08-0.87s0.27-1.84.33-3l1.09-3.15a4.3,4.3,0,0,1,.84-1.54A19.81,19.81,0,0,0,36,28.56s0.23,1.07.28,1.44a9.45,9.45,0,0,0,.22,1.69c0.05,0.13.15,0.62,0.15,0.62a9.54,9.54,0,0,1,.53,1c0.07,0.25.74,2.36,0.74,2.36l0.58,1.09,0.87,0.88a15.29,15.29,0,0,0,1.49,2.16,2.65,2.65,0,0,1,.52.77l2.21,1.72s0.61,0.74.78,0.92a16.41,16.41,0,0,1,1.32,1,3.28,3.28,0,0,0-1.17.35,12.57,12.57,0,0,0-1.92-1.19,9.18,9.18,0,0,0-.87-0.88,11.49,11.49,0,0,0-.79-1.08C40.5,41,40,40.43,39.56,40A26.17,26.17,0,0,1,38,37.87c-0.24-.37-0.48-0.9-0.69-1.27-0.56-1-1-1.65-1-1.73l0.07,1.22,0.4,1.09a5.78,5.78,0,0,1,1,2l1.62,2a1.81,1.81,0,0,1,.17.42s2.16,2.33,3.38,3.38Z"/>
      <path d="M56.56,53.87a5.3,5.3,0,0,0,2.61-2.33,1.45,1.45,0,0,1,.15,1.38,2.49,2.49,0,0,0,1-.34,1.1,1.1,0,0,1,0,.74,1.41,1.41,0,0,0,1-.34,0.76,0.76,0,0,1,.11.75,1.26,1.26,0,0,0,1-.32,0.91,0.91,0,0,1,.08.74,2.25,2.25,0,0,0,1.27-.51,3,3,0,0,1-1.86,2,4,4,0,0,1-1.25-.38,6,6,0,0,0-3.89-.58S56.45,54.53,56.56,53.87Z"/>
      <path d="M38,50.12a4.07,4.07,0,0,1-.72-1.88,5.12,5.12,0,0,1,.15-1.1,1.84,1.84,0,0,0-1.08,1.05s0,0.1-.12,0a1.62,1.62,0,0,1-.51-0.65,0.83,0.83,0,0,0-.53.56,0.15,0.15,0,0,1-.22,0,1.63,1.63,0,0,1-.43-0.64,1.23,1.23,0,0,0-.65.59,0.73,0.73,0,0,1-.6-0.65,1,1,0,0,0-.6.63A0.23,0.23,0,0,1,32.52,48,1.48,1.48,0,0,1,32,47.22s-0.33.1-.33,1.15a1.29,1.29,0,0,0,.53,1.2,6,6,0,0,0,1.87.14,5.81,5.81,0,0,1,3.06.84,0.38,0.38,0,0,0,.48,0Z"/>
    </g>
    <path d="M66.59,60.66a128.85,128.85,0,0,0,10-18.25,27.61,27.61,0,0,1-4.83,12.15C71.24,55.24,69.62,58.6,66.59,60.66Z"/>
  </g>
</svg>
