<svg id="Layer_1" data-name="Layer 1" xmlns="http://www.w3.org/2000/svg" viewBox="0 0 100 100">
  <defs>
    <style>
      .cls-1 {
        fill: #005679;
      }

      .cls-2 {
        fill: #008c96;
      }

      .cls-3 {
        fill: #f48020;
      }
    </style>
  </defs>
  <g id="g3012">
    <g id="g3038">
      <path id="path3040" class="cls-1" d="M20.74,59a1.64,1.64,0,0,1-1.84.33,12.47,12.47,0,0,0,2.17.29,5.26,5.26,0,0,0,.65-1.14,4.32,4.32,0,0,0,.42-3.06c-0.53,1.18-.42,2.77-1.4,3.58"/>
    </g>
    <g id="g3042">
      <path id="path3044" class="cls-2" d="M14.79,57.84c1.41,0.56,1.62.65,3,1.23a8.3,8.3,0,0,0,2.35.47,3,3,0,0,0,.7-0.55,8.09,8.09,0,0,0,1.3-3.48c-0.16-.86-0.88,1-1.94,1a6.36,6.36,0,0,1-3-.15,8.85,8.85,0,0,0-3.51,0A1.51,1.51,0,0,0,13,57"/>
    </g>
    <g id="g3046">
      <path id="path3048" class="cls-2" d="M76.68,48.21c0.33-.85.36-1.11,0.66-2,0,0,.15-0.69.1-0.73-0.4.3-1.25,1.21-1.63,1.53Q73.46,49,71,50.85a22.9,22.9,0,0,1-.12,2.48c-0.31,1.71-.69,3.42-1,5.13C69.77,59,69.95,59,70,59a10,10,0,0,0,1.38-1.13c2.51-2.4,3.5-4.7,4.9-8.38"/>
    </g>
    <g id="g3050">
      <path id="path3052" class="cls-1" d="M98.28,26.15c-1,.23-1.55.44-2.56,0.71a25.75,25.75,0,0,0-5.87,2.48C85.15,32,81.11,35.48,77,38.94c-1.76,1.49-3.49,3-5.24,4.51-2.6,2.22-3.51,3-6.16,5.36a30.06,30.06,0,0,1-3,2.27,21.28,21.28,0,0,1,1.4-2.3c1.13-1.9,2.34-3.76,3.45-5.68a21.85,21.85,0,0,1,5.78-7,74.62,74.62,0,0,1,8.2-5.2c-0.23,0-5.33,2.6-5.52,2.67a19.31,19.31,0,0,0-8.55,7.27c-1.89,3.11-3.68,6.3-5.69,9.33A46.25,46.25,0,0,1,50.16,62.6a3.69,3.69,0,0,1-1.14.46l0,0a37.92,37.92,0,0,0,2.44-5l0.29-.35c-0.38.16-.74,0.37-0.88,0.43a75,75,0,0,1-10.73,4.22,39.13,39.13,0,0,1-8.63,1.55,29.9,29.9,0,0,1-8.74-.63l-1.36-.36-0.14,0c-4.46-1.2-4.86-2-6.68-3.34a10,10,0,0,0-1.83-1.87c0.52,0.87,1.32,2.14,1.84,3C10,61.9,2.9,57.65.5,52.2a4.46,4.46,0,0,0,.36,1.74,12.27,12.27,0,0,0,3.59,4.63c1.71,1.36,2.43,1.85,5.75,2.88a14.92,14.92,0,0,0,3.94.41c0.35,0,1.57-.16,1.92-0.13,0.44,0.2,0,0,.81.41a38.62,38.62,0,0,0,7.2,2.45c1.68,0.38,3.36.75,5.06,1a15.63,15.63,0,0,0,2.5.15,47.37,47.37,0,0,0,8.94-.48,44.31,44.31,0,0,0,8.21-2.22c-0.09.5,0.87,0.53,1.4,0.3a5.6,5.6,0,0,0,.94-0.46c0.84-.56,1.62-1.22,2.49-1.71C55,60.4,56.5,59.73,57.93,59A106.74,106.74,0,0,0,71,50.85Q73.46,49,75.81,47a16.38,16.38,0,0,0,1.45-1.23c-0.29.87-.65,2.17-1,3A21,21,0,0,1,70,59a0.61,0.61,0,0,0,.56-0.1,26.28,26.28,0,0,0,4.67-5.36,53.16,53.16,0,0,0,3.67-9.18s0.49-.54,1.21-1.2c2.11-2.06,4.1-4.11,6.26-6.12a42.1,42.1,0,0,1,3.43-3c2.44-1.81,5-3.5,7.44-5.28,0.92-.66,2.05-1.18,2.23-2.62A0.31,0.31,0,0,0,99,26"/>
    </g>
    <g id="g3058">
      <path id="path3060" class="cls-1" d="M31.88,62.38a44.26,44.26,0,0,0,7.66-2.3,81.14,81.14,0,0,0,13.19-7.15,1.58,1.58,0,0,0,.58-0.53,9.58,9.58,0,0,0,.29-2.21,0.93,0.93,0,0,0,.16-0.75c-0.16.09-.49,0.46-0.64,0.55-0.58.45-1.13,0.86-1.67,1.29a55.09,55.09,0,0,1-15.06,9,40.94,40.94,0,0,1-11.67,2.39,18.5,18.5,0,0,0-2.8.09A41.57,41.57,0,0,0,31.88,62.38Z"/>
    </g>
    <g id="g3062">
      <path id="path3064" class="cls-1" d="M45.85,39.13c1.27,0.07,2.3-.13,3.67,0,3,0.21,3.67-.75,5.06-2a14.33,14.33,0,0,1-4.52.67,31.82,31.82,0,0,0-6,.51,13.77,13.77,0,0,0-3.67,1.24,5.26,5.26,0,0,0-2.07,1.9c1.09,0,5.79-2.29,6.88-2.34"/>
    </g>
    <g id="g3066">
      <path id="path3068" class="cls-1" d="M81.83,28.41c0.93-.3,1.87-0.57,2.81-0.86,0.69-.21,2.15-0.84,2.82-1.12-0.45-.06-2.07.08-2.46,0.09l-2.55.09a5.42,5.42,0,0,0-4.15,1.92,8.39,8.39,0,0,1,3.39-.84c0.74,0,.61.19,0.14,0.73"/>
    </g>
    <g id="g3070">
      <path id="path3072" class="cls-2" d="M79.39,27.8a9.48,9.48,0,0,1,2.88-1c1.59-.26,3.18.05,4.81-0.36-0.67.29-1,.51-2.45,1.1-0.94.29-1.88,0.56-2.81,0.86a12.51,12.51,0,0,0-3.65,1.47,9.22,9.22,0,0,0-1.39,1,6.33,6.33,0,0,1,1.49-2.29M13.05,58.1a12.49,12.49,0,0,0,9.75,4.68c0.64,0,2.83-.06,3.47-0.1a31.23,31.23,0,0,0,10.11-2.4,55.1,55.1,0,0,0,15.06-9c0.54-.43,1.09-0.85,1.67-1.29l0.48-.37v0.08l0,0.28a31.43,31.43,0,0,1-2.07,8.06,40.9,40.9,0,0,1-2.71,5.06,0.13,0.13,0,0,0,.06.19,5.48,5.48,0,0,0,1.32-.71A46.25,46.25,0,0,0,61.74,50.19c2-3,3.8-6.22,5.69-9.33s4.2-4.62,7.74-6.6c5.88-3.43,6.11-3.08,8.66-4.44a42.67,42.67,0,0,1,8.41-3.43,30,30,0,0,1,6.53-1.51,1.06,1.06,0,0,1,.72.11c-0.14-1.46-2.5-1.79-4.21-1.38-1.47.4-2.92,0.88-4.4,1.26a4.82,4.82,0,0,1-1.75.12c-0.52-.06-1-0.17-1.56-0.28a24.62,24.62,0,0,0-13.65.44h0a36.89,36.89,0,0,0-4.34,1.57,44.31,44.31,0,0,0-6.81,3.79,51.14,51.14,0,0,0-8.05,6.36,14.28,14.28,0,0,1-3.41,2c-1.4,0-4.38,0-5.78.09a13.91,13.91,0,0,0-3.42.42c-1.78.36-3.71,1.44-4.15,2.68,0,0.51.55,0.42,0.61,0.42,1.33,0,2.25-.2,3.57-0.21a5.28,5.28,0,0,1,2.71.68,2.13,2.13,0,0,1,.48,3.5c-2,2-4,4-6.05,5.93a39.66,39.66,0,0,1-6.42,5.06,19.31,19.31,0,0,1-7.75,2.86,21.39,21.39,0,0,1-5.33,0A12.32,12.32,0,0,1,14.16,58a19.84,19.84,0,0,0-8.62-3.29,7.07,7.07,0,0,1-3.19-1.27c-0.26-.19-1.15-1-1.54-1.28s-0.29.1-.25,0.27C3,57.9,10.8,62.22,15.37,61"/>
    </g>
    <g id="g3074">
      <path id="path3076" class="cls-3" d="M85.53,47.47c1-.6,2-1.17,3-1.69,0.73-.37,2.06-0.87,2.9-1.24a18.86,18.86,0,0,1-2.65-.15,9.27,9.27,0,0,1-3.74-1.17,1.43,1.43,0,0,1-.77-1.39,5.11,5.11,0,0,1,.19-1.24c-0.66.68-1.37,1.33-2.06,2.06,0,0.25,0,1.22.08,1.92a22.33,22.33,0,0,1-.2,4.91A29.25,29.25,0,0,1,81,54.63a25.08,25.08,0,0,1-7.79,10.73,23.17,23.17,0,0,1-8,4.31,31,31,0,0,1-7.31,1.2,20.44,20.44,0,0,1-2.16,0,19.17,19.17,0,0,1-2.69-.35,24.14,24.14,0,0,1-9.18-3.74L43,66.13c-0.77.13-1.92,0.27-2.7,0.36-1,.12-1.95.28-2.75,0.39l-1.74,3.81a7.51,7.51,0,0,0,1.43-.85c1.39-1,2.78-1.95,4.57-2a1.37,1.37,0,0,1,1.45.49,5.68,5.68,0,0,1,.46,3.35c0,0.42-.06.84-0.1,1.44,0.42-.22.7-0.37,1-0.51,1-.47,1.93-1,2.94-1.39a0.82,0.82,0,0,1,1.27.63,18.21,18.21,0,0,1,.26,2.47c0,2.34,0,4.67,0,7.11a8.06,8.06,0,0,0,.75-1c0.47-.86.84-1.79,1.36-2.61,1-1.54,2-3.06,3-4.53a1.27,1.27,0,0,1,2.16,0c0.64,0.85,1.13,1.81,1.7,2.73,0.06-.1.19-0.3,0.3-0.51a9.87,9.87,0,0,1,2.23-3,1.5,1.5,0,0,1,2.38.3c0.67,1.13,1.23,2.33,1.83,3.5,0.31,0.61.59,1.25,0.91,1.92,0.11-.5.12-1.24,0.2-1.62,0-.12.11-1.31,0.12-1.43,0.06-1.15,0-.43.2-2,0.23-1.35.73-1.66,1.76-1.46a3.16,3.16,0,0,1,1,.48c0.43,0.26.83,0.56,1.23,0.83,0.11-.62.1-1.35,0.18-1.9s0.22-1.06.36-1.66a0.83,0.83,0,0,1,1.09-.25,3.26,3.26,0,0,1,1.25.63c1.4,1,2.74,2,4.09,3,0.71,0.54,1.41,1.11,2.11,1.66C78,72,77.9,71.84,77.66,71.41a19,19,0,0,1-1.85-5c-0.16-1.11-.36-2,1.38-2.16a17,17,0,0,1,2.89.07c0.58,0,1.15.13,1.61,0.19-0.5-1.36-1-2.66-1.45-4-0.33-.94.33-1.61,1.44-1.56a9.28,9.28,0,0,1,1.72.06l1.17,0.16c0.6,0.07,1.21.09,1.8,0.2,2,0.19,2.73.32,4.36,0.53a14.32,14.32,0,0,1-1.39-.69A22.27,22.27,0,0,1,83.46,55a1.43,1.43,0,0,1-.55-1.69c0.65-.9,4-1.33,6.37-1.53-0.63-.43-1.1-0.74-1.56-1.07a17.6,17.6,0,0,1-2.2-1.64c-0.61-.6-0.61-1.23,0-1.61"/>
    </g>
    <g id="g3078">
      <path id="path3080" class="cls-3" d="M29.14,46.54c3.22,1.19.93,4.67-2,6.38a11.94,11.94,0,0,1,2.7.21c1.61,0.3,2.25,1,1.66,2.7-0.17.47-.38,0.93-0.63,1.52a18.08,18.08,0,0,0,3.51-2.27,14,14,0,0,1-1.19-3.81,43.65,43.65,0,0,1-.65-4.52,12.49,12.49,0,0,1,.1-2.63,37.92,37.92,0,0,1,.7-4.51,24.21,24.21,0,0,1,5.69-10.54,24,24,0,0,1,11.59-7.22,28.75,28.75,0,0,1,6-.95,27.6,27.6,0,0,1,6.12.52,25,25,0,0,1,7.66,3l0.86,0.46c1.28-.45,2.88-0.92,5-1.51a1.64,1.64,0,0,1-.07-1.31c-2.85,1.27-4.2,1.35-5.1,1-1.24-.49-0.94-2.44-0.6-3.77a20.46,20.46,0,0,1,1-2.69,14.13,14.13,0,0,1-1.85,2c-1.42,1.13-2.43,2.15-3.51,1.66-1.3-.43-0.84-6.15-0.64-8.78-1.1,2.66-1.71,3.84-2.49,5.42a14.1,14.1,0,0,1-1.88,2.64c-0.48.57-.89,0.49-1.43,0a9.33,9.33,0,0,1-1.83-3.89,15.55,15.55,0,0,1-1,2.71,1.91,1.91,0,0,1-2.94.61,9.63,9.63,0,0,1-2.67-3.56c-0.56-.92-0.8-1.79-1.17-2.52-0.18,1.33-.31,2.8-0.55,4.11a19,19,0,0,1-.78,2.84,0.78,0.78,0,0,1-1,.53,12,12,0,0,1-1.75-.8c-0.36-.2-1-1-1.3-1.24,0.24,1.26.69,3.67-.23,4.38-2.15,1.65-7.52-3.55-8.85-4.58,0.94,2.39,3.77,6.82,2.85,9.12-0.71,1.31-3.19.69-5.06,0,1.11,1.38,2.3,3.16,1.77,4.15-1.63,2.21-7.79-.3-9.65-0.87,1,0.82,2.21,1.49,3.13,2.14,1.43,1,2.78,1.72,3.76,3.26s-2.05,2.68-3.71,2.79c1.63,0.54,3.07,1.55,2.9,2.36-0.35,2.31-4.29,2.79-8.91,3.37"/>
    </g>
  </g>
</svg>
