<svg id="Layer_1" data-name="Layer 1" xmlns="http://www.w3.org/2000/svg" viewBox="0 0 100 100">
  <defs>
    <style>
      .cls-1 {
        fill: #0c371d;
      }

      .cls-2 {
        fill: #fff;
      }
    </style>
  </defs>
  <g id="g3">
    <path id="path5" class="cls-1" d="M99.5,50c0-13.41-22-27.78-49.5-27.78C23.65,22.22.5,36.68,0.5,50S23.65,77.78,50,77.78c27.52,0,49.5-14.37,49.5-27.78h0Z"/>
    <path id="path7" class="cls-2" d="M69.14,35.55v2.92h4.68a1,1,0,0,1,.75.2c0.08,0.14.05,0.64-.59,1.65L67.85,50.53,61.31,40.06c-0.54-.83-0.48-1.17-0.42-1.29a0.69,0.69,0,0,1,.68-0.31H65V35.55H39.75v2.91h3.19a1.88,1.88,0,0,1,1.36.4c0.45,0.45.54,1.39,0.54,2.66V52.22L32.07,35.56H19.48v3.05h4.14a1.29,1.29,0,0,1,.91.25,3.17,3.17,0,0,1,.32,1.91V57.57c0,2.78-.3,3.55-1.39,3.56h-4v2.69h13.5V61.1H29.13a2.21,2.21,0,0,1-1.27-.19c-0.35-.35-0.38-1.91-0.38-3.34V42.78L44.87,63.85H47.6s0-23.45,0-23.87a1.3,1.3,0,0,1,1.28-1.51h2.71c1.25,0,2.07,1.51,2.92,2.94l7.38,12.54v5.34c0,1.81-.81,1.81-1.15,1.81H57.68v2.72h16V61.08H70.78C69.65,61,69.25,60.69,69.3,59V53.49l7.82-13.12c1.12-1.74,1.24-1.92,2.77-1.9h2.65V35.55H69.14Z"/>
    <path id="path9" class="cls-1" d="M69.87,36.28v1.46h3.89s2.88-.24.84,3L67.86,51.93,60.69,40.45c-1.86-3,.92-2.71.92-2.71h2.62V36.28H40.48v1.45h2.46c2.36,0,2.63,1.52,2.63,3.79V54.37L31.71,36.28H20.21v1.6h3.41c2.17,0,1.94,1.71,2,3.37V57.57c0,2.27-.09,4.27-2.11,4.28H20.17v1.23h12V61.83H29.13c-2.06,0-2.38-.3-2.38-4.25v-17L45.22,63.12h1.51V41.35c0-2.27,0-3.53,2.15-3.61h3c1.6,0.12,2.45,2,3.58,3.91l7.15,12.1v5.54c0,1.72-.67,2.54-1.87,2.54H58.41V63.1H73V61.81H70.76c-1.78-.09-2.24-1-2.19-2.82v-5.7l7.37-12.44c1.65-2.47,1.74-3.13,4-3.1h1.91V36.28H69.87Z"/>
    <path id="path11" class="cls-1" d="M61.21,63.46c0-3.29-5-6.83-11.21-6.83-6,0-11.21,3.55-11.21,6.83S44,70.29,50,70.29c6.23,0,11.21-3.53,11.21-6.82h0Z"/>
    <path id="path13" class="cls-2" d="M60.46,63.09c-0.36-2.82-4.87-5.7-10.46-5.7-5.35,0-10.07,2.9-10.46,5.7H60.46Z"/>
    <path id="path15" class="cls-2" d="M39.54,63.82c0.38,2.81,5.11,5.71,10.46,5.71,5.59,0,10.1-2.89,10.46-5.71H39.54Z"/>
    <path id="path17" class="cls-1" d="M46.22,65.9a2.44,2.44,0,1,1,0-4.87h7.56a2.44,2.44,0,1,1,0,4.87H46.22Z"/>
    <path id="path19" class="cls-2" d="M54.18,62.38l-0.05-.22H53.41a2.39,2.39,0,0,1,.07.23,4.36,4.36,0,0,1,.12.71H52.31a4.18,4.18,0,0,0-.1-0.65H51.52a3.42,3.42,0,0,1,.13.64H50.36V62.49H49.64V63.1h-1.3a3.51,3.51,0,0,1,.13-0.64H47.79a4.62,4.62,0,0,0-.1.65H46.4a4.3,4.3,0,0,1,.12-0.71l0.06-.23H45.87l-0.05.22a5,5,0,0,0-.12,1.11,5.19,5.19,0,0,0,.16,1.28h0.72a4.37,4.37,0,0,1-.18-0.95h1.28a4,4,0,0,0,.11.67h0.68a3.39,3.39,0,0,1-.13-0.66h1.3v0.63h0.71V63.83h1.3a3.38,3.38,0,0,1-.13.66h0.68a4,4,0,0,0,.11-0.67H53.6a4.4,4.4,0,0,1-.18.95h0.71a5,5,0,0,0,.17-1.28,5.19,5.19,0,0,0-.12-1.11h0Z"/>
    <path id="path21" class="cls-1" d="M82.62,45.16c-0.74-1.4-2.7-2.2-5.66-2.31a19,19,0,0,0-5.24.39l-35.65,0,1.82-3.4H29.1l-6,11.36c-0.49.72-.56,0.76-1.06,0.71a1.68,1.68,0,0,1-.31-0.05,6.89,6.89,0,0,1,.58-1.14l2.1-3.46h-8.2l-0.25.34C13.68,50.7,13,53.2,14,55s3.11,2.64,6.58,2.61,5.69-.19,7.44-1.33H45.76l4.58-8.56h4L49.74,56.3h9.08l2.85-5.35h3.84l-0.2.49A3.6,3.6,0,0,0,65.42,55c0.86,1.28,2.71,1.93,5.49,1.94,4.69,0,7.68-.44,9.11-2.62,1.19-1.8,1.36-3.44.5-4.62a3.2,3.2,0,0,0-1.06-.87h2.58l0.24-.39a3.09,3.09,0,0,0,.32-3.23h0Z"/>
    <path id="path23" class="cls-2" d="M22.92,48.08H16.6c-4.25,5.84-2.16,8.78,3.93,8.74,5.55,0,7.5-.39,9.81-4.62l6.18-11.54H29.6l-5.83,11c-0.55.8-.85,1.2-1.85,1.1-1.57-.16-1.14-1.08-0.35-2.42l1.35-2.22h0Z"/>
    <polygon id="polygon25" class="cls-2" points="51.11 55.48 58.32 55.48 62.87 47.01 66.19 47.01 67.79 44.05 53.18 44.05 51.63 46.94 55.66 46.94 51.11 55.48"/>
    <path id="path27" class="cls-2" d="M66.07,51.74c-1.1,2.71.57,4.32,4.85,4.33,4.64,0,7.23-.44,8.43-2.25,0.81-1.23,1.28-2.66.52-3.69-0.52-.74-2.39-1.39-4.15-1.73-1.13-.22-1.52-0.49-1.44-1.15a1,1,0,0,1,1.39-.58A1.11,1.11,0,0,1,76.23,48H81.6c1.45-2.34-.23-4.12-4.68-4.29-5.5-.18-7.6.83-8.71,3.64-0.55,1.3-.46,2.3.34,2.83,1,0.66,3.79,1.08,4.62,1.38a0.75,0.75,0,0,1,.29,1.17,1.24,1.24,0,0,1-1.62.23,1.65,1.65,0,0,1-.4-1.17H66.07Z"/>
    <polygon id="polygon29" class="cls-2" points="31.46 55.5 45.27 55.5 46.82 52.61 39.26 52.61 39.99 51.22 46.71 51.22 48.29 48.28 41.97 48.28 42.6 46.95 49.43 46.95 50.97 44.07 37.58 44.07 31.46 55.5"/>
  </g>
</svg>
