<svg id="Layer_1" data-name="Layer 1" xmlns="http://www.w3.org/2000/svg" viewBox="0 0 100 100">
  <defs>
    <style>
      .cls-1 {
        fill: #fff;
      }

      .cls-2 {
        fill: #b11f36;
      }
    </style>
  </defs>
  <g>
    <path class="cls-1" d="M94.72,48c-1.76-1.51-4-1.61-5.35-4.23-1-2-3.23-2.75-5.29-3.08-1.6-.38-2.53-1.92-3.62-3.08-1.41-2.43-4.26-2.47-6.76-2.75-2.72.1-4.42-3.19-7.24-3.94-1-.28-3.86-0.07-5.68-1.4-1.66-1.21-3.74-2.43-7.93-1.9-3.14-.51-5.38-3.2-8.59-3.62-2.18-.67-4.13.32-6.28,0.22-1.51-.42-2.76-1.47-4.29-1.79-2.31-.41-2.89.5-8.74-0.75-2.75-.59-6.19-1.47-4.42,4.26,0.78,2.51,2.58,8.76-3.3,9.37-2.12.21-4.07-1.73-6-.16-0.65.47-1.89-.6-2.69-0.35C6,35.53,7,38.51,6.79,40.56c-0.06,2.31-1.63,4-2.4,6C2.56,50.27,3.33,55.3,4.61,59c0.35,1.92-.19,3.91.19,5.8a0.75,0.75,0,0,0,1,.51c3.89-1.9,4.87.46,6.19-.08,3.65-1.6,6.16-.88,6.94,1,1.35,3.88-1.54,7.24-.77,11.05,0.73,2.56,5.58.32,7.85,0.23,3.17-.24,6.24.67,9.26,0.09a18.22,18.22,0,0,1,8.72-2c2.11,0,3.75-1.06,5.44-2.05,3.11-2.18,7.82-.58,10.83-3,1.63-1.28,4-.77,5.8-1.76a17.57,17.57,0,0,1,9.39-4.2c1.82-.7,3.23-2.6,5-3.49,1.54-1,3.36-1.15,4.84-2.24,2.34-3.07,5.45-5.6,9.16-6.25C98,51.16,96.7,49.15,94.72,48ZM71.94,61.69c-2.84,2.65-8.19,4.56-13.26,5.08-6.09.62-12.14-.26-17-3.43a10,10,0,0,1-4.36-9c0.19-3.56,2.41-6.61,5.26-8.72l-0.67-.73L35,49.1c0,0.37,0,.86,0,1.21h1.75v3.91l-1.31,1.47H22.59v-3l1.59-2.33h0.49V36.89H22.58V34.18l1.73-1.93H36.71v2.89L35,37.2v5.2l12-6.76v-2.3L48,32.25H60.79c0,1.32,0,1.66,0,2.93L59.21,36.9H55.45c-2.19,1.36-2.55,1.56-4.77,2.9a11.53,11.53,0,0,0,1,1.12c6-1.44,13.26-1.31,18.68,1.25l1.89-1.44h3.56c0,2.87,0,4.37,0,8.95l-1.66,1.92H70.9a13.08,13.08,0,0,0-13.67-6.07,5.41,5.41,0,0,0-1,.29c2,2.17,2.25,2.43,4.19,4.5h0.83V54l-1.29,1.66H47V52.54l0.84-1.45c-0.11-.13-0.19-0.19-0.37-0.37A3.72,3.72,0,0,0,46,54.4c0.61,3.2,3.81,4.9,6.63,5.57a23.82,23.82,0,0,0,14.22-1.25c3.7-2.15,4-4.09,4.1-4.26h4.91C75.78,56.82,74.36,59.42,71.94,61.69Z"/>
    <g>
      <path d="M91,41.81c-2.3-1.48-1.73-4.43-7.11-5.12-2.81-.4-2.88-4.48-9.19-5.68-3-.57-5-3.52-8.07-3.78-2.82.06-5.67,0-7.78-1.76-2.11-2-5.38-.93-8.11-1.54-2.22-.78-3.32-2.27-5.63-2.94-2.55-.81-4.62.12-6.64-0.42-2.59-.29-4.58-2.21-7.43-1.76-2.79.77-5.86,0.06-8.65-.16-1.67-.19-6.61-1.27-5.74,3.56,0.54,2.28,1.06,4.55,1.63,6.79,1.09,3.59-.07,3.86-1.76,4s-2-2-3.49-2.18c-1.19-.19-3,1.09-4.39,1.57s-2-1.06-3.3-1.15c-2.65,0-2.79,3.49-2.31,4.07a8.23,8.23,0,0,1,.42,6.12,22.8,22.8,0,0,0-2.34,5.35,26.7,26.7,0,0,0,1,14.74c0.58,2.43-1.54,5.25.64,7.11,2,1.31,3.55-.6,5.41-1,1.37-.31,3.64.64,4.77,0,2.63-1.3,4.15-.2,3.85,1.56-0.7,2.92-1.34,5.86-2.28,8.68-0.56,2.07,2,3.93,3.27,3.72l5.25-1c4-.61,7.75,1.51,11.56.1,2.56-1.25,5.12-2.52,8.39-2.08,2.21,0.29,3.91-.74,5.57-1.76a17.45,17.45,0,0,1,7.12-1.7c2.28,0.09,3.7-1.54,5.69-2.15,1.51-.5,4.15-0.53,4.71-0.93,1.38-1.12,3.12-2.79,4.37-3a19.56,19.56,0,0,0,9.63-4.93c0.39-.4,3.45-1,4.36-1.34,1.89-.74,3.17-2.6,4.16-4.26a7.5,7.5,0,0,1,3.94-2.66,9.38,9.38,0,0,0,6.31-5c1-2.11.6-2.47,0.32-2.82A49.5,49.5,0,0,0,91,41.81Zm3.46,10.73c-3.72.64-6.82,3.17-9.16,6.25C83.8,59.88,82,60.07,80.43,61c-1.73.9-3.14,2.79-5,3.49a17.57,17.57,0,0,0-9.39,4.2c-1.76,1-4.16.48-5.8,1.76-3,2.44-7.72.83-10.83,3-1.7,1-3.33,2.08-5.44,2.05a18.22,18.22,0,0,0-8.72,2c-3,.58-6.09-0.33-9.26-0.09-2.27.1-7.12,2.34-7.85-.23-0.77-3.81,2.11-7.18.77-11.05-0.78-1.86-3.3-2.58-6.94-1-1.32.54-2.3-1.81-6.19,0.08a0.75,0.75,0,0,1-1-.51C4.41,62.89,5,60.91,4.61,59c-1.28-3.68-2.05-8.71-.22-12.4,0.77-2,2.34-3.72,2.4-6,0.22-2.05-.8-5,1.76-5.77,0.8-.24,2,0.82,2.69.35,1.92-1.57,3.87.37,6,.16,5.88-.61,4.08-6.86,3.3-9.37-1.77-5.73,1.67-4.85,4.42-4.26,5.85,1.25,6.43.35,8.74,0.75,1.54,0.32,2.79,1.38,4.29,1.79,2.15,0.1,4.1-.9,6.28-0.22,3.2,0.42,5.45,3.11,8.59,3.62,4.19-.54,6.27.68,7.93,1.9,1.82,1.33,4.63,1.13,5.68,1.4,2.82,0.75,4.52,4,7.24,3.94,2.5,0.29,5.35.32,6.76,2.75,1.09,1.15,2,2.69,3.62,3.08,2.05,0.32,4.28,1.08,5.29,3.08C90.69,46.39,93,46.49,94.72,48,96.7,49.15,98,51.16,94.43,52.54Z"/>
      <path d="M66.88,58.73A23.82,23.82,0,0,1,52.66,60c-2.82-.67-6-2.37-6.63-5.57a3.72,3.72,0,0,1,1.41-3.68c0.18,0.17.26,0.23,0.37,0.37L47,52.54v3.14h13L61.22,54V50.31H60.4c-1.94-2.07-2.2-2.33-4.19-4.5a5.46,5.46,0,0,1,1-.29A13.08,13.08,0,0,1,70.9,51.6h3.22l1.66-1.92c0-4.58,0-6.08,0-8.95H72.23l-1.89,1.44c-5.41-2.56-12.69-2.69-18.68-1.25a11.52,11.52,0,0,1-1-1.12c2.23-1.34,2.59-1.54,4.77-2.9h3.76l1.58-1.71c0-1.27,0-1.61,0-2.93H48L47,33.34v2.3L35,42.4V37.2l1.74-2.06V32.25H24.32l-1.73,1.93V36.9h2.08V50.3H24.17l-1.59,2.33v3H35.42l1.31-1.47V50.3H35c0-.35,0-0.85,0-1.21l7-4.25,0.67,0.73c-2.85,2.11-5.07,5.17-5.26,8.72a10,10,0,0,0,4.36,9c4.84,3.17,10.88,4.05,17,3.43,5.07-.52,10.42-2.43,13.26-5.08,2.42-2.26,3.84-4.87,3.95-7.22H71C70.84,54.63,70.58,56.58,66.88,58.73ZM67.81,42A25.91,25.91,0,0,1,70.48,43l1.88-1.51H75v8H72.33c-4-5-10.82-6-17-4.65l-3-3.18A25.83,25.83,0,0,1,67.81,42ZM34.1,48.74c0,1,0,1.37,0,2.56h1.83v2.32h-11V51.29h2V34.89h-2V33h11c0,0.82,0,.94,0,1.89H34.09v9l16-9H48.41c0-.77,0-1,0-1.87H59.95v1.89H57.14l-7.87,4.76L60.12,51.29h0.29c0,0.86,0,1.4,0,2.33H48.82V51.29H50.5c-4.67-5.12-7.36-8-7.36-8C40.2,45,39.34,45.53,34.1,48.74ZM75,55.43c-1.63,6.19-8.34,8.93-14.13,9.74a29.83,29.83,0,0,1-15.6-1.92C42,62,39.15,58.85,38.88,55.3a9.72,9.72,0,0,1,4.41-9L46.76,50a5.36,5.36,0,0,0-1.47,4.58c0.54,3.4,4.2,5.73,7.27,6.38,5.54,0.9,11.72.54,16.34-2.21a11.34,11.34,0,0,0,3.2-3.3H75Z"/>
    </g>
    <g>
      <path class="cls-2" d="M50.5,51.28H48.81v2.32H60.41c0-.93,0-1.47,0-2.33H60.12L49.27,39.65l7.87-4.76H60V33H48.41c0,0.88,0,1.1,0,1.87h1.75l-16.05,9v-9h1.83c0-.95,0-1.07,0-1.89h-11v1.88h2v16.4h-2v2.33h11V51.29H34.09c0-1.19,0-1.55,0-2.56,5.24-3.22,6.09-3.73,9-5.49C43.14,43.25,45.83,46.17,50.5,51.28Z"/>
      <path class="cls-2" d="M72.33,49.47H75v-8h-2.6L70.48,43a26,26,0,0,0-18.15-1.39l3,3.18C61.51,43.44,68.29,44.44,72.33,49.47Z"/>
      <path class="cls-2" d="M68.9,58.73c-4.61,2.76-10.8,3.11-16.34,2.21-3.08-.64-6.73-3-7.27-6.38A5.36,5.36,0,0,1,46.76,50l-3.48-3.67a9.72,9.72,0,0,0-4.41,9c0.27,3.55,3.11,6.7,6.34,7.94a29.83,29.83,0,0,0,15.6,1.92c5.79-.8,12.49-3.54,14.13-9.74H72.1A11.34,11.34,0,0,1,68.9,58.73Z"/>
    </g>
  </g>
</svg>
