<svg id="Layer_1" data-name="Layer 1" xmlns="http://www.w3.org/2000/svg" viewBox="0 0 100 100">
  <defs>
    <style>
      .cls-1 {
        fill: #fff;
      }

      .cls-2 {
        fill: none;
        stroke: #fff;
        stroke-width: 1.01px;
      }

      .cls-3 {
        fill: #f1c817;
      }

      .cls-4 {
        fill: #010101;
      }

      .cls-5 {
        fill: #57211b;
      }

      .cls-6 {
        fill: #0c130f;
      }
    </style>
  </defs>
  <g id="layer1">
    <g id="g2570">
      <g id="g4">
        <path id="path6" class="cls-1" d="M32,74.67a2.68,2.68,0,0,1-1-.07,9.63,9.63,0,0,0,.48,2.23l-0.4.45,0.48,0.34c-0.51,3.29,1,5.56,1.7,7.76a2.31,2.31,0,0,1-1.66-.1c0.19,1.87,0,5.46-1.62,7a2.23,2.23,0,0,1-.66-0.41A15.42,15.42,0,0,0,28.37,94a18.48,18.48,0,0,0-.65,3.51,8.57,8.57,0,0,1-4.14-3.36,5.47,5.47,0,0,0-1.22-1.53,1.75,1.75,0,0,1-.53.69,4.51,4.51,0,0,1-1.27.65,8.38,8.38,0,0,0-.94-2.53c-0.51-1-2.26-2.41-3.7-5.77a15.24,15.24,0,0,1-1.13-3.76,1.41,1.41,0,0,1-.26.1,0.84,0.84,0,0,1-1.1-.27,4.2,4.2,0,0,1-1.49,2,2.67,2.67,0,0,1-.66,1.34A4.23,4.23,0,0,0,10.4,87,11.77,11.77,0,0,1,9,89.05a3,3,0,0,0-.44-0.58c-1.8,2.21-2,2.78-6.11,3.57a15.72,15.72,0,0,0,1.65-5.63c-0.52-4.38-1-5.3-1.25-8.69a66.07,66.07,0,0,1-.18-11.43A54.4,54.4,0,0,1,7,49.38a145.13,145.13,0,0,1,11.32-22l0-5.46h1.47l1.55-3.26L22,19.18l2.65-6.52,1.88,4.92,3.21-1.87A38.56,38.56,0,0,1,59.49,2.51c18.72,0,38,13.48,38,35.06,0,19.61-17.37,34.75-37.41,34.75-15.53,0-25.54-7.3-30.84-14C29.58,61.7,28.87,68.39,32,74.67Z"/>
      </g>
      <g id="g8">
        <path id="path10" class="cls-2" d="M32,74.67l-0.3,0-0.33,0-0.27,0L31,74.6l0.17,1.05,0.15,0.69,0.11,0.38,0,0.12-0.4.45,0.48,0.34-0.05,2.29,0.45,2,0.67,1.79,0.63,1.68-0.86.1-0.8-.2L31.63,87l-0.18,2-0.52,1.9-1,1.49-0.4-.21-0.26-.2-0.18.36-0.19.37-0.24.53L28.37,94,28,95.56l-0.27,1.93-1-.51-1-.65-1-.91-1-1.3-0.21-.35-0.24-.35L22.82,93l-0.45-.45-0.2.35-0.33.33-0.35.23-0.42.22-0.35.15-0.15,0L20.23,92.7l-0.6-1.3L19,90.53l-0.91-1.15L17,87.8l-1.11-2.17-0.69-1.87-0.43-1.9-0.26.1L13.87,82l-0.42-.32L12.71,83,12,83.74l-0.13.41-0.11.31-0.15.29-0.27.34L11,85.48l-0.21.36-0.19.46L10.4,87l-0.4.77-0.41.58-0.34.42L9,89.05l-0.22-.33-0.22-.25L8,89.23l-0.53.62L7,90.37l-0.55.42-0.66.36-0.83.31-1.06.29L2.5,92l0.7-1.58,0.54-1.7L4.07,87.3l0.08-.89L3.78,83.68l-0.35-2-0.3-1.8L2.9,77.72,2.75,76,2.6,73.45l0-3.27,0.16-3.89,0.6-4.86,1-4.47,1.28-4L7,49.38l1-2.45,1.21-2.71,1.38-2.88,1.51-3,1.58-3,1.6-2.87,1.57-2.69,1.49-2.42,0-5.46h1.47l1.55-3.26L22,19.19l2.65-6.52,1.88,4.92,3.21-1.87,0.33-.33,0.52-.55,0.71-.74,0.9-.9,1.1-1,1.3-1.11,1.51-1.17L37.87,8.7l1.93-1.18,2.14-1.13,2.36-1,2.58-.93,2.81-.78,3-.6L56,2.64l3.5-.13L63,2.66l3.5,0.46L70,3.89l3.38,1.06,3.27,1.34,3.14,1.62,3,1.89,2.79,2.15,2.57,2.4L90.41,17l2,2.88L94.19,23l1.4,3.34,1,3.55,0.64,3.75,0.22,4L97.3,41.2l-0.58,3.5-0.95,3.37-1.29,3.21-1.61,3-1.91,2.86-2.19,2.66L86.31,62.3l-2.68,2.22-2.9,2-3.09,1.71-3.26,1.44L71,70.8l-3.53.84-3.64.51-3.72.18L54.52,72l-5.06-.92L44.9,69.66l-4.07-1.82-3.59-2.13-3.12-2.36-2.66-2.49-2.21-2.52,0.09,1.41,0,1.68,0.06,1.9,0.14,2.08,0.27,2.22,0.45,2.31L31,72.3l1,2.37"/>
      </g>
      <g id="g12">
        <path id="path14" class="cls-3" d="M59.54,70.7c19.93,0,36.09-14.9,36.09-33.29S79.48,4.12,59.54,4.12,23.45,19,23.45,37.41,39.61,70.7,59.54,70.7Z"/>
      </g>
      <g id="g16">
        <path id="path18" class="cls-1" d="M59.54,66.05c17.15,0,31.06-12.82,31.06-28.64S76.69,8.77,59.54,8.77,28.49,21.59,28.49,37.41,42.39,66.05,59.54,66.05Z"/>
      </g>
      <g id="g20">
        <path id="path22" class="cls-4" d="M40,34.7s-2.54,5.67-2.43,10.15c0,0,.79-1.68,1.07-1.39,0,0-2.28,7.06-.55,11.1a5.81,5.81,0,0,1,1-1.8,12.52,12.52,0,0,0,1.33-2.51,6.32,6.32,0,0,1,.29,1.32,5.9,5.9,0,0,0,1-1.66c0.14-.53.52-1.12,0.77-1.8l0.29,0.14a14.58,14.58,0,0,0,2.39-3.7s0.51-.07.26,1.33a4.92,4.92,0,0,0,1.47-3.29l0.29,0.31c1.21,1.39,1.21,3.53,1.18,4.85-0.29,4.24-2.65,6.51-5.59,9L43,56.93c4.38-.74,7.26-1.18,11.7,0a44.91,44.91,0,0,1,7.76,3.33S66.92,62,70,62c0,0,.15.07,0.15-0.09,0,0-.33-1.05,0-5,0,0,.33-1.83.59-3.09a8.27,8.27,0,0,0,.37-2.58c0-.14-0.15-1.19.62-1.09a11.27,11.27,0,0,0,3.9-.34,15.3,15.3,0,0,1,1.92-.41,6.68,6.68,0,0,0,1.69.07,4.67,4.67,0,0,0,1.51-1,2.08,2.08,0,0,0,.22-2.1,3.37,3.37,0,0,1-.19-1.73,5,5,0,0,1,1-1.43,0.63,0.63,0,0,0-.15-0.91s-0.29-.31.2-0.43a1.36,1.36,0,0,0,.61-0.09,0.32,0.32,0,0,0,.15-0.3,3.77,3.77,0,0,0-.81-2.75s0.28,0.07.48,0.14A4.73,4.73,0,0,0,84,38.74a1.91,1.91,0,0,0,1.2-2.24,25.58,25.58,0,0,0-1.48-3.7c-0.7-1.63-.81-2.44-2.28-3.56-0.88-.37-1.29-1-0.63-1.6a2.35,2.35,0,0,0-.59-2.88A10.17,10.17,0,0,1,78.33,22,12.77,12.77,0,0,0,77,20.17c-0.44-.51-1.11-0.81-2.28-2.1a2.52,2.52,0,0,1-.81-1.19A10,10,0,0,0,67,13.25l-1.58-.17a16.47,16.47,0,0,0-6.92.14c-0.76.15-2.28,0.41-2.28,0.41A12.94,12.94,0,0,0,53,14.78a37.92,37.92,0,0,0-3.31,2.17,41.58,41.58,0,0,1-4.93,3.36A35.43,35.43,0,0,0,38.48,26a27.36,27.36,0,0,0-5,10.55,11,11,0,0,0-.22,3.12s1.47-3,2.84-3.87a7.7,7.7,0,0,0-.3,1.43,7.94,7.94,0,0,1,1-1.39s0.52-.51,1.25-1.32a15.4,15.4,0,0,1,2-2.07,5.11,5.11,0,0,0-.75,2.65,2.37,2.37,0,0,0,.46-0.47s0.14-.27.29-0.2A0.31,0.31,0,0,1,40,34.7Z"/>
      </g>
      <g id="g24">
        <path id="path26" class="cls-5" d="M84.38,37.67a2.21,2.21,0,0,0-.24-2.36,8.64,8.64,0,0,1-.81-1.8,14.92,14.92,0,0,0-.59-1.39A5.7,5.7,0,0,0,82,30.59a7.48,7.48,0,0,0-1.75-1.48H80.07a5.16,5.16,0,0,0-.8,1.29,0.25,0.25,0,0,1-.24.07,0.93,0.93,0,0,1-.3-0.32c-0.12-.17-0.22,0-0.35.09a0.34,0.34,0,0,0-.21.12c-0.11.11,0,.17,0.07,0.29a0.85,0.85,0,0,1,.06.19A0.21,0.21,0,0,1,78,31a0.94,0.94,0,0,1-.41-0.12,8,8,0,0,1-.6-0.54,0.51,0.51,0,0,0-.43,0,0.2,0.2,0,0,0-.07.32c0.17,0.15.31,0.32,0.49,0.45a1,1,0,0,1,.56.54c0,0.31-.45.42-0.68,0.26a2.78,2.78,0,0,1-.39-0.3,1.27,1.27,0,0,0-.07-0.14,1.46,1.46,0,0,1-.28-0.24,1,1,0,0,0-.43-0.37,0.28,0.28,0,0,1-.11-0.12,2.77,2.77,0,0,1-.06-0.43c-0.05-.11-0.08-0.28-0.24-0.21a0.26,0.26,0,0,1-.3.12c-0.22,0,0-.38,0-0.33s0,0,.06-0.13c-0.15,0-.37-0.15-0.2-0.35s0.29,0.08.34,0a1.37,1.37,0,0,1,.19-0.28,0.15,0.15,0,0,1,.24.06c-0.07.19,0.14,0.31,0.34,0.21,0,0,0-.15,0-0.19a2.49,2.49,0,0,1,.77-0.67,1.2,1.2,0,0,0,.12-0.06c0.09-.16.19-0.4,0-0.48s-0.48,0-.41-0.26a0.44,0.44,0,0,1,.3-0.21c0.35-.15.71-0.3,1.07-0.43a1.52,1.52,0,0,1,.35-0.16A2.4,2.4,0,0,1,79,27a3.68,3.68,0,0,1,.39.14,0.81,0.81,0,0,0,.92-0.23,1.16,1.16,0,0,0-.06-1.12,4.5,4.5,0,0,0-.9-1.06,2.39,2.39,0,0,1-1-1.05,7.41,7.41,0,0,0-.93-1.91,10,10,0,0,0-1-1.3c-0.09-.11-0.66-0.64-0.76-0.73a3.8,3.8,0,0,0-1.62-1c-0.35-.12-1.73,0-2.45-0.13a1.55,1.55,0,0,1-1.11-.38,2.38,2.38,0,0,0-.74-1c-0.13-.07-0.33-0.15-0.46-0.22a4.88,4.88,0,0,0-2-.78c-0.26,0,0,.26.05,0.29a1.93,1.93,0,0,1,.63.51,2.68,2.68,0,0,0,.91.33c0.32,0.12.59,0.31,0.89,0.46s0.66,0.59.35,0.78a3.6,3.6,0,0,1-1,.05,2,2,0,0,1-.62.06,1.56,1.56,0,0,1-1.23-.48c-0.45-.29-0.73-0.74-1.16-1a7,7,0,0,0-1.67-.83,3.79,3.79,0,0,1-.43,0A1.71,1.71,0,0,0,63.47,16a2.93,2.93,0,0,0-.89,0c-0.06,0-.23.18-0.28,0.18a1.09,1.09,0,0,0-.7.06c-0.2.22,0,.19,0.31,0.31a2.1,2.1,0,0,0,.64.21,3.47,3.47,0,0,1,1.8.27,1.13,1.13,0,0,1,.34.36c-0.55,0-1.43-.21-2.07-0.16,1.08-.08-1.1,0-1.57,0-0.14,0-.14.26,0.08,0.41a1.06,1.06,0,0,1,.43.08,1.83,1.83,0,0,1,.9,0,1.36,1.36,0,0,1,.36.17,0.85,0.85,0,0,0,.46.15,0.84,0.84,0,0,1,.46-0.23A2,2,0,0,0,64,18a8.75,8.75,0,0,1,1.9.34,1.17,1.17,0,0,1,.49,0,0.83,0.83,0,0,0,.83,0,14.31,14.31,0,0,1-.11,9.2,10.69,10.69,0,0,0-.37,3.56,20,20,0,0,1-3.16,11.71c-0.66.75-1,1.15-.37,1.69a8.62,8.62,0,0,0,4.52,1.87,5.74,5.74,0,0,0,1.8.27,7.29,7.29,0,0,1,3.39.92,8.19,8.19,0,0,0,3.71.81,5.57,5.57,0,0,1,1.77.31,1.56,1.56,0,0,0,1,0L80,48.36a1.22,1.22,0,0,0,.5-1.07,10.57,10.57,0,0,0-.36-1.51A1.18,1.18,0,0,1,80,44.61a9.28,9.28,0,0,1,.92-1.22c0.44-.46.18-0.78-0.42-0.93A7.61,7.61,0,0,0,79,42.33a3.84,3.84,0,0,0-1,0,5,5,0,0,0-.46.32l-0.22-.12A2.23,2.23,0,0,1,78,41.64a4.36,4.36,0,0,0,1.36,0c0.38-.16.82-0.23,1.14-0.34a8.71,8.71,0,0,1,1.47,0A2.44,2.44,0,0,0,81.11,39a1.54,1.54,0,0,0-.9-0.56,3.48,3.48,0,0,1-2.4-.51,0.69,0.69,0,0,0-.64.32,2.77,2.77,0,0,1-1,1l-0.29,0a10.61,10.61,0,0,1,.84-1.09,6.87,6.87,0,0,1,1-1.56,2.34,2.34,0,0,1,.75-1.25,0.67,0.67,0,0,1,.46.05c-0.36.32-1.4,1.48-.33,2.19a0.88,0.88,0,0,0,1.27,0,1,1,0,0,1,.35-0.39,1.59,1.59,0,0,1,1.2.29,3.4,3.4,0,0,0,.92.8,1.71,1.71,0,0,0,.9.14A1.68,1.68,0,0,0,84.38,37.67Z"/>
      </g>
      <g id="g28">
        <path id="path30" class="cls-5" d="M76.69,29.71a2.33,2.33,0,0,0,.76.13,1.05,1.05,0,0,0,.75-0.23,0.76,0.76,0,0,0,.35-0.3,1.53,1.53,0,0,0-.06-0.44,1.85,1.85,0,0,0-.09-0.49A0.34,0.34,0,0,0,78,28.21a4.56,4.56,0,0,0-.41.3,7,7,0,0,1-.65.64c-0.12.21-.19,0.26-0.26,0.39S76.61,29.67,76.69,29.71Z"/>
      </g>
      <g id="g32">
        <path id="path34" class="cls-6" d="M80.08,34.82c0.63-.19.94,0.08,1.63,0.52a0.22,0.22,0,0,1,0,.38,0.26,0.26,0,0,1-.23,0,2.16,2.16,0,0,0-1.48-.65S79.92,34.87,80.08,34.82Z"/>
      </g>
      <g id="g36">
        <path id="path38" class="cls-6" d="M76.33,40.79a7.64,7.64,0,0,1-.32.76,3.42,3.42,0,0,1-.26.83,0.23,0.23,0,0,1-.36-0.06,1.82,1.82,0,0,1,.18-1.38,0.64,0.64,0,0,1,.72-0.25,1,1,0,0,0,0,.14v0Z"/>
      </g>
      <g id="g40">
        <path id="path42" class="cls-6" d="M70,37.67a0.4,0.4,0,0,1-.29-0.44c0.07,0,0-.08.07-0.07,0.44,0,.85.19,1.29,0.2a3.49,3.49,0,0,0,1.46-.28,12.9,12.9,0,0,0,1.6-.85,2.91,2.91,0,0,1,.9-0.3,2.15,2.15,0,0,0,.8-0.54c0.52-.28.48-0.48,0.77-0.38,0.08,0-.08.2-0.17,0.28a2.52,2.52,0,0,0-.63.61,4.23,4.23,0,0,1-.36.37,5.67,5.67,0,0,0-1.17,1.26,4.28,4.28,0,0,0-.5,1,4,4,0,0,1-.29.57,2.56,2.56,0,0,1-.32.1,5.16,5.16,0,0,0-1,1.06,0.18,0.18,0,0,1-.22,0,1.28,1.28,0,0,0-1.12-.75,0.39,0.39,0,0,1-.2-0.39,0.15,0.15,0,0,0-.1-0.13,2,2,0,0,0-.22-0.09,0.28,0.28,0,0,1-.19-0.2,8.73,8.73,0,0,1-.15-1h0Z"/>
      </g>
      <g id="g44">
        <path id="path46" class="cls-1" d="M61.84,47.09a1,1,0,0,0-1.11-.27,5.2,5.2,0,0,0-1.86.47c0.41-.58.92-0.61,1.88-1,0.22-.08.17-0.43,0-0.64a0.6,0.6,0,0,0-.46-0.27,2.62,2.62,0,0,0-1.47.13,7.36,7.36,0,0,0-3.69,2.33,0.59,0.59,0,0,0-.11.64,2.66,2.66,0,0,0,.44.63,2.43,2.43,0,0,1,2.08-1,3.54,3.54,0,0,0-1.86,1.43,0.9,0.9,0,0,0,.37.49,2.06,2.06,0,0,0,.57.73A0.89,0.89,0,0,0,57,50.56c0.81-1,1.62-1.61,3.87-1.88A1,1,0,0,0,62,47.87a1,1,0,0,0-.13-0.81"/>
      </g>
      <g id="g48">
        <path id="path50" class="cls-1" d="M59.16,50.24a2.87,2.87,0,0,0,.11,1.07c0.15,0.31.46,0.59,0.58,0.91a5.34,5.34,0,0,1,.41.73,0.46,0.46,0,0,1,.17.25c0.19,0.24.78,0.52,0.57,0.66a2.74,2.74,0,0,1-1.39,0c-0.56-.08-0.23.38-0.12,0.43,0.56,0.21,1.75.29,2.14,0.48a1.45,1.45,0,0,1,.64.51,2.14,2.14,0,0,0,.32.43,4.51,4.51,0,0,0,.89,1,0.68,0.68,0,0,1,.35.62,0.41,0.41,0,0,1-.53.28,3.65,3.65,0,0,1-.61-0.19,1.16,1.16,0,0,0-1-.15c-0.2.09,0.09,0.41,0.32,0.52,0.92,0.45,2,.46,2.94.94a1.91,1.91,0,0,1,1.19,2,0.77,0.77,0,0,0,.29.14c0.26-.38.93,0.09,1.25,0a0.26,0.26,0,0,0,0-.23c-0.15-.22-0.48-0.22-0.62-0.43a1.9,1.9,0,0,1,0-.65c-0.08-.19-0.43.14-0.57,0a6,6,0,0,0-1.77-1.56,5.19,5.19,0,0,0,.4-2.24c-0.22-.17-0.31.1-0.36,0.14s-0.11.51-.32,0.78a0.57,0.57,0,0,1-.4-0.07A4.08,4.08,0,0,1,62.73,55a2.19,2.19,0,0,0-.14-0.18,1.35,1.35,0,0,1,.09-1.75,0.66,0.66,0,0,0,.08-0.41,0.38,0.38,0,0,0-.34.13,1.33,1.33,0,0,1-.89.67,1.72,1.72,0,0,1-1-.79,3.37,3.37,0,0,1-.22-0.51,13.34,13.34,0,0,1-.81-1.66A0.54,0.54,0,0,0,59.16,50.24Z"/>
      </g>
      <g id="g52">
        <path id="path54" class="cls-5" d="M62,59.4c0.48,0.23-.07-0.29-0.07-0.29a4.46,4.46,0,0,1-.7-0.88,8.06,8.06,0,0,1-.48-0.85,4.11,4.11,0,0,0-1.13-1.23,5.12,5.12,0,0,1-.94-1.08,4.35,4.35,0,0,0-1.15-1.93c-0.54-.35-0.41-0.74-0.87-1.41a6.14,6.14,0,0,0-.81-0.54c-0.67-.63-0.25-0.87-0.83-1.44a2.38,2.38,0,0,1-.6-0.69c-0.29-.49-0.07-1.14-0.57-1.37a7.1,7.1,0,0,0-1.08-.37,6.64,6.64,0,0,1-1.62-.79c-0.44-.32-1.34-1-2.3-1.78,0.59,4.17-.22,7.74-4.71,11.47C52.39,54.82,56,56.62,62,59.4Z"/>
      </g>
      <g id="g56">
        <path id="path58" class="cls-5" d="M65.1,54.08a2.08,2.08,0,0,0,.36.75,2.71,2.71,0,0,0,.54.76,3.33,3.33,0,0,1,1.38,2.72c0,0.51.07,0.48,0.61,0.84a2.4,2.4,0,0,1,.44.32c0.11,0.09.9,0.87,1,1,0-.31,0-0.82,0-1,0-1.6.29-3.25-.3-4.66-0.44-1-1.43-2.23-1.82-3.32l-0.2-.6a9.5,9.5,0,0,1-.22-1.74l-1.23-.54c-1-.36-2.06-0.69-3-1a1.63,1.63,0,0,1-.31,1.29A13.86,13.86,0,0,0,63.12,51a4.33,4.33,0,0,1,1.58,2.34A7.43,7.43,0,0,1,65.1,54.08Z"/>
      </g>
      <g id="g60">
        <path id="path62" class="cls-1" d="M50.15,17.94s-0.73-.07-2.47,1.15a25,25,0,0,0-6.29,4.72,21.88,21.88,0,0,0-3.94,4.45,15.62,15.62,0,0,0-1.88,4.38s0.26,0.88,1-.27A54.92,54.92,0,0,1,49.74,18.6l0.33,0A56.86,56.86,0,0,0,37.77,31.33c-0.16.23-.37,0.65-0.39,0.68-0.2.34,0.3,0.39,0,.33a1.32,1.32,0,0,0,.8-0.52,1.13,1.13,0,0,0,.48.26,5.19,5.19,0,0,0,1.92-1.76,3.66,3.66,0,0,0,.22.58c0.4,0.1,1.66-1.49,2.32-2.58,0.19,0.2,0,.7.2,0.49a9.74,9.74,0,0,0,1.83-2,4.79,4.79,0,0,0,1.17-2.41,1.25,1.25,0,0,1,.37.3A7.31,7.31,0,0,1,47.22,24,3.6,3.6,0,0,1,48,23.14a2.18,2.18,0,0,0,.51-0.89c0.06-.26.69-1.12,0.74-1.4a12.4,12.4,0,0,1,2-2C51.84,18.34,51.4,17.49,50.15,17.94Z"/>
      </g>
      <g id="g64">
        <path id="path66" class="cls-1" d="M43.67,44.44a0.29,0.29,0,0,0,.48-0.09A4.85,4.85,0,0,0,45,42.81a7.45,7.45,0,0,0,.59-2.92A4.76,4.76,0,0,1,46.14,42l0.15,0a3.55,3.55,0,0,1,1.29-1.66,3.09,3.09,0,0,1,.88-1.7c-0.11-.51-0.18-0.92-0.29-1.73A13.54,13.54,0,0,1,48,31.65c0.66,3.26,1,3.73,1,3.73l0.15,0a4,4,0,0,0,.43-1.68c0.33-1.29.92-1.15,0.92-1.43a14.63,14.63,0,0,1-.3-4.14,5.65,5.65,0,0,0,.81,2c0.33,0.71.37-.17,0.37-0.17-0.07-.92.63-1.83,0-4-0.26-1.46-1-4.58-.7-5.29,0.18-.88-0.15-0.58-0.15-0.58s-1,.2-2.39,3.94C46,30.36,44.23,37,42.27,42.33,42.86,39.52,46,29.58,46.91,26c0,0-.13-0.26-0.33,0a4.93,4.93,0,0,0-.61.8,0.75,0.75,0,0,0-.26.09l-0.46.64a38,38,0,0,1-3.44,3.6A10.17,10.17,0,0,0,40.75,33c-0.17.36,0.09,0.41,0.37,0.2a12.31,12.31,0,0,1,1.66-1.27s0.8-.28.8-0.29a2.46,2.46,0,0,1-.34.29,8.27,8.27,0,0,0-1.07,1.17c-0.43.68-.9,1.53-1.51,2.56a21.61,21.61,0,0,0-1.36,2.78A1.87,1.87,0,0,0,39,39.59c0.55,0.2.25,0.46,0.25,0.46-0.25.42-.36,0.76,0.06,0.61a0.87,0.87,0,0,0,.54-0.31c0.22-.25.4-0.42,0.55-0.59s0.2-.37.47-0.65a3,3,0,0,1,.91-0.82,2.63,2.63,0,0,0-.64,1.3l0.15,0.17,0.11,0.07a5.1,5.1,0,0,0-.92,2.33,11.18,11.18,0,0,1-.24,1.29,1.51,1.51,0,0,0,.75-0.3,4.8,4.8,0,0,0-.17.71,3,3,0,0,0-.06.76,1.36,1.36,0,0,0,.15.71,2.71,2.71,0,0,0,1.43-.91c0.3-.26.52-0.88,0.61-0.83s0,0.41,0,.57a3.08,3.08,0,0,0-.23.53,0.23,0.23,0,0,0,0,.3c0.06,0,0,0,.21,0a0.36,0.36,0,0,0,.22-0.16,0.22,0.22,0,0,0,.12-0.13,0.47,0.47,0,0,1,.2-0.2A0.29,0.29,0,0,1,43.67,44.44Z"/>
      </g>
      <g id="g68">
        <path id="path70" class="cls-6" d="M26.64,23.54H25.87l2.54-5.33-3.13,2.26-0.72-3.38-1.64,4.6-0.79-.56L20.94,23.6H20.05v2.68h5.41Z"/>
      </g>
      <g id="g72">
        <path id="path74" class="cls-6" d="M22,26.15l2.87,1.76,0.29-.78-1.69-1Z"/>
      </g>
      <g id="g76">
        <path id="path78" class="cls-6" d="M22.85,25.78l1.54,1.46s-1.21,4.72-1,7.3c2.25,2,3.9,3.94,3.64,8.28,0,0,.15.1-0.81-0.17a5.31,5.31,0,0,1,1,1.66A16,16,0,0,1,27.45,48s0.11,3,.22,4c0.44,0.14.18,1.22,0.22,2.65a10.74,10.74,0,0,1-.19,1.56c-0.92-.68-0.84-0.64-1.1-0.58a2.81,2.81,0,0,0,.81,1.22,84.37,84.37,0,0,0,.44,10c0.15,1.32.4,2.85,0.51,3.33a11.65,11.65,0,0,0,.88,2.44A1.55,1.55,0,0,1,28,72.2a2.6,2.6,0,0,0,1,1.15l0.51,3.53-0.59.61L29.69,78a13.36,13.36,0,0,0,0,3.05,6.9,6.9,0,0,0,.85,2.31,1.13,1.13,0,0,1-1.25-.78,5.64,5.64,0,0,0-1-1c-0.07,1,.52,1.36.77,1.94,0.75,1.66.85,3.26,0.18,6.34-0.74-.64-0.77-1.22-1.33-1.53a6.94,6.94,0,0,1-.51,3.08,6.38,6.38,0,0,0-1,3.47c-1.29-1-1.62-2.34-2.5-3.12a16.29,16.29,0,0,1-2.32-2.38,4.57,4.57,0,0,1-.37,2,4,4,0,0,0-1-2c-0.92-1.19-3-3.83-3.46-6.65-0.11-.48-0.41-1.87-0.74-3.77a2,2,0,0,1-1.14,1.26c-0.22.1-.22-0.17-0.22-0.17a4.46,4.46,0,0,0,.18-1.8,7.59,7.59,0,0,0-.74-2.82H13.94a2.67,2.67,0,0,1-.74,2,5.73,5.73,0,0,0-.22-2c-0.11-.31-0.37-0.58-0.44-0.27A6.88,6.88,0,0,0,12.29,77a25.2,25.2,0,0,1-.22,2.65A4.78,4.78,0,0,1,11,82.2a3.51,3.51,0,0,0-.7-1.46c0,1,.22,2.44-0.44,3.22a5.88,5.88,0,0,0-1.18,2.27c-0.11-.88-0.4-0.61-0.55-1.09A8.53,8.53,0,0,1,5,89.63a10.11,10.11,0,0,0,.88-2.71A22.33,22.33,0,0,0,5.41,83c-1-4.44-1.49-14.7-.73-18.6C6.51,50.41,14.39,37.58,21,26Z"/>
      </g>
      <g id="g80">
        <path id="path82" class="cls-1" d="M23.62,27.17a30.46,30.46,0,0,0-.92,7.67A7.57,7.57,0,0,1,26,41.15c-0.13.05-.15,0-0.26-0.07-0.44-.52-1.62-0.7-2.5-2,0.13,0.83,2.73,4.16,2.91,4.8,0,2.07.37,5.07,0.18,5.67-0.63-.29-1-0.95-0.88-0.54a16.85,16.85,0,0,0,1.45,3,17.32,17.32,0,0,1-.06,2.53H26.67a13.72,13.72,0,0,1-1.41-1.09,10.67,10.67,0,0,1-.72-0.8,10.18,10.18,0,0,0-1.31-1.14,5.36,5.36,0,0,0-1.58-.73c-0.13,0-.39,0-0.39,0a12.91,12.91,0,0,1,2.17,2.21,10.7,10.7,0,0,1,1.78,2.46A18.07,18.07,0,0,0,26.6,57.3c0,0.93-.07,4,0,4.56l-0.28-.19a6.07,6.07,0,0,1-2-2.29c-0.33,1.56,1.47,3.39,2.3,4,0.28,2.9.28,4.26,0.79,7.31l0,0.24a9.86,9.86,0,0,1-2.43-2.44c-0.07,1.19,1.21,2.75,2.58,4.24a2.06,2.06,0,0,1,.23.69,5.51,5.51,0,0,0,.52,1.09,7.12,7.12,0,0,1,.2,1.92l-0.55,1,0.74,0.82c0.07,0.88-.11,1.12,0,2.1a1.53,1.53,0,0,1-1.22-1A5.56,5.56,0,0,0,28.11,84a6.52,6.52,0,0,1,.62,3.12l-0.15.37a5.77,5.77,0,0,0-1.69-1.93l-0.26-.07c0.62,3.57.41,4.75-.77,7l-0.19-.17a14,14,0,0,0-2.79-3,6.31,6.31,0,0,1-1.81-3.29l-0.18,0a5.45,5.45,0,0,0-.15,1.8l-0.15-.07c-0.88-.37-2.48-3.26-2.76-4.92,0,0-.06-0.33-0.18-1s-0.42-2.61-.5-2.88a20.94,20.94,0,0,0-.6-2.14c0-.17-0.11-0.22-0.2-0.08s-0.37.52-.48,0.36a1.44,1.44,0,0,1,.06-0.81c-0.15.1-.48,0.14-0.52-0.1a24.57,24.57,0,0,1-.63-5.43c0.18-.44.7-1.25,1.1-2.14l0-.2a3.45,3.45,0,0,0-1.33,1.25l-0.18-.24a18.31,18.31,0,0,1-.29-3.39,0.72,0.72,0,0,1,.15-0.61c0.29-.64.63-1.36,0.88-2.07A22.31,22.31,0,0,1,16.91,60l-0.24.2c-0.68.22-2.43,2.17-2.65,2.31l-0.17,0c0.09-2,.68-6.29,1.08-9,0.41-1,3.57-4.05,2.83-3.51a9,9,0,0,0-2.21,1.09l-0.44.14c0.44-1.89,1.35-8.74,2.32-10.59,0.7-1.12,1.4-1.43,1.91-2.65L19,38.23a14.26,14.26,0,0,0-2.1,1.9l-0.22,0a17.84,17.84,0,0,1,1.1-3.05,8.68,8.68,0,0,1,.7-1.15,3.39,3.39,0,0,1,1.29-1.12l0.74-.27a81.48,81.48,0,0,0-2.43,16.25c-0.44,9.84.45,21.75,4,29.12a77.6,77.6,0,0,1-3.61-27.49C18.8,44.3,20.12,37.79,23,26.79Z"/>
      </g>
      <g id="g84">
        <path id="path86" class="cls-1" d="M21.67,26.32c-0.92,1.15-7.25,12.15-7.87,14.15C8.21,50.82,4.89,61.13,5.11,71.28A55.05,55.05,0,0,0,6.22,82a18.1,18.1,0,0,1,.55,4L7,86a11.49,11.49,0,0,0,1.18-3c0.07-.44.33,0,0.33,0a3.63,3.63,0,0,1,.37.75c0,0.27.14,0.24,0.22,0a2.53,2.53,0,0,0,.37-2,13.2,13.2,0,0,1,.07-4.31c0-.27.26,0,0.26,0a5,5,0,0,0,1.14,1.77s0.28,0.17.3,0c-0.07-.71-0.15-5.36,1-5.87a1.68,1.68,0,0,1,.81.68c0.37-.37.52-2,0.41-3.19a29.36,29.36,0,0,0-.44-5c-0.15-.37,0-0.44.22-0.51a3.46,3.46,0,0,0,.88-1.49c-0.7.44-.88,0.54-1.55,1A19.16,19.16,0,0,0,11,59.27a5.54,5.54,0,0,1,1.58,2.11A21.75,21.75,0,0,0,13,58.28a22.68,22.68,0,0,1-1.1-6.35,39.48,39.48,0,0,0,1.4,4.28c0.22-.75.4-2.07,0.7-3.19a4.36,4.36,0,0,0,1-.78c-0.15-.24-0.77.2-0.88,0.23a19.49,19.49,0,0,0-.51-6.41l0.11-.1a2.16,2.16,0,0,1,.88,1.39c0.66-.71,1.1-4.24,1.29-5.63-0.7,0-1,.71-1.51.64a1.46,1.46,0,0,1,.29-0.64,14,14,0,0,0,.81-1.6,3.14,3.14,0,0,0,.44-1.8,3.55,3.55,0,0,1,.44-2.17,8.26,8.26,0,0,0,.29,1.15,13.36,13.36,0,0,1,1.58-2.54,25.41,25.41,0,0,1,4.16-8.45"/>
      </g>
      <g id="g88">
        <path id="path90" class="cls-1" d="M22,28.18a17.6,17.6,0,0,0-2.54,5.91,5.41,5.41,0,0,1,1.1-.41C20.75,32.83,22.2,27.92,22,28.18Z"/>
      </g>
      <g id="g92">
        <path id="path94" class="cls-3" d="M9.83,66.94c0,0.1.19,0,.1,0.14a2.43,2.43,0,0,0,.66,0,0.36,0.36,0,0,0,.19-0.26A0.76,0.76,0,0,0,10.72,66a4.38,4.38,0,0,1-.37-0.61A3.18,3.18,0,0,1,10,65.13c-0.09-.08-0.24.1-0.24,0.18S9.91,65.76,9.9,66A2.28,2.28,0,0,0,9.83,66.94Z"/>
      </g>
      <g id="g96">
        <path id="path98" class="cls-3" d="M7.18,63.82c0-.39-0.17-0.95.47-0.79a0.46,0.46,0,0,1,.25.45,2.06,2.06,0,0,0,.26,1,0.43,0.43,0,0,1-.16.46,0.69,0.69,0,0,1-1,.19,0.7,0.7,0,0,1-.23-0.78,2.2,2.2,0,0,1,.42-0.52"/>
      </g>
      <g id="g100">
        <path id="path102" class="cls-3" d="M7.81,67.86A0.72,0.72,0,0,1,8,66.74a0.41,0.41,0,0,1,.62.14C8.78,67.29,9,67.63,9.09,68a0.6,0.6,0,0,1-.83.63A2,2,0,0,1,7.81,67.86Z"/>
      </g>
      <g id="g104">
        <path id="path106" class="cls-3" d="M8.16,69.47c-0.16,0-.17.08-0.25,0.15a3.5,3.5,0,0,0-.31.59,1.21,1.21,0,0,0-.08,1.13,0.86,0.86,0,0,0,.73.51c0.48,0,.83-0.86.47-1.05s-0.31-.91-0.48-1.26a0.44,0.44,0,0,0-.2,0"/>
      </g>
      <g id="g108">
        <path id="path110" class="cls-3" d="M11.19,68.63a0.3,0.3,0,0,1,0-.45,0.45,0.45,0,0,1,.48.06l0.21,0.14a0.88,0.88,0,0,1,.42,1.12,0.34,0.34,0,0,1-.46.13,1,1,0,0,1-.39-0.24A4,4,0,0,0,11.19,68.63Z"/>
      </g>
      <g id="g112">
        <path id="path114" class="cls-3" d="M6.84,65.89c-0.07-.22-0.27-0.11-0.38,0A2.32,2.32,0,0,0,6,67.21a0.56,0.56,0,0,0,.78.23,1.16,1.16,0,0,0,.12-1.31A0.33,0.33,0,0,0,6.84,65.89Z"/>
      </g>
      <g id="g116">
        <path id="path118" class="cls-3" d="M17.08,69.25a0.2,0.2,0,0,0-.3.12c0,0.35,0,1,.53.9a0.35,0.35,0,0,0,.29-0.43A1.07,1.07,0,0,0,17.08,69.25Z"/>
      </g>
      <g id="g120">
        <path id="path122" class="cls-3" d="M18.45,70.48a0.44,0.44,0,0,0-.49,0,0.67,0.67,0,0,0-.21.71,1.69,1.69,0,0,0,.39.74,0.51,0.51,0,0,0,.49.19,1,1,0,0,0,.26-0.85A1.53,1.53,0,0,0,18.45,70.48Z"/>
      </g>
      <g id="g124">
        <path id="path126" class="cls-3" d="M23.71,70.08a0.42,0.42,0,0,0-.27.08,0.54,0.54,0,0,0,.29.77,0.38,0.38,0,0,0,.43-0.56,0.78,0.78,0,0,0-.6-0.29"/>
      </g>
      <g id="g128">
        <path id="path130" class="cls-3" d="M21.19,73.2A0.57,0.57,0,0,1,21,72.62a0.46,0.46,0,0,1,.51-0.23,0.84,0.84,0,0,1,.5.34,0.94,0.94,0,0,1,0,1.36A0.45,0.45,0,0,1,21.38,74a4.23,4.23,0,0,1-.16-0.7A0.9,0.9,0,0,1,21.19,73.2Z"/>
      </g>
      <g id="g132">
        <path id="path134" class="cls-3" d="M24.24,73.42a8.47,8.47,0,0,0-.51-0.85,0.54,0.54,0,0,0-.6,0,0.85,0.85,0,0,0-.23.57,0.51,0.51,0,0,0,.12.33,2.65,2.65,0,0,0,1.29.73A0.27,0.27,0,0,0,24.54,74,0.51,0.51,0,0,0,24.24,73.42Z"/>
      </g>
      <g id="g136">
        <path id="path138" class="cls-3" d="M19.38,73a0.47,0.47,0,0,0-.58,0,0.26,0.26,0,0,0-.11.19,3.28,3.28,0,0,0,0,1.32,0.56,0.56,0,0,0,.66.43,0.49,0.49,0,0,0,.29-0.59A3,3,0,0,0,19.38,73Z"/>
      </g>
      <g id="g140">
        <path id="path142" class="cls-3" d="M27.7,73.12c-0.1-.31-0.7,0-0.91-0.19a1.06,1.06,0,0,1-.45-0.6,1,1,0,0,0,.13.94,2.69,2.69,0,0,0,.44.39,1.73,1.73,0,0,1,.3.57,0.34,0.34,0,0,1-.33.43c-0.54.09-.55-0.62-0.72-1a4.41,4.41,0,0,0-.64-0.57A1.71,1.71,0,0,1,25.35,73c-0.15-.25-0.46-0.43-0.6-0.69a0.62,0.62,0,0,0,.06.33,17.24,17.24,0,0,0,1,2.12,3.41,3.41,0,0,1,.27.6,0.54,0.54,0,0,1-.09.52,1.67,1.67,0,0,1-.44-0.05,1.08,1.08,0,0,0,.28,1,0.83,0.83,0,0,1,.24.69,0.28,0.28,0,0,1-.17.14,0.69,0.69,0,0,1-.63-0.23,10.65,10.65,0,0,1-1.45-1.68c-0.17-.24-0.08-0.55-0.26-0.79s-0.31-.36-0.49-0.21a0.39,0.39,0,0,0-.14.2,1.62,1.62,0,0,1-.33.83c-0.06.06-.17,0.17-0.19,0.21A4.39,4.39,0,0,0,22,77.52a0.44,0.44,0,0,1-.21.36,0.3,0.3,0,0,1-.34-0.18A4,4,0,0,1,21,76.86a4.92,4.92,0,0,0-.22-0.59,0.11,0.11,0,0,0-.07,0,0.14,0.14,0,0,1-.05.13,1.15,1.15,0,0,1-.65.43,0.27,0.27,0,0,1-.34-0.16C19.48,76,19,75.54,18.79,74.91A0.84,0.84,0,0,1,18,74.7a3.44,3.44,0,0,1-.41-1.93,1.2,1.2,0,0,0-.29.24A9.88,9.88,0,0,0,16,76.3a4.42,4.42,0,0,1-.18.54c-0.16.46,0.09,0.53,0.35,0.22,0.45-.54.36-0.09,0.4,0,0.11,0.78.55,1.56,0.73,2.88a31.34,31.34,0,0,0,.59,3.22A8.32,8.32,0,0,0,20.76,88c-0.11-.88.22-1.21,0.15-1.89l0.19,0a5.41,5.41,0,0,0,2.09,3.57,24.15,24.15,0,0,1,2.11,2.14c0.22,0.34.4,0.5,0.58,0.77A7.94,7.94,0,0,0,27,88.94h0a11.89,11.89,0,0,0-.37-3.46,5.85,5.85,0,0,1,2,2.11,4.72,4.72,0,0,0-.37-3.33,6.29,6.29,0,0,1-.77-4.78,1.27,1.27,0,0,0,1.22.88,19.25,19.25,0,0,0,0-2.1,4.57,4.57,0,0,0-.73-0.82l0.55-1a3.93,3.93,0,0,0-.2-1.92A10,10,0,0,1,27.7,73.12Z"/>
      </g>
      <g id="g144">
        <path id="path146" class="cls-3" d="M21.34,67.67a0.67,0.67,0,0,1-.18-0.57A0.41,0.41,0,0,1,21.4,67a0.82,0.82,0,0,1,.74.14,2.22,2.22,0,0,1,.56,1,0.44,0.44,0,0,1-.19.55,0.53,0.53,0,0,1-.6.09,0.87,0.87,0,0,1-.24-0.36,4.61,4.61,0,0,0-.16-0.56A0.66,0.66,0,0,1,21.34,67.67Z"/>
      </g>
      <g id="g148">
        <path id="path150" class="cls-3" d="M21.14,68.82a0.47,0.47,0,0,0-.3-0.08s-0.17,0-.17.08a2.13,2.13,0,0,1-.64.93,0.83,0.83,0,0,0,.43.88,0.91,0.91,0,0,0,.81,0,0.81,0.81,0,0,0,.38-1A1.64,1.64,0,0,0,21.14,68.82Z"/>
      </g>
      <g id="g152">
        <path id="path154" class="cls-1" d="M26,24.39H21v1.09h4.62Z"/>
      </g>
      <g id="g156">
        <path id="path158" class="cls-1" d="M25.46,21.35l0.18,0.8,1-1.72Z"/>
      </g>
      <g id="g160">
        <path id="path162" class="cls-1" d="M22,23.55l0.51-1.17L24,23.55H22Z"/>
      </g>
      <g id="g164">
        <path id="path166" class="cls-1" d="M23.66,22.26L24.34,20l0.48,3.15Z"/>
      </g>
      <g id="g168">
        <path id="path170" class="cls-3" d="M5.22,67.26a0.47,0.47,0,0,0,.19.37,5.34,5.34,0,0,1,.18.8,0.7,0.7,0,0,0,.29-0.34c0.14,0.53-.27,1-0.07,1.56a3.31,3.31,0,0,0,.74-0.48c0,0.21-.08.41-0.11,0.62a4,4,0,0,0,.14,1.08c0.05,0.47.68,0.82,0.5,1.27a3.17,3.17,0,0,0-.18,2.24,0.78,0.78,0,0,0,.32.47,0.68,0.68,0,0,0,.49,0,0.34,0.34,0,0,0,.15-0.25c0.06-.33-0.1-0.63,0-0.95a2.33,2.33,0,0,1,.44-1.14,0.24,0.24,0,0,1,.32.06,7.75,7.75,0,0,0,.36,1.19,0.42,0.42,0,0,0,.53.07,1.52,1.52,0,0,0,.26-1.14,5.83,5.83,0,0,0-.34-1.63,0.89,0.89,0,0,1,.25-0.95,4.78,4.78,0,0,0,.67,1.69,0.28,0.28,0,0,0,.34.05,0.93,0.93,0,0,0,0-1.18,1.42,1.42,0,0,1,0-1.93,1.1,1.1,0,0,0,.12.8A3.24,3.24,0,0,1,11.45,71a0.32,0.32,0,0,0,.52.12s0-.16.09-0.17a0.45,0.45,0,0,1,.44.53,0.66,0.66,0,0,0,.35,0,2.16,2.16,0,0,0,.24-1.34c0-.72.22-0.44,0.35-0.51a6.78,6.78,0,0,1,0,1.32c0.11,1.22,0,2.82-.41,3.19a1.69,1.69,0,0,0-.81-0.68c-1.18.51-1.1,5.16-1,5.87,0,0.17-.29,0-0.29,0a5,5,0,0,1-1.14-1.76s-0.26-.27-0.26,0a13.2,13.2,0,0,0-.07,4.31,2.53,2.53,0,0,1-.37,2c-0.07.21-.22,0.24-0.22,0a3.79,3.79,0,0,0-.37-0.75s-0.26-.44-0.33,0A11.53,11.53,0,0,1,7,86l-0.19.1a18.13,18.13,0,0,0-.55-4A54.58,54.58,0,0,1,5,71.35c0-2,.12-4.16.12-4.16Z"/>
      </g>
      <g id="g172">
        <path id="path174" class="cls-3" d="M20.49,75.55a38.46,38.46,0,0,0,1.63,4.38c-0.11-.88-1.4-4.38-1.36-4.61S20.49,75.55,20.49,75.55Z"/>
      </g>
      <g id="g176">
        <path id="path178" class="cls-1" d="M61.05,18.09a2.37,2.37,0,0,1-.58-0.21,0.78,0.78,0,0,0-.18-0.28,0.68,0.68,0,0,0-.46.06,1.64,1.64,0,0,1-.7-0.08c-0.39.42-1.45,0.14-1.94,0.17a2.22,2.22,0,0,0,.38.25,2.36,2.36,0,0,0,1.35.26,2,2,0,0,0,.26-0.07,5.1,5.1,0,0,1,1.39.16C60.73,18.39,61.2,18.24,61.05,18.09Z"/>
      </g>
      <g id="g180">
        <path id="path182" class="cls-1" d="M68.2,18.68l-1.09-.58a1.52,1.52,0,0,0-.26-0.31,4.79,4.79,0,0,0-.66-0.62,5.9,5.9,0,0,0-1.1-.65,1.41,1.41,0,0,0-.14,0,0.05,0.05,0,0,1,0-.07,0.2,0.2,0,0,1-.1,0,0.46,0.46,0,0,0-.2-0.11,1.58,1.58,0,0,1-.65-0.1A2.38,2.38,0,0,0,63.62,16a1.54,1.54,0,0,0-1,0,0.7,0.7,0,0,0-.25.15,1.87,1.87,0,0,1-.53,0c-0.15,0-.32.21-0.18,0.35a1.28,1.28,0,0,0,.58.3A12.19,12.19,0,0,1,64.1,17a0.69,0.69,0,0,1,.45.35,0.24,0.24,0,0,1-.18,0,0.87,0.87,0,0,0-.45-0.11,14.81,14.81,0,0,0-3,0,0.47,0.47,0,0,0,.34.52c0.31,0,.65-0.05.95,0a2.8,2.8,0,0,1,1,.39,0.23,0.23,0,0,0,.17,0A0.64,0.64,0,0,1,63.81,18a1.21,1.21,0,0,0,.31.1c0.23,0,.4,0,0.62,0a5,5,0,0,0,1.32.29,0.75,0.75,0,0,1,.67.2,1.92,1.92,0,0,0,.7.28A3.41,3.41,0,0,0,68.2,18.68Z"/>
      </g>
      <g id="g184">
        <path id="path186" class="cls-1" d="M70.87,18.47a1.75,1.75,0,0,1-.49-0.76,1.17,1.17,0,0,0-.48-0.44C69,16.86,68,16.14,67.38,16.19a0.2,0.2,0,0,0-.17.32,1.19,1.19,0,0,1,.65.59c0.86,0.4,2.38.66,2.3,1.53A5.37,5.37,0,0,0,70.87,18.47Z"/>
      </g>
      <g id="g188">
        <path id="path190" class="cls-3" d="M21,24.39H26.4a7.07,7.07,0,0,0-.47,1.1H21V24.39h0Z"/>
      </g>
    </g>
  </g>
</svg>
