<svg id="Layer_1" data-name="Layer 1" xmlns="http://www.w3.org/2000/svg" viewBox="0 0 100 100">
  <defs>
    <style>
      .cls-1 {
        fill: #00143f;
      }

      .cls-2 {
        fill: #fdffff;
      }

      .cls-3 {
        fill: #fff;
      }

      .cls-4 {
        fill: #fefefd;
      }

      .cls-5 {
        fill: #52b845;
      }

      .cls-6 {
        fill: #2d597f;
      }
    </style>
  </defs>
  <g>
    <path class="cls-1" d="M13.77,30.14s0.45,2.22,5.76,2.36L63,32.57S72.5,32.15,77.08,38c0,0,23,1.49,22.41,13,0,0,.07,8.88-12.28,18.8,0,0,5.41-6.66-4.3-7.49,0,0-5.08-.76-39.48-0.83,0,0-4.4,0-3-3.43l3.38-5.41-7.18-5.93s6.79-8.14,15.74-8.2c0,0,3.69-.21,9.52,2.39,0,0,8.56,4.84,12.36,1.22,0,0-2.58,1.85-9.73-1.77,0,0-6.9-3.77-13.63-3.62,0,0-6.35-.44-14.13,6A10,10,0,0,1,29,45.58L5.46,45.52Z"/>
    <path class="cls-2" d="M90.23,62.3s-8.71-6-28.32-7.18c0,0-7.81-.36-10.09,4.74h2.72s0.88-3.48,10.32-2.93c0,0,15.66,1,25.38,5.38"/>
    <path class="cls-3" d="M48.4,59.92H44.81s3.82-8.65,11.47-8.13l9.45,0a6.66,6.66,0,0,0,6.63-3.31s2.5-7,7.81-7.74c0,0-1.91,1.39-.55,2.32a13.86,13.86,0,0,0,4.34.83S100.46,45.75,91.2,61c0,0-10.2-6.66-29.56-7.39,0,0-9.78-1.17-13.24,6.26"/>
    <path class="cls-4" d="M54.53,41.62s-3.62-1.18-9.72,3.88c0,0,4.1,4.61,8.75,4.49H64.11s6.07,0,7.13-4.25H68s-1.47,3.35-8.4,2.77c0,0-7,.16-7-2.77,0,0-.14-1.51,1.86-4.13"/>
    <path class="cls-5" d="M58,42.25l2.34,0.87S58.7,45.26,62,45.91a2.61,2.61,0,0,0,2.47-1l1,0.34s-0.6,2.52-6.17,1.3c0,0-4.28-.43-1.33-4.28"/>
    <path class="cls-6" d="M4,48.35H29.21s4.39-.1,6.42,2.08L40,53.89l-2.6,4.81a2.46,2.46,0,0,0,.81,2.84H9S0.71,62.48.5,56.78c0,0-.16-3.28,3.52-8.43"/>
  </g>
</svg>
