<svg id="Layer_1" data-name="Layer 1" xmlns="http://www.w3.org/2000/svg" viewBox="0 0 100 100">
  <defs>
    <style>
      .cls-1, .cls-4 {
        fill: #006db0;
      }

      .cls-1 {
        fill-rule: evenodd;
      }

      .cls-2 {
        fill: #010101;
      }

      .cls-3 {
        fill: #fff;
      }
    </style>
  </defs>
  <g>
    <g>
      <path class="cls-1" d="M78.38,90.91c-1,4-11.53,1.84-14.45,2.43,0.64-.6,1.3-1.17,1.92-1.79,2.84-.31,7.26.95,7.93-1.54-1.08-2-6-.66-6-3.07,0-2.21,2.51-4.21,4.48-5a3.49,3.49,0,0,0-3.07,1.41c1-3.69,8.33-2.07,13-2.43,0.22,0.37-1.21,1.25-1.66,1.79-2.62.19-6.34-.71-6.91,1.53,1,2,5.29.9,5.88,2.94,0.66,2.28-2.8,4.5-4.22,5.12A3.84,3.84,0,0,0,78.38,90.91Z"/>
      <path class="cls-1" d="M60.22,81.06c0.44,2.37,1.21,4.42,1.66,6.78,1.47-3.22,1.83-7.55,7.16-6.91-4.79,2.76-2.49,13.28-10.49,12.41-0.81-2-1.44-4.11-2.17-6.14-0.8,3.54-3,6.85-7,6.14,4.12-2.61,3.14-9.82,8.31-11.51a6,6,0,0,0-3.07,1.41c-0.15.18,0,0,0-.13C55.45,81.47,57.76,80.66,60.22,81.06Z"/>
      <path class="cls-1" d="M35.79,93.21c-1,5.77-11.46,3.12-18,3.71,5.67-3.54,3.95-14.47,11.38-16.24A4.66,4.66,0,0,0,25,82.47c0.34-2.95,5.61-3.29,8.7-3.07-0.28.66-1.37,1-1.92,1.53-3.42,3.25-2.93,10.9-6.91,13.69C27.21,94.23,34.36,95.7,35.79,93.21Z"/>
      <path class="cls-1" d="M42.31,90.4c-0.33.43-1.14,0.63-1,1.15,6.58,1,4.64-6.61,8.06-8.83C43.39,81.45,44.34,87.75,42.31,90.4Zm12.41-9.46c0.23,0.5-.83.86-1.28,1.41-2.14,2.6-2.14,10.09-6.27,10.87a37.51,37.51,0,0,1-8.31,0c-2.5-.68-0.44-4.37.38-6.52A7.16,7.16,0,0,1,43.72,82a3.57,3.57,0,0,0-3.07,1.41C42,79.46,49.74,81.42,54.72,80.93Z"/>
      <path class="cls-1" d="M37.33,82a3.9,3.9,0,0,0-3.07,1.28c0.29-2,3.91-2.47,6.39-2.3-0.34.79-1,.85-1.53,1.54C36.8,85.5,37,92,33.36,93.08a12.69,12.69,0,0,1-3.91.12c-0.06,0-.13,0,0-0.07C32.69,90.5,32.3,83.2,37.33,82Z"/>
    </g>
    <g>
      <path class="cls-2" d="M64.7,3c1.68,1.09,3.35,2.2,5.1,3.16a29.53,29.53,0,0,0,6.09,2.31,5.12,5.12,0,0,1,3.28,2.75,12.22,12.22,0,0,1,2.27,1.22A5.31,5.31,0,0,1,83,14.76a27.93,27.93,0,0,1,3.73,1.88,25.8,25.8,0,0,1,4.41,3.73,7.61,7.61,0,0,0-2.73,2.45A11.59,11.59,0,0,1,87,25.69a3.83,3.83,0,0,1,4.8.13,6,6,0,0,1,4.8,1.83,3.41,3.41,0,0,1,.69,3.46c-0.31.67-.08,1.46-0.47,2.11a6.78,6.78,0,0,1-1.42,1.66,4.2,4.2,0,0,1-2.23,2A5.76,5.76,0,0,1,90,36.77a7.62,7.62,0,0,1-4.26-.33q-0.59.88-1.21,1.74A8.65,8.65,0,0,0,87.79,40c1.36,0.38,2.9.68,3.75,1.94a5.32,5.32,0,0,1,5.76,3.88,3.86,3.86,0,0,1-.11,2.42c-0.26.72-.94,1.19-1.17,1.92a3.08,3.08,0,0,1-2.49,2,3.85,3.85,0,0,1-4.49.48,8.31,8.31,0,0,1-3.79-.92A8.46,8.46,0,0,1,83.55,50c-1.36-.63-2.91-0.49-4.35-0.73a22.65,22.65,0,0,1-6.4-1.82,18.79,18.79,0,0,1-4.41.67A6.44,6.44,0,0,0,67,45.91c-2.49,1.33-4.95,2.93-7.81,3.27a16.59,16.59,0,0,1-.84,3.15,5.89,5.89,0,0,1-3.3,3.1,5.08,5.08,0,0,1,3.24,3.82,3.46,3.46,0,0,1-1.5,3.37,3.38,3.38,0,0,1-2.34,1.95c-1,.3-2.07-0.11-3,0.31A5,5,0,0,1,47,64a39.74,39.74,0,0,1-5.73.23,3.78,3.78,0,0,1-3.09-2.35,13.52,13.52,0,0,1-2.52,1.45,31.78,31.78,0,0,0-4.17,2.38,1,1,0,0,0,.26.86,3.82,3.82,0,0,1,2.17,2.76,4.49,4.49,0,0,1-.43,2.72c-0.31.58-.9,0.91-1.25,1.46a3.2,3.2,0,0,1-1.86,1.4c-0.66.22-1.38,0-2,.21a4.3,4.3,0,0,1-3.3-.29,4.49,4.49,0,0,1-2.24-4C22.9,69,23,67,23,65.05a4,4,0,0,1-.48-3.73c0.53-1.37,2-2,2.68-3.24a8,8,0,0,0,.71-3.35c0.07-1.35.23-2.7,0.3-4.05A14.59,14.59,0,0,1,20.95,48a11.81,11.81,0,0,1-3-4.53c-0.69-1.87-.79-3.92-1.67-5.72a5.19,5.19,0,0,0-1.71-2,5.21,5.21,0,0,1-4.76-1.51c-0.92-.78-1.42-2-2.57-2.51a14.49,14.49,0,0,0-4.69-1.1,15.39,15.39,0,0,1,9.16-4.84A5.32,5.32,0,0,1,15.82,27a5.8,5.8,0,0,1,1.72,2.69,11.88,11.88,0,0,1,6.41,7.51,10.23,10.23,0,0,0,1.6,4,6.48,6.48,0,0,0,3.73,2.07c1.48-1.37,2.83-3.05,4.81-3.71,0.9-.34,1.85-0.52,2.72-0.92s1.44-1.19,2.18-1.77a3.07,3.07,0,0,0,.89-1A17.74,17.74,0,0,1,42.48,32a10.64,10.64,0,0,1-1.1-4.56l1.08,0.34c0.06-2.45,1.73-4.4,3.4-6a8.48,8.48,0,0,1,1.2-4.16A8.13,8.13,0,0,1,46,15a14.25,14.25,0,0,0,4.23-1A5.55,5.55,0,0,0,52,12.37,11.42,11.42,0,0,1,55.5,9.59,11.88,11.88,0,0,1,61,8.48a8.67,8.67,0,0,0-2-1.12,12.68,12.68,0,0,1,5.27-1.68A11.33,11.33,0,0,1,64.7,3h0Z"/>
      <path class="cls-3" d="M65.61,5a45.44,45.44,0,0,0,4.92,3c1.58,0.65,3.21,1.18,4.83,1.71a3.63,3.63,0,0,1,2.72,2.51c1.07,0.5,2.34.82,3.05,1.85,0.52,0.57.45,1.59,1.25,1.9a24.45,24.45,0,0,1,3.85,2,27.29,27.29,0,0,1,2.84,2.47,11.56,11.56,0,0,0-1.9,1.8,8.1,8.1,0,0,1-2.07,3.56,3.7,3.7,0,0,0-1.12.94,9.15,9.15,0,0,1,3,.66,5.56,5.56,0,0,1,2-1.12,2.37,2.37,0,0,1,2.25.89,4.91,4.91,0,0,1,4.51,1.57,2,2,0,0,1,0,2.55,2.93,2.93,0,0,1-.17,1.62,2.87,2.87,0,0,1-1.07.9,3.38,3.38,0,0,1-1.62,1.86A4,4,0,0,1,90,35.37a8.67,8.67,0,0,1-2.76.2,5.53,5.53,0,0,1-1.81-.88c-1,1.17-1.78,2.51-2.78,3.68a12.11,12.11,0,0,0,3.83,2.5,19.78,19.78,0,0,0,2.53.75,3,3,0,0,1,1.82,1.71,4.07,4.07,0,0,1,3.34.35,4.38,4.38,0,0,1,2,2.69,2.29,2.29,0,0,1-1.06,2.28,3.23,3.23,0,0,1-.61,1.5,2.14,2.14,0,0,1-1.6.61,2.32,2.32,0,0,1-2.2,1C90,51.68,89.37,51,88.57,51.14A4.19,4.19,0,0,1,84.51,49a13.13,13.13,0,0,0-4.71-.88A18.26,18.26,0,0,1,72.9,46a12.12,12.12,0,0,1-3.64.94A5.75,5.75,0,0,0,67,44.36c-1.54.84-3.08,1.68-4.63,2.48A12.8,12.8,0,0,1,57.82,48a7.93,7.93,0,0,1-.61,3.43,5.27,5.27,0,0,1-.77,1.54A6.76,6.76,0,0,1,54.93,54c-1.27.72-2.77,0.88-4,1.64A14.32,14.32,0,0,0,49.13,57a3.35,3.35,0,0,0,2.13.13,5.93,5.93,0,0,1,1.87-.62A3.74,3.74,0,0,1,57,59.42a2.18,2.18,0,0,1-1.29,2.27,2.5,2.5,0,0,1-1,1.39,5.83,5.83,0,0,1-2.86.2,3.65,3.65,0,0,1-2.34.43c-0.85-.15-1.51-0.8-2.34-1-1.82,0-3.63.29-5.45,0.29a2.56,2.56,0,0,1-2.07-1.14,2.64,2.64,0,0,1,.16-2.79c0.42-.8,1.2-1.37,1.56-2.2a2.57,2.57,0,0,0-1.13-.81c-1.05,1.84-1.7,4.12-3.61,5.29-2.14,1.25-4.54,2.09-6.42,3.76,0,0.8,0,1.59.06,2.39a2.64,2.64,0,0,1,2.25,1.67c0.24,1.08.11,2.54-1,3a2.27,2.27,0,0,1-1.25,1.42c-0.65.26-1.37-.11-2,0.17a3.36,3.36,0,0,1-2.27,0,2.9,2.9,0,0,1-1.76-2.72c0-2,.14-4,0.18-6.05-0.13-1-1-1.85-.77-2.92,0.51-1.57,2.4-2.1,3-3.64,1.1-2.83.6-5.92,1.09-8.86a17.07,17.07,0,0,1-4.79-1.93,9.23,9.23,0,0,1-3.31-3.88c-1.06-2.21-1.08-4.76-2.2-6.94a6.12,6.12,0,0,0-2.55-2.54,4,4,0,0,1-3.93-.76c-0.9-.72-1.45-1.78-2.33-2.52A9.34,9.34,0,0,0,4.8,30c2.48-1.67,5.33-3.32,8.45-2.9a3.89,3.89,0,0,1,3.09,3.48,13.29,13.29,0,0,1,3.72,2.47,11.06,11.06,0,0,1,2.72,5.09A9.37,9.37,0,0,0,25.37,43a9.35,9.35,0,0,0,4.39,1.77,41.61,41.61,0,0,1,3.11-3c1.33-1.14,3.18-1.2,4.7-1.94,0.89-.73,1.74-1.51,2.64-2.23a5.86,5.86,0,0,0,1.2-1.71,27.7,27.7,0,0,1,2.69-3.94,5,5,0,0,1-1-2.77l1,0.09a3.71,3.71,0,0,1,0-2.81,12.09,12.09,0,0,1,3.12-4.05,7.55,7.55,0,0,1,1.43-4.72,6.49,6.49,0,0,1-.95-1.8,9.51,9.51,0,0,0,3.82-1.11,8.87,8.87,0,0,0,1.85-1.83,9.24,9.24,0,0,1,3.73-2.52,13.2,13.2,0,0,1,4.77-.53c0.56-.36,1.14-0.69,1.73-1a8.71,8.71,0,0,0-1.82-1.45,12.62,12.62,0,0,1,3.72-.44,17.54,17.54,0,0,0,.13-2h0Z"/>
      <path class="cls-4" d="M66.72,7.12a19.76,19.76,0,0,0,3,2c1.9,1,4.06,1.32,6,2.2a1.76,1.76,0,0,1,1,1.8,25.93,25.93,0,0,1,2.85,1.34c0.89,0.62.82,1.95,1.73,2.53s2.07,0.9,3.05,1.45a15.33,15.33,0,0,1,2.88,2.09,2.89,2.89,0,0,0-1.51,1.63,4.69,4.69,0,0,1-2.62,3.29,3.38,3.38,0,0,0,.2-2.15,8.36,8.36,0,0,0-4.16.89,3.5,3.5,0,0,0,.46,2.3,1.07,1.07,0,0,0,1.3.26,4,4,0,0,0,1.53-1.52A2.69,2.69,0,0,0,82.75,27a4,4,0,0,1,0,1.44,4.62,4.62,0,0,1,4,.33c1.18,0.22,1.81-1.5,3-1.12,0.32,0.19.45,0.59,0.76,0.79,1.06,0.24,2.21-.2,3.2.37,0.53,0.28,1.29.71,1.12,1.41a6.6,6.6,0,0,1-.67.64,2.79,2.79,0,0,1,.25,1.33,1.85,1.85,0,0,1-1,.58,3.31,3.31,0,0,1-1,1.61A4.72,4.72,0,0,1,90.06,34c-1.22.31-2.73,0.63-3.76-.32-0.58-.66-1.6-0.22-2.08.35-1.1,1.32-1.9,2.88-3.13,4.1a45.74,45.74,0,0,1-6,5.1A12.61,12.61,0,0,1,70,45.52,6,6,0,0,0,67,43a22.79,22.79,0,0,0-10.65-.55c3,0.06,6.14,0,8.87,1.4-1.31.75-2.64,1.48-4,2.09a15.85,15.85,0,0,1-5.07.87,5.13,5.13,0,0,1,.24,2.68,5.7,5.7,0,0,1-1.25,2.85c-1.65,1.2-3.83,1.31-5.49,2.5A7.65,7.65,0,0,0,47,57.89c1.14,0.24,2.28.5,3.44,0.69s2.25-1,3.52-.72a2.51,2.51,0,0,1,1.76,2,1.47,1.47,0,0,1-1.22.9c-0.07.39-.16,0.77-0.26,1.15a5,5,0,0,1-2.7,0,2.43,2.43,0,0,1-1.49.62c-1,0-1.69-1-2.7-1.07-1.89-.06-3.76.37-5.65,0.25a1,1,0,0,1-1-.83c0-.9.69-1.53,1.18-2.2s1.21-1.35.91-2.22a3.78,3.78,0,0,0-2-1.57,19,19,0,0,1,4.94-4.11A38.28,38.28,0,0,1,53.18,47,24.18,24.18,0,0,0,42,52.23a15.91,15.91,0,0,1,3.3-3.82,13.3,13.3,0,0,0-5.82,6.09c-0.74,1.57-1.53,3.12-2.41,4.61a5,5,0,0,1-2.36,1.75A31.19,31.19,0,0,0,30,63.53,2.13,2.13,0,0,0,28.82,65a18.65,18.65,0,0,0,.2,3.65,5.26,5.26,0,0,1,1.9.47,1.56,1.56,0,0,1,.24,1.6,1.67,1.67,0,0,1-.92.35,1.68,1.68,0,0,1-.47,1.22,3.19,3.19,0,0,1-1.48-.12,2.08,2.08,0,0,1-1.26.47,1.51,1.51,0,0,1-1.58-1.58c0-2.14.25-4.28,0.16-6.42,0-.84-0.84-1.45-0.75-2.3a11,11,0,0,1,1.77-1.78,5.8,5.8,0,0,0,1.45-2.67c0.88-3,.24-6.25,1.1-9.27a20.09,20.09,0,0,1-4.8-1.56,8.24,8.24,0,0,1-3.57-3.45,20.34,20.34,0,0,1-1.26-4.26,19.66,19.66,0,0,0-1.33-3.45,8.18,8.18,0,0,0-3.47-3.08,2.77,2.77,0,0,1-2.28.24,5.74,5.74,0,0,1-2.65-2.2,3.15,3.15,0,0,0-2-1.22,6.51,6.51,0,0,1,3.47-.39,8,8,0,0,1,1.8.75c-0.61-1.07-1.89-1.2-3-1.4a4.14,4.14,0,0,1,3.89.25,4.69,4.69,0,0,1,1.26,2.6,21.44,21.44,0,0,1,3.7,2.34,10,10,0,0,1,2.68,5.12,9.46,9.46,0,0,0,3.26,5.32,10.18,10.18,0,0,0,5.48,1.84,24.62,24.62,0,0,1,3.17-3.18c1.36-1.25,3.4-1.12,4.89-2.11C39.5,39.86,40.67,39,41.66,38c0.92-1.37,1.64-2.87,2.62-4.2,0.7-.93,1.47-1.81,2.26-2.68a3.53,3.53,0,0,1-2-.74c0.76-.49,1.82-0.94,2-1.93s-1-.55-1.55-0.39c0.58-2.45,2.49-4.25,4.38-5.78,0.72-.54,1.62-1.2,1.57-2.21-0.45-.91-1.59-0.33-2.12.2a7.19,7.19,0,0,1,1.83-2.88,2.91,2.91,0,0,1-1.16-.93,5.6,5.6,0,0,0,2.47-.57A31.25,31.25,0,0,1,56,13.78a5.26,5.26,0,0,0-1.88.14,8.42,8.42,0,0,1,4.62-2.63c2.16-.43,4.36.25,6.5-0.17a3.76,3.76,0,0,0-1.86-.71,10.61,10.61,0,0,1,2.47-.95A10.4,10.4,0,0,0,64,8.15a15.37,15.37,0,0,1,3.21.44,4.28,4.28,0,0,1-.45-1.47h0Z"/>
      <path class="cls-3" d="M76.16,17.19c0.79-.11,1.63-0.51,2.4-0.13,0.41,0.16.81,0.31,1.23,0.44a6.81,6.81,0,0,0-.65,1.17,5.37,5.37,0,0,0-3-1.48h0Z"/>
      <path class="cls-3" d="M56.83,23.15a8.84,8.84,0,0,1,12.88,2,12.79,12.79,0,0,0-7.61-2.86,17.74,17.74,0,0,0-5.26.88h0Z"/>
      <path class="cls-3" d="M54.67,28c2.15-.93,4.06-2.47,6.42-2.82a12,12,0,0,1,5.21.43A12.46,12.46,0,0,0,60,26.73c-1.82.86-3.39,2.22-5.32,2.84a9.23,9.23,0,0,1-6.27,0A15.93,15.93,0,0,0,54.67,28h0Z"/>
      <path class="cls-3" d="M61.23,29.42a12,12,0,0,1,8.46-.77,4.61,4.61,0,0,1,2.7,1.79,3.48,3.48,0,0,1,.4,1.63,12.69,12.69,0,0,0,2.4-.86,4.53,4.53,0,0,1,.69-2,1.67,1.67,0,0,1,1.6-.73,10.44,10.44,0,0,1,3.15,1.09,29.67,29.67,0,0,1-9.19,4.3A3.12,3.12,0,0,0,71.27,31c-0.91-1.36-2.62-1.78-4.14-2a15.74,15.74,0,0,0-5.9.46h0Z"/>
      <path class="cls-4" d="M74.16,45.23a33.51,33.51,0,0,0,7.55-5.93,16.17,16.17,0,0,0,2.84,2.14,17.47,17.47,0,0,0,4,1.45c1,0.21,1,1.55,2,1.76s1.81-.43,2.66,0a4.12,4.12,0,0,1,1.46,1.46,1.06,1.06,0,0,1,.15,1,1.69,1.69,0,0,1-1,.61,2.44,2.44,0,0,1-.33,1.57,2.14,2.14,0,0,1-1.37,0,1.46,1.46,0,0,1-.82,1.08,2.07,2.07,0,0,1-1.59-.59,5.13,5.13,0,0,1-3.1-.45,3,3,0,0,1-1.1-1.41,13.05,13.05,0,0,0-4.28-1.08,20.66,20.66,0,0,1-7-1.62h0Z"/>
    </g>
  </g>
</svg>
