<svg id="Layer_1" data-name="Layer 1" xmlns="http://www.w3.org/2000/svg" viewBox="0 0 100 100">
  <defs>
    <style>
      .cls-1 {
        fill: #203e77;
      }

      .cls-2 {
        fill: #fff;
      }
    </style>
  </defs>
  <g>
    <path class="cls-1" d="M78.89,18c-1.6-2.24-1-3.42.15-3.58a14.12,14.12,0,0,1,2.17,0c0.85,0,2.47.1,2.33-1.55a45.92,45.92,0,0,0-1-5.82C82.07,4.85,81.91,5,79,5a45.86,45.86,0,0,0-5,.23c-4.5.31-8.07,0.93-8.23,7s1.24,8.08,3.73,12S79.35,40,79.35,50.9c0,20-17.55,28.57-29.35,28.57S20.65,70.88,20.65,50.9c0-10.87,7.45-22.83,9.94-26.71s3.88-5.9,3.73-12-3.73-6.68-8.23-7A45.9,45.9,0,0,0,21,5c-3,0-3.11-.16-3.57,2a46,46,0,0,0-1,5.82c-0.14,1.66,1.48,1.55,2.33,1.55a14.19,14.19,0,0,1,2.17,0c1.11,0.16,1.75,1.34.15,3.58C14.7,27,7.92,38.08,7.92,51.36,7.92,73.26,26.71,95,50,95S92.08,73.26,92.08,51.36C92.08,38.08,85.3,27,78.89,18ZM72.6,19.55a1.26,1.26,0,1,1,1.26-1.26A1.26,1.26,0,0,1,72.6,19.55ZM27.41,17a1.26,1.26,0,1,1-1.26,1.26A1.26,1.26,0,0,1,27.41,17ZM14.83,49.21a1.26,1.26,0,1,1,1.26-1.26A1.26,1.26,0,0,1,14.83,49.21Zm6.21,25a1.26,1.26,0,1,1,1.26-1.26A1.27,1.27,0,0,1,21,74.21ZM50,88.5a1.26,1.26,0,1,1,1.26-1.26A1.26,1.26,0,0,1,50,88.5ZM79,74.21a1.26,1.26,0,1,1,1.26-1.26A1.26,1.26,0,0,1,79,74.21Zm6.21-25a1.26,1.26,0,1,1,1.26-1.26A1.26,1.26,0,0,1,85.18,49.21Z"/>
    <g>
      <circle class="cls-2" cx="72.6" cy="18.29" r="1.26"/>
      <circle class="cls-2" cx="27.41" cy="18.29" r="1.26"/>
      <path class="cls-2" d="M13.56,47.95a1.26,1.26,0,1,1,1.26,1.26A1.26,1.26,0,0,1,13.56,47.95Z"/>
      <circle class="cls-2" cx="21.04" cy="72.95" r="1.26"/>
      <circle class="cls-2" cx="50" cy="87.24" r="1.26"/>
      <circle class="cls-2" cx="78.96" cy="72.95" r="1.26"/>
      <path class="cls-2" d="M83.91,47.95a1.26,1.26,0,1,1,1.27,1.26A1.26,1.26,0,0,1,83.91,47.95Z"/>
    </g>
  </g>
</svg>
