<svg id="Layer_1" data-name="Layer 1" xmlns="http://www.w3.org/2000/svg" viewBox="0 0 100 100">
  <defs>
    <style>
      .cls-1 {
        fill: #fff;
      }

      .cls-2 {
        fill: #0d254c;
      }

      .cls-3 {
        fill: #d6d6d6;
      }

      .cls-4 {
        fill: #c0001d;
      }
    </style>
  </defs>
  <g>
    <path class="cls-1" d="M96.84,30.4c-9.21,2.67-16.8-3.69-28.23-3.5h0s-15.71-.46-30.81,5.21C22.56,37.54,12.14,41.66,2.29,42.84a2,2,0,0,0,.24,4.06,85.68,85.68,0,0,0,21.28-1.5,2.07,2.07,0,0,0,1.85,2.91,54.11,54.11,0,0,0,18.6-1,2.07,2.07,0,0,0,1,3.56c21.32,3.77,29.44,14.57,37.24,22.24a6.82,6.82,0,0,0,5.36-8.69,6.59,6.59,0,0,0,.57-2.23l2.69-1.61S90,54.89,89.81,54.23c1.48-.77,4.16-2.11,4.16-2.11S98.83,35,99.42,32.81c0.52-2-1.52-2.72-2.58-2.41h0ZM2.56,44.87c17-2.32,31.09-10.41,45.56-13.68,0.45,1.77,1.28,5.29,1.28,5.29-20.7,4.36-22.89,9.15-46.83,8.38h0Zm23.1,1.4C37,44.62,43.82,40.41,50.23,39.06c0.38,1.58.87,3.2,1.19,4.48-16.83,4.58-25.76,2.73-25.76,2.73h0Zm66.59,4.44c-1.61.77-3.2,1.59-4.77,2.46,0.55,2.09.85,4.34,1.34,6.41L86.35,61v1.51l-0.77,2a3.86,3.86,0,0,1-.06,4.16A6.9,6.9,0,0,1,83,71S69.16,52.15,45.58,48.85c6.64-1.05,9.15-4.08,20.62-4.05-4.07-2.24-9.28-2.42-14-1.35-0.26-1-1.15-4.63-1.15-4.63a46.22,46.22,0,0,1,9.49-1.47,22.78,22.78,0,0,0-10.11-1C50,34.57,49.6,32.85,49.12,31a86.37,86.37,0,0,1,19.44-2c7.64,0.05,17.87,3.51,17.87,3.51a20.37,20.37,0,0,0,11-.1c-0.51,2.21-5.18,18.36-5.18,18.36h0Zm0,0"/>
    <path class="cls-1" d="M87.65,39.5c-0.23-.93-0.68-3.58-0.81-3.84l-2.33,3s-3.14-.82-4.88-1.17c1.1,1.15,2.17,2.2,3.15,3.34-0.92,1.4-2.11,2.73-3.07,4.08,1.79-.6,3.6-1.14,5.39-1.76,1.29,1.31,2.68,2.74,4,4-0.22-1.71-.73-3.42-0.89-5l4.06-1.38c-1.46-.47-3.06-0.79-4.56-1.24h0Zm0,0"/>
    <path class="cls-2" d="M86.42,32.45S76.19,29,68.55,28.94a86.37,86.37,0,0,0-19.44,2c0.48,1.86.84,3.59,1.27,5.37a22.75,22.75,0,0,1,10.11,1A46.35,46.35,0,0,0,51,38.82s0.89,3.62,1.15,4.63c4.76-1.07,10-.89,14,1.35-11.47,0-14,3-20.62,4.05C69.16,52.15,83,71,83,71a6.86,6.86,0,0,0,2.52-2.26,3.85,3.85,0,0,0,.06-4.16l0.77-2V61l2.46-1.44c-0.5-2.08-.79-4.33-1.34-6.41,1.57-.87,3.16-1.69,4.78-2.46,0,0,4.67-16.15,5.18-18.36a20.37,20.37,0,0,1-11,.1h0ZM83.61,58.73l-0.6.75c0.66,0.25,1.41.69,2.06,0.95l0,0.82-1.8,0c-0.82.61-1.46,1.19-2.28,1.8,0,0,1.76-.3,2.67-0.55h1.69c-0.18.5-.38,0.93-0.6,1.37L83,64s1,1.21,1.72,2c0.79,1.33-1.37,3-1.37,3-3.87-4.32-8.08-8.86-13.21-11.78A2.28,2.28,0,0,1,72.39,56a8.6,8.6,0,0,1,4,2.14c0.59,0.63,1.68,2.25,2,2.49a37.39,37.39,0,0,0-.94-3.92l-5.79-4c0.61-1.62,2.7-2.75,4.53-2.8s3.5,0,4.81,1c-3,0-4.11,1.48-4.55,2.87,0,0.11,6.17,0,6.17,0a5.57,5.57,0,0,1,.78-1.86A2.59,2.59,0,0,1,85.51,51c0.14,0.51,1.5,7.66,1.5,7.66-1.18,0-2.21,0-3.4.08h0ZM89,47.15c-1.28-1.26-2.66-2.68-4-4-1.79.62-3.6,1.16-5.39,1.76,1-1.35,2.15-2.68,3.07-4.08-1-1.15-2.05-2.19-3.15-3.35,1.75,0.35,4.89,1.17,4.89,1.17l2.33-3c0.13,0.25.58,2.9,0.81,3.84,1.5,0.45,3.1.77,4.56,1.24l-4.06,1.38c0.16,1.61.67,3.32,0.89,5h0Zm0,0"/>
    <path class="cls-3" d="M83.4,51.94a5.55,5.55,0,0,0-.78,1.86s-6.19.13-6.17,0C76.9,52.42,78,50.9,81,50.94c-1.31-1-3-1.05-4.81-1s-3.92,1.18-4.53,2.8l5.79,4a37.5,37.5,0,0,1,.94,3.92c-0.32-.23-1.41-1.85-2-2.48a8.59,8.59,0,0,0-4-2.14,2.28,2.28,0,0,0-2.21,1.14c5.14,2.92,9.34,7.46,13.21,11.78,0,0,2.16-1.64,1.38-3-0.7-.78-1.72-2-1.72-2l1.67-.07a14.93,14.93,0,0,0,.6-1.37H83.62c-0.91.25-2.67,0.55-2.67,0.55,0.82-.61,1.46-1.19,2.28-1.8l1.8,0,0-.82c-0.65-.26-1.39-0.7-2.06-0.95l0.6-.75c1.19-.08,2.22-0.05,3.4-0.07,0,0-1.36-7.15-1.5-7.66a2.58,2.58,0,0,0-2.11.95h0Zm0,0"/>
    <path class="cls-4" d="M50.23,39.06C43.82,40.41,37,44.62,25.66,46.27c0,0,8.93,1.85,25.76-2.73-0.32-1.28-.81-2.9-1.19-4.48h0Zm0,0"/>
    <path class="cls-4" d="M48.12,31.19C33.65,34.46,19.59,42.55,2.56,44.87c23.95,0.76,26.14-4,46.84-8.38,0,0-.82-3.53-1.28-5.29h0Zm0,0"/>
  </g>
</svg>
