<svg id="Layer_1" data-name="Layer 1" xmlns="http://www.w3.org/2000/svg" viewBox="0 0 100 100">
  <defs>
    <style>
      .cls-1 {
        fill: #1a191a;
      }

      .cls-2 {
        fill: #84161c;
      }

      .cls-3 {
        fill: none;
        stroke: #000;
        stroke-width: 0.38px;
      }

      .cls-4 {
        fill: #fff;
      }

      .cls-5 {
        fill: #fdbd12;
      }
    </style>
  </defs>
  <g>
    <path class="cls-1" d="M0.5,20.67A19.2,19.2,0,0,0,7.84,30l-3.4-.37A29,29,0,0,0,14.5,37.84L11,37.52A31.56,31.56,0,0,0,25.28,48.76s1,6.15,9.27,11.7c0,0,7.89,4.54,8.81,8.72,0,0,15.2-1,31.85,10.14,0,0,3.93-16.07,24.29-18,0,0,0-8.72-11.52-14.5,0,0-4.73-18.1-33.37-20.07l-24.14.08S12,25.61.5,20.67Z"/>
    <path class="cls-2" d="M7.45,25.38s4.94,6.45,18.91,9.72L13.76,34s4.71,4.52,18.68,7.93L19.79,40.8A37.39,37.39,0,0,0,37.9,49.37l-6.76,1.06s0.61,3.42,12.22,10.93c0,0,3.83,3.23,3,4,0,0,6.3.08,17.31,5.24,0,0,10.55-5.39-4.18-21.11a83.53,83.53,0,0,0-14.35-12.3s11.46-2.73,25.74,5.47c0,0,7.29,5.47,14,2.73,0,0-2.73-13.82-28.47-16H28.49S16.64,28.5,7.45,25.38Z"/>
    <path class="cls-3" d="M7.45,25.38s4.94,6.45,18.91,9.72L13.76,34s4.71,4.52,18.68,7.93L19.79,40.8A37.39,37.39,0,0,0,37.9,49.37l-6.76,1.06s0.61,3.42,12.22,10.93c0,0,3.83,3.23,3,4,0,0,6.3.08,17.31,5.24,0,0,10.55-5.39-4.18-21.11a83.53,83.53,0,0,0-14.35-12.3s11.46-2.73,25.74,5.47c0,0,7.29,5.47,14,2.73,0,0-2.73-13.82-28.47-16H28.49S16.64,28.5,7.45,25.38Z"/>
    <path class="cls-4" d="M61.82,41.93S63.34,53.85,75,53.25A7,7,0,0,0,80,48H78.37S77,52.34,72.9,51.5c0,0-2.47,0-4.86-3.64l3.87-.53S65.08,45.2,61.82,41.93Z"/>
    <path class="cls-3" d="M61.82,41.93S63.34,53.85,75,53.25A7,7,0,0,0,80,48H78.37S77,52.34,72.9,51.5c0,0-2.47,0-4.86-3.64l3.87-.53S65.08,45.2,61.82,41.93Z"/>
    <path class="cls-5" d="M77.47,58.61s11.87-2.17,19.89,1.75c0,0-10.16.42-16.94,6.16A10,10,0,0,0,77.47,58.61Z"/>
    <path class="cls-3" d="M77.47,58.61s11.87-2.17,19.89,1.75c0,0-10.16.42-16.94,6.16A10,10,0,0,0,77.47,58.61Z"/>
    <path class="cls-5" d="M77.64,55.74s13-.57,19.79,3.72C95.83,53.12,84.91,48.2,85.8,48.63A14.2,14.2,0,0,1,77.64,55.74Z"/>
    <path class="cls-3" d="M77.64,55.74s13-.57,19.79,3.72C95.83,53.12,84.91,48.2,85.8,48.63A14.2,14.2,0,0,1,77.64,55.74Z"/>
  </g>
</svg>
