<svg id="Layer_1" data-name="Layer 1" xmlns="http://www.w3.org/2000/svg" viewBox="0 0 100 100">
  <defs>
    <style>
      .cls-1 {
        fill: #fff;
      }

      .cls-2 {
        fill: #bf2026;
      }

      .cls-3 {
        fill: #194787;
      }
    </style>
  </defs>
  <g>
    <path class="cls-1" d="M98.61,26.42C97.17,23.76,91.8,22.79,88,23.07a24.78,24.78,0,0,0-10-8.38,9.44,9.44,0,0,0-.32.9,26.85,26.85,0,0,0-6.32-1.07l0,0.8c-2.49.32-6,.77-7.17,1,0.18,0.6.23,0.88,0.37,1.26A59.91,59.91,0,0,0,41.32,30.4c0.3,0.09.51,0.23,0.62,0.24-7.58,2.86-13.12,7.3-18,11.83-5.71.88-16,2.21-16,2.21L0.5,59.59l19.91-4.2c-1.66,4.7-6.2,8.9-10.38,11.73a11.19,11.19,0,0,1-4.71,7.38c1.24,1.38-.29,3.13-0.5,4.61C6.51,81.3,10,85.48,10,85.48l2.12-8.86,4.27-4.35a3.49,3.49,0,0,0-.09,1.88c-0.38.79-1.44,1.77-1.53,3.14,1.62,2.1,4.72,5.91,4.72,5.91s2.24-6,3.26-9L40,58.26a56.51,56.51,0,0,1,6.8-.09l1-1,4.86-.37c0.4,0.65.63,1.07,0.89,1.57-0.88.5-1.64,0.9-2.48,1.32l-2.19,7.84s4.2-2.27,6.37-3.4A13.17,13.17,0,0,0,58.75,64c-0.46,2.21-1.27,6.81-1.27,6.81s3.73-2,5.49-2.93a27.6,27.6,0,0,0,10.89-2.56c3.66-1.46,2.58-10.54,2.58-10.54a6,6,0,0,1,2.36-.1c2.07,0.53.71,8.33,0.71,8.33l4.8-4.57,0.52,0.67s2.89-3.6,4.18-5.51c3.53,0,4.35-2.2,4.79-3.72,1.77-6.08,3.82-5.66,4.58-9C98.86,39.61,100.5,29.62,98.61,26.42ZM3,57.69L8.79,45.91,87.66,34.38a3.71,3.71,0,0,0-1.49,5.5C65.42,44.42,3,57.69,3,57.69ZM22.14,73.09c-1.11,2.52-3,7.81-3,7.81S17,78.38,16.08,77.15c0-.93,1-1.88,1.48-2.8a1.79,1.79,0,0,1-.06-0.89,8.2,8.2,0,0,0,3.23-5.17c6-9.37,17.21-9.81,17.21-9.81Zm51-8.77a27.43,27.43,0,0,1-10.56,2.44l-3.39,1.8s0.66-3.16.94-4.63c3.74-.63,9-1.61,11-4.59a19.05,19.05,0,0,0,1.52-3.86c0.86-.12,1.6-0.25,2.49-0.37C75.09,55.1,76.09,62.83,73.11,64.32Zm25-30c-0.21,3.08-.64,6.88-2.25,8.71a20.94,20.94,0,0,0-3.64,7.07c-0.47,1.6-1.09,2.33-4,2.46a41.11,41.11,0,0,1-3.41,4.64l-0.37-.52c-1.26,1.2-1.91,1.89-3.26,3.11,0.14-1.57.22-3.71-.3-4.84a3.14,3.14,0,0,0-3.36-1.38l-6,.92a14.67,14.67,0,0,1-1.7,4.33C68.42,62,57.16,63.16,55.14,62.85c-1.42.71-2.8,1.6-4.27,2.28,0.41-1.51,1.33-4.7,1.33-4.7s2-1,2.92-1.53C55,58.58,54.92,58.45,54.71,58a11.6,11.6,0,0,0,5.12-2.61L47,56.21a3.26,3.26,0,0,1-.8.8c-9.32-.4-18.14.86-24.66,7.44a34.37,34.37,0,0,0-5.72,6.75c-1.67,1.73-3.09,3.2-4.83,4.94L9.17,82.82,6.28,79c-0.39-.54,1.36-2.93.46-4.15A12.17,12.17,0,0,0,11,68c4.22-2.85,9.46-7.87,11-12.93,0,0,64.67-14,65.59-14.22a2.83,2.83,0,0,0,1.2,3.57,2.61,2.61,0,0,0,2-.46,3,3,0,0,1-1-1.26,1.87,1.87,0,0,1,.58-1.91,5.6,5.6,0,0,1,1-5.47c0.77-1,2-2.18,2.86-3.1l-68,9.9S35,33.77,44.91,30.8c-0.3-.13-1-0.43-1.56-0.62,7-5.74,14.92-10,22.67-11.82-0.11-.39-0.22-0.68-0.36-1.12l6.61-1c0-.2,0-0.23,0-0.52a26.76,26.76,0,0,1,6,1.25l0.24-.54c4.76,2.12,8.66,7.82,8.66,7.82a16,16,0,0,1,8.94,1.36C98.44,26.87,98.31,31.24,98.09,34.28Z"/>
    <path class="cls-2" d="M87.66,34.38L8.79,45.91,3,57.69S65.42,44.42,86.16,39.88A3.71,3.71,0,0,1,87.66,34.38Z"/>
    <g>
      <path class="cls-3" d="M96.1,25.64a16,16,0,0,0-8.94-1.36s-3.89-5.7-8.66-7.82L78.27,17a26.77,26.77,0,0,0-6-1.25c0,0.29,0,.32,0,0.52l-6.61,1c0.13,0.44.24,0.73,0.36,1.12-7.75,1.84-15.64,6.08-22.67,11.82,0.53,0.19,1.26.5,1.56,0.62C35,33.77,26.13,42.1,26.13,42.1l68-9.9c-0.86.92-2.09,2.08-2.86,3.1a5.6,5.6,0,0,0-1,5.47,1.87,1.87,0,0,0-.58,1.91,2.94,2.94,0,0,0,1,1.26,2.61,2.61,0,0,1-2,.46,2.83,2.83,0,0,1-1.2-3.57C86.69,41,22,55.05,22,55.05,20.47,60.11,15.24,65.13,11,68a12.17,12.17,0,0,1-4.28,6.9c0.9,1.23-.85,3.62-0.46,4.15l2.89,3.8L11,76.14c1.74-1.74,3.16-3.21,4.83-4.94a34.36,34.36,0,0,1,5.72-6.75c6.52-6.58,15.35-7.84,24.66-7.44a3.26,3.26,0,0,0,.8-0.8l12.8-.86A11.59,11.59,0,0,1,54.71,58c0.21,0.49.27,0.62,0.41,0.93-0.95.53-2.92,1.53-2.92,1.53s-0.93,3.19-1.34,4.7c1.48-.68,2.86-1.57,4.27-2.28,2,0.3,13.28-.83,14.66-4.06a14.7,14.7,0,0,0,1.7-4.33l6-.92a3.14,3.14,0,0,1,3.36,1.38c0.52,1.13.44,3.27,0.3,4.84,1.35-1.22,2-1.92,3.26-3.11l0.37,0.52a41.05,41.05,0,0,0,3.41-4.64c2.88-.13,3.5-0.86,4-2.46A20.94,20.94,0,0,1,95.84,43c1.61-1.83,2-5.63,2.25-8.71S98.44,26.87,96.1,25.64Z"/>
      <path class="cls-3" d="M72.6,55.47a19.1,19.1,0,0,1-1.52,3.86c-2,3-7.24,4-11,4.59-0.28,1.48-.94,4.63-0.94,4.63l3.39-1.8a27.44,27.44,0,0,0,10.56-2.44c3-1.49,2-9.22,2-9.22C74.2,55.22,73.46,55.35,72.6,55.47Z"/>
      <path class="cls-3" d="M20.73,68.29a8.2,8.2,0,0,1-3.23,5.17,1.79,1.79,0,0,0,.06.89c-0.49.92-1.49,1.87-1.48,2.8,0.89,1.23,3.07,3.75,3.07,3.75s1.88-5.29,3-7.81L37.93,58.48S26.69,58.93,20.73,68.29Z"/>
    </g>
  </g>
</svg>
