<svg id="Layer_1" data-name="Layer 1" xmlns="http://www.w3.org/2000/svg" viewBox="0 0 100 100">
  <defs>
    <style>
      .cls-1 {
        fill: #010101;
      }

      .cls-2 {
        fill: #fff;
      }

      .cls-3 {
        fill: #d2d3d4;
      }
    </style>
  </defs>
  <g>
    <path class="cls-1" d="M51.63,63.49s0,0.06,0,.08a0.06,0.06,0,0,0,.08,0s0,0,0,0a0.11,0.11,0,0,0-.08,0"/>
    <path class="cls-2" d="M49.91,5C38.5,15.53,23.49,15.36,8,13.56c-3,37.81,10.31,75,42.45,81.44C82.82,88.22,95.27,50.88,91.8,13.1,77.46,14.69,62.58,15.41,49.91,5"/>
    <path class="cls-1" d="M49.89,8.69c-9.52,7.89-24.62,10-39.08,8C9,51.14,20.52,84.71,50.37,92.2c29.74-7.88,41-41.5,38.7-76-14.72,1.79-29.56.2-39.18-7.56"/>
    <path class="cls-2" d="M61.9,68a12,12,0,0,1-1.19,2.59,6.5,6.5,0,0,1,.61,1.6c2.33,1.77,4.9,3.41,11.38,1.77-1.16-.34-8.45-3.89-10.34-5.64Z"/>
    <path class="cls-2" d="M38,69.18a11.17,11.17,0,0,0,1.49,1.93s0.47,0.41.31,1.88c-2.6,2-9,2.83-12.23,1.58,0,0,7.79-3.15,9.93-5.11Z"/>
    <path class="cls-2" d="M58.2,68.38c-0.16.17-.28,0.34-0.44,0.49a2.13,2.13,0,0,1-.19.21l-0.53.4a0.45,0.45,0,0,0-.17.63,0.38,0.38,0,0,0,.61,0,1.69,1.69,0,0,1,.43-0.29,2.08,2.08,0,0,0,.66-1.17,0.41,0.41,0,0,0-.22-0.35c0,0.13-.14.09-0.16,0.19a1,1,0,0,0,0-.1"/>
    <path class="cls-2" d="M41.63,69a3.52,3.52,0,0,0,.76.94c0.21,0.32.31,0.67,0.51,1-0.34.2-.6,0.75-0.93,0.59a1.45,1.45,0,0,1-.32-0.69c-0.26-.64.09-1.17,0-1.82,0,0,0,0,0,0"/>
    <path class="cls-3" d="M47.52,32.28c-3.91,0-8,1.05-9.13,4.81,0,0-2,7.55-1.85,8.74-1.09.35-3.29,1.43-2.58,7.43,0,0,2.48,10.79,3.56,12.89l0.68,0s0.62-.66.52,1.5a1.85,1.85,0,0,0,.8,2s0.42-1.81.75,0.91c0.08,2.65.94,5.43,4.84,8.15,0,0,1.82-1.2,2-1.29A12.45,12.45,0,0,1,43,74.92s0.41,1.88-1.16-.25c0,0-.75-0.72-1.22-5.64A1.72,1.72,0,0,0,40,67.54c-2.18-4.33-4-14.37,0-18.12,4.22-.31,14.31-0.63,18.11,0,1.55,0.37,2.32.85,2.69,3.52,0.78,3.37.35,10.11-1.36,15.52a3.9,3.9,0,0,1-.86,1.73,8.5,8.5,0,0,0-3.19,3.49,4.29,4.29,0,0,1-2.24,1.86c-1.21.73-5.67,1.91-3.89,3.85a9.84,9.84,0,0,1-1.4.49s0.25,1.09.74,0.91a2.75,2.75,0,0,0,1.21-.92c2.63,0.31,6-.33,8-2.2,0.81-.55,2.31-1.28,2.48-2.7,0,0,.85-1.62-0.6-4.33A8.36,8.36,0,0,0,61,66.49a23.67,23.67,0,0,0,5-12.51s-0.68-4.21-.46-0.19c0,0-.05.7-0.43,2.75,0,0-.82,3.13-0.38.13a63.52,63.52,0,0,0-.48-9s-0.15-1.57.73,0.72a5,5,0,0,0-.14-0.53s0.44,2.9.53,0.85c-0.54-2.41-.68-3-1.4-3.25a34.41,34.41,0,0,0-1.82-7l-0.32.39c1.24,3.34,2.12,14.47,1.86,17.67,0,0-.71,6.3-1.38,5.88,0,0,1-10.64.46-14.58-0.27-5-1-6.22-1.31-8.19,0,0-1.62-4.12,0-1.89l0.2-.13c-1.44-3.59-3.57-5.33-10-5.39l1,15.63L47,47.95Z"/>
    <path class="cls-2" d="M40.43,52.77s1.28-.23,1.26-0.23a32.71,32.71,0,0,1,5.47.22,2.36,2.36,0,0,0,1.34-.33,13,13,0,0,0,2.61-1.36c0.21-.12,1.69-1,1.42-1.06-3.46-.35-10.52-0.24-11.92.19a1.86,1.86,0,0,0-.75.29,4.59,4.59,0,0,0-1,1.82c0.29-.67-0.15.83-0.19,1-0.12.39,0.55,0.36,0.68,0.18a1,1,0,0,1,1-.68"/>
    <path class="cls-2" d="M59.84,63.3a16.59,16.59,0,0,1-.49,2.24,3.29,3.29,0,0,1-1.15,1.81c-0.18-1.43-.59-2.13-0.52-2.66-0.55.22-.47,1-0.52,1.79a3.53,3.53,0,0,0,.17,1.72,2.83,2.83,0,0,1-.57.76A11.34,11.34,0,0,1,55,71.18a1.65,1.65,0,0,1-.23.35,1.82,1.82,0,0,0-.71.68,4.06,4.06,0,0,1-.92.53,4.68,4.68,0,0,1-.77.25,3.67,3.67,0,0,1-1,0,12.25,12.25,0,0,1-1.47-.64c-1.33-.31-1.63.9-3.71,0.47-0.86-.18-1-0.75-1.57-1.35l-0.7-.81a7.2,7.2,0,0,1-1.76-2.48,4.4,4.4,0,0,1,0-2.55c0.06-.42,0-1.47-0.42-1.54-0.36.38-.09,0.63-0.2,1.17s0.38,0.54,0,1.72c-0.1.33-.28,0.25-0.39,0-0.4-.83-0.21-2.63-1.09-3.32A0.63,0.63,0,0,1,40,62.94a2.34,2.34,0,0,1,.88,0,0.83,0.83,0,0,0,0-.49,1.38,1.38,0,0,0-.92-0.23,2.6,2.6,0,0,0-.17-1.63,6.76,6.76,0,0,1-1-1,3.81,3.81,0,0,1-.32-1.72,3.57,3.57,0,0,1,0-1.23,2.14,2.14,0,0,1-.06-0.83c0.05-.59.16-0.56,0.25-1.12a0.45,0.45,0,0,1,.87.23,11.83,11.83,0,0,0,.16,2.89,0.47,0.47,0,0,0,.35.28c2.28,0.64,4,.37,6.25.3a1.52,1.52,0,0,0,1.09-1.37,8.94,8.94,0,0,0,.2-2.39c0.11-.29.38-0.21,0.59,0,0.39,0.45.09,0.61,0.19,1.19A1.89,1.89,0,0,1,47.81,57c0.07,0-.18,1.51-0.11,1.52a3.87,3.87,0,0,1-.11,1.31c-0.08.73,0.42,0.46,0.35,1,0,0.25-.14.59-0.13,0.63,0.07,0.49-1,.4-0.85.41a0.37,0.37,0,0,1-.43-0.31c0-.28-0.07-0.49-0.06-0.74-0.54,0-.31.41-0.34,1a0.52,0.52,0,0,0,.56.51,0.75,0.75,0,0,0,.69,0,1.18,1.18,0,0,0,.5-0.33c0.21,0.8.45,0.9,1,.88A0.93,0.93,0,0,0,50,62.34c0.05-.15.45-0.13,0.5-0.27,1,0.19.4,0.61,1.63,0.21a0.72,0.72,0,0,0,.35-1.09,0.28,0.28,0,0,0-.24,0c-0.13,1.07-.54.76-0.95,0.73-1.31-.06-0.61-0.61-1.72,0a0.77,0.77,0,0,1-1,.2c-0.71-.61,0-1.07.12-1.76a30.15,30.15,0,0,0,0-3.13c-0.08-1.33.27-.53,0.49-1.11A5.5,5.5,0,0,1,49,54.41c-0.12-.6-0.82-0.36-1-0.59a0.73,0.73,0,0,1,0-.49,11.52,11.52,0,0,0,2.51-1,38,38,0,0,0,3.39-1.86A4.42,4.42,0,0,1,54.39,50c1.52,0,3-.36,4.34.38a2.6,2.6,0,0,1,1.43,1.92,3.46,3.46,0,0,0,.11,1c0,0.59,0,1.66,0,2a15.58,15.58,0,0,1-.07,3.92,1.69,1.69,0,0,1-.26.48,4.52,4.52,0,0,1-.76.87c-0.11.09-.06,0.37,0,0.32a6,6,0,0,1,.89-0.35,14.37,14.37,0,0,1-.27,2.73"/>
    <path class="cls-1" d="M57.1,54a6.1,6.1,0,0,0-1-.68,5.09,5.09,0,0,0-1.35.53C53.83,54,53.29,54,52.3,54.06a0.83,0.83,0,0,1-.74-0.2,0.54,0.54,0,0,1,0-.54c0.29-.38.88,0.26,1.24-0.71l1.46-.07A9.27,9.27,0,0,1,57,52.6c0.14-.13.37,0.51,0.61,0.67,0.45,0.3.31-.11,0.52,0.51-0.14-.13.13,0.37,0,0.25a1.43,1.43,0,0,1-.11.38,2.82,2.82,0,0,1-.53-0.12S57.07,54,57.1,54"/>
    <path class="cls-1" d="M51.48,54.85c0.68-.4-0.52-0.51-0.3.66,0-.11.22,0,0.24-0.09a3.32,3.32,0,0,0,.05-0.57"/>
    <path class="cls-1" d="M50.83,57.52a2.74,2.74,0,0,1-.06,1.42c-0.07.66,0.49,0.81,0.49,0.06,0-2.79-.2-2-0.43-1.48"/>
    <path class="cls-1" d="M58.64,61.45a0.54,0.54,0,0,1-.29.25,0.3,0.3,0,0,0-.15.31,0.28,0.28,0,0,0,.22.1,0.26,0.26,0,0,0,.19-0.18,1.69,1.69,0,0,0,0-.48"/>
    <path class="cls-1" d="M51.61,60.49a0.17,0.17,0,0,0,.18-0.16,0.18,0.18,0,0,0-.17-0.18,0.17,0.17,0,0,0,0,.35"/>
    <path class="cls-1" d="M57.74,55.79c-0.25.13-.47,0.1-0.71,0.24,0.37-.22-2-0.32-1.13-0.25-0.64,0-1.18-.18-1.85-0.18,0,0-.12.11-0.12,0.07a1,1,0,0,1-.77-0.34,1,1,0,0,0-.5,0,0.72,0.72,0,0,0,0-.15,0.4,0.4,0,0,1,.2-0.11,4.27,4.27,0,0,0,.9-0.11c1-.35,1.74.11,2.75,0.07a1.7,1.7,0,0,1,1,.13,1.21,1.21,0,0,1,.11.18c0.13,0.1.37,0,.45,0.11s-0.15.26-.33,0.35"/>
    <path class="cls-1" d="M56.8,57.21c-0.06,0-.09-0.09-0.14-0.09A4,4,0,0,1,55,56.76a1,1,0,0,0-.54.1,3.46,3.46,0,0,0-.72,0c-0.16.06-.29,0.29-0.16,0.36a0.77,0.77,0,0,0,.79-0.09,1.36,1.36,0,0,1,1.06-.06,1.09,1.09,0,0,0,.29.08c0.35,0,.69.08,1,0"/>
    <path class="cls-1" d="M53.16,56.32c0-.08-0.13-0.06-0.09-0.15a5.78,5.78,0,0,1-.68.06A4.09,4.09,0,0,1,52,56a0.49,0.49,0,0,0,.09.51c0.32,0.14.67-.28,1-0.07a0.91,0.91,0,0,1,0-.1"/>
    <path class="cls-2" d="M33.67,42.13l-2.1,2.11a33.75,33.75,0,0,0,2.12,3c0.37-.72,1-1.72,1.84-1.79l0.14-1.07Z"/>
    <path class="cls-2" d="M25.74,33.85h1.13c1.49,1.63,5.21,6.4,5.21,6.4L31.53,41.6a15.42,15.42,0,0,0,2.77-2.77c1-1.13,2-.25,1.15.5-0.53,1.05-3.12,3.19-4.81,4.69-4.79,4.39-14-2.47-6.41-9.24Z"/>
    <path class="cls-1" d="M24.31,36.44c0.83-1,1.59-.47.92,0.13-0.5.46,0.46,1.48,1.07,1.23a0.84,0.84,0,0,1,.94.87c-0.37.78,0.36,1.59,0.93,1.31a0.66,0.66,0,0,1,.75.82A0.82,0.82,0,0,0,30,41.88c0.82-.42.36,0.7,0.36,0.7-4.12,3.54-10.25-3.09-6.1-6.14"/>
    <path class="cls-2" d="M24.73,34.9a1.33,1.33,0,1,0,.11-2.66,1.33,1.33,0,1,0-.11,2.66"/>
    <path class="cls-1" d="M25.15,32.75c0.82,0.42.13,1.62-.41,1.5S24.61,34,24.61,34c0.54,0.08,1-.78.34-1.06-0.25-.11.2-0.18,0.2-0.18"/>
    <path class="cls-2" d="M73.27,33.46l-1.12.06c-1.42,1.7-4.89,6.65-4.89,6.65l0.61,1.32A15.85,15.85,0,0,1,65,38.85c-1.08-1.08-2-.16-1.13.55,0.59,1,3.28,3,5,4.45,5,4.15,13.87-3.59,6-10Z"/>
    <path class="cls-1" d="M75,35.42c-0.71-.72-1.26-0.3-1.06.3s-0.6,2-1,1.7-1.11.59-.9,0.92c0.35,0.55-.31,1.65-0.85,1.36a0.68,0.68,0,0,0-.71.85,0.86,0.86,0,0,1-1.08,1.13c-0.89-.22-0.32.72-0.32,0.72,4.29,3.33,10.24-4.14,5.94-7"/>
    <path class="cls-2" d="M74.35,34c-0.73.07-1.4,0-1.47-.78a1.81,1.81,0,0,1,1.22-1.88A1.33,1.33,0,0,1,74.35,34"/>
    <path class="cls-1" d="M73.82,31.9a0.78,0.78,0,0,0,.48,1.48c0.57-.16.12-0.25,0.12-0.25-0.75.14-1.3-.62-0.39-1,0.25-.11-0.21-0.18-0.21-0.18"/>
    <path class="cls-2" d="M66,42.19c0.29,0.16,2,1.71,2.46,2a31.11,31.11,0,0,1-2.27,4.94c-0.06-2-.36-4.18-1.44-4.18l-0.21-.79Z"/>
    <path class="cls-1" d="M59.29,73.47c0.08-.59-0.45-1.14-0.8-0.67a9.18,9.18,0,0,1-.45,1c-0.65.66-1.06,0.79-1.43,1.2a0.86,0.86,0,0,0-.13,1.31,1.69,1.69,0,0,0,.53,1c0.52,0.39,1.27,0,2-1a1.53,1.53,0,0,0,.18-0.78c0.1-.64,0-1.3.06-2"/>
    <path class="cls-1" d="M56,77.2c0,1.63-2.4,2.29-3.36,1.77A1.1,1.1,0,0,1,52,78.12a1.16,1.16,0,0,1,.7-0.6,2,2,0,0,0,.83-0.27c0.38-.35.65-0.41,1.1-0.85a0.84,0.84,0,0,1,1,0,0.64,0.64,0,0,1,.28.8c0-.06,0,0,0,0"/>
    <path class="cls-2" d="M58.6,74.75c-1,.68-2.22,1.28-1.05,1.89a1.35,1.35,0,0,0,1.18-1,6.09,6.09,0,0,0-.12-0.88"/>
    <path class="cls-2" d="M55.17,77.95a8,8,0,0,1-.73.44,2.25,2.25,0,0,1-1.41.3c-0.44-.08-0.27-0.46-0.17-0.47C54.1,78,54.32,77.33,55.11,77a0.45,0.45,0,0,1,.25.5,1.15,1.15,0,0,1-.19.42"/>
    <path class="cls-1" d="M45.73,63.32A3.14,3.14,0,0,1,45,64.52a5.72,5.72,0,0,0-.8.64,1.05,1.05,0,0,0,0,.36,13.44,13.44,0,0,0,2.27-.26,7.14,7.14,0,0,1,1.66.28,12.14,12.14,0,0,0,3.08-.11,11.41,11.41,0,0,1,2.15.19c0.88-.1,1.41-0.54,1-0.44a1.48,1.48,0,0,1-.67,0,1.65,1.65,0,0,0-.6.12,3.14,3.14,0,0,1-1.47-.13,7.78,7.78,0,0,0-2.34.14A34.66,34.66,0,0,0,45,65a6.6,6.6,0,0,1,1.17-1c0.41-.52.5-1.23,0.58-1,0-.07-0.42-0.46-1,0.35"/>
    <path class="cls-1" d="M47.46,67.37c1.08-.1,3.12.42,4.06,0.08,0,0.09.79-.26,0.78,0.13,0,0.54-1.33.45-1.68,0.37-0.95-.2-1.28.09-3.24,0.06a1.17,1.17,0,0,1-1.25-.55c-0.07-.18.5-0.22,1.33-0.08"/>
    <path class="cls-1" d="M53.85,63.93c-0.1.25,0.16,0.42,0.3,0.27A0.3,0.3,0,0,0,54,63.73c0,0.13-.12.11-0.15,0.19"/>
    <path class="cls-1" d="M53.42,63.41a1.37,1.37,0,0,0-.29-0.18c-0.34-.08-0.61-0.26-1-0.31-0.09,0-.13-0.16,0-0.23a0.9,0.9,0,0,1,.67.07,3.34,3.34,0,0,1,.58.59c0.07,0,.26.06,0.2,0.16s-0.24.06-.26-0.1h0"/>
    <path class="cls-2" d="M54.44,64.84a0.19,0.19,0,0,0,0-.37,0.18,0.18,0,0,0-.14.19,0.17,0.17,0,0,0,.14.18"/>
    <path class="cls-2" d="M75.56,24.48a3.73,3.73,0,0,0,2,.8c0.41,0,.63-0.16.63-0.42s-0.41-.41-1.06-0.54a2.19,2.19,0,0,1-2.06-2.17c0-1.65,1.27-2.89,3.29-2.9a5.4,5.4,0,0,1,2.67.69L80.17,22a2.8,2.8,0,0,0-1.63-.6c-0.4,0-.62.15-0.61,0.38,0,0.39.53,0.44,1.48,0.64a2.11,2.11,0,0,1,1.78,2.11c0,1.69-1.32,3-3.39,3a6.22,6.22,0,0,1-3.12-.86Z"/>
    <path class="cls-2" d="M22,23.53h0.44a0.73,0.73,0,0,0,.83-0.77A0.74,0.74,0,0,0,22.47,22H22v1.55ZM19.22,20l3.57,0c2.11,0,3.2.95,3.22,2.64a1.84,1.84,0,0,1-1.51,2l2.14,3.2-3.18,0-1.41-2.6,0,2.61-2.79,0Z"/>
    <path class="cls-2" d="M33.65,24.81l-0.25-.89a8.47,8.47,0,0,1-.34-1.74H33a8,8,0,0,1-.31,1.74l-0.23.9h1.18Zm-2.18-5,3.16,0,2.84,7.89-3.05,0-0.26-1L32,26.7l-0.23,1-3.06,0Z"/>
    <polygon class="cls-2" points="39.94 19.78 42.83 19.75 42.9 27.66 40.02 27.69 39.94 19.78"/>
    <path class="cls-2" d="M50.49,23.64c0-1-.59-1.52-1.74-1.51H48.62l0,3.06c1.26,0,1.84-.48,1.83-1.55m-4.32-3.92,2.3,0a7.29,7.29,0,0,1,3.14.47,3.88,3.88,0,0,1,.55,6.62,6.42,6.42,0,0,1-3.82.82l-2.09,0Z"/>
    <polygon class="cls-2" points="56.41 19.63 61.7 19.58 61.72 21.72 59.22 21.75 59.22 22.51 61.5 22.49 61.51 24.52 59.24 24.54 59.26 25.37 61.82 25.34 61.84 27.49 56.48 27.54 56.41 19.63"/>
    <path class="cls-2" d="M67.79,23.11h0.44a0.73,0.73,0,0,0,.83-0.78,0.74,0.74,0,0,0-.85-0.78H67.77ZM65,19.55l3.57,0c2.11,0,3.2.95,3.22,2.64a1.84,1.84,0,0,1-1.51,2l2.15,3.2-3.18,0-1.41-2.6,0,2.61-2.79,0Z"/>
  </g>
</svg>
