<svg id="Layer_1" data-name="Layer 1" xmlns="http://www.w3.org/2000/svg" viewBox="0 0 100 100">
  <defs>
    <style>
      .cls-1 {
        fill: #b21e35;
      }

      .cls-2 {
        fill: #25316a;
      }
    </style>
  </defs>
  <g>
    <g>
      <path class="cls-1" d="M92.49,15.59H79.06l0,31.75c0,0.76-.21,4.63-3.41,4.63a2.58,2.58,0,0,1-2-.72,5.8,5.8,0,0,1-1.18-3.65l0-32H50.65V28.52h2.47c2.26,0,3,.58,3.22.83a1.15,1.15,0,0,1,.25.75,1.42,1.42,0,0,1,0,.16l0,0.17V52a14.14,14.14,0,0,0,4,10.27,15.2,15.2,0,0,0,10.91,4.16,17.81,17.81,0,0,0,7.7-1.69c0,0.31,0,.62,0,0.92,0,2.18-.07,4-0.4,4.44-0.09.07-.57,0.33-2.83,0.33H11.39V85.34H80.77c5.08,0,8.92-1.48,11.42-4.33A12.23,12.23,0,0,0,95,72.94c0-.45,0-0.78,0-1s0-56.37,0-56.37h-2.5Z"/>
      <path class="cls-1" d="M11.39,65.53H26.82l0-33.09,0-.17a3.15,3.15,0,0,1,.61-2.18,4.19,4.19,0,0,1,3-.93,3.16,3.16,0,0,1,2.35.76,3.73,3.73,0,0,1,.86,2.38v0.06l0,25V57.22a9.09,9.09,0,0,0,2.23,6.19,7.17,7.17,0,0,0,5.31,2.1H54.42V52.45l-2.82.37a2.84,2.84,0,0,1-1.92-.42,2.52,2.52,0,0,1-.58-1.79V27.17a13,13,0,0,0-3.32-8.88c-2.31-2.41-5.57-3.63-9.69-3.62a16.81,16.81,0,0,0-9.5,2.63c0-.73,0-1.7,0-1.7H5V29.14l3-.64a3.69,3.69,0,0,1,2.74.41,2.93,2.93,0,0,1,.64,2.1V65.53h0Z"/>
    </g>
    <g>
      <path class="cls-2" d="M57.93,52a12.82,12.82,0,0,0,3.55,9.31,13.86,13.86,0,0,0,9.94,3.76,16,16,0,0,0,9-2.64c0,0.42,0,1,0,1,0,0.85,0,1.62,0,2.33,0,2.84-.12,4.61-0.79,5.29-0.5.51-1.6,0.71-3.8,0.72l-63.14,0V84l68-.05c4.67,0,8.17-1.29,10.39-3.84A10.91,10.91,0,0,0,93.69,73a8.91,8.91,0,0,0,0-1c0-.13,0-55.06,0-55.06H80.42l0,30.38c0,0.24-.08,6-4.77,6a4,4,0,0,1-3-1.13c-1.61-1.65-1.56-4.59-1.56-4.62s0-30.62,0-30.62H52V27.16h1.11c2.08,0,3.56.46,4.28,1.34a2.56,2.56,0,0,1,.51,2V52Z"/>
      <path class="cls-2" d="M12.75,64.17H25.46l0-31.67V32.42a4.54,4.54,0,0,1,.93-3.22,5.18,5.18,0,0,1,4.05-1.41A4.47,4.47,0,0,1,33.74,29,5.16,5.16,0,0,1,35,32.31s0,25,0,25a7.79,7.79,0,0,0,1.85,5.16,5.77,5.77,0,0,0,4.33,1.69H53.06V54l-1.28.19a4.24,4.24,0,0,1-3-.74,3.57,3.57,0,0,1-1-2.83l0-23.54a11.64,11.64,0,0,0-3-7.84c-2-2.13-5-3.21-8.71-3.2-5.58,0-9,2.17-10.86,4.13,0-1,0-3.2,0-3.2H6.36V27.47l1.36-.3s2.51-.54,3.93.72A4,4,0,0,1,12.75,31V64.17Z"/>
    </g>
  </g>
</svg>
