<svg id="Layer_1" data-name="Layer 1" xmlns="http://www.w3.org/2000/svg" viewBox="0 0 100 100">
  <defs>
    <style>
      .cls-1 {
        fill: #fff;
      }

      .cls-2 {
        fill: #1f3162;
      }

      .cls-3 {
        fill: #658ec9;
      }

      .cls-4 {
        fill: #c3c7cf;
      }

      .cls-5 {
        fill: #bf2026;
      }
    </style>
  </defs>
  <g>
    <path class="cls-1" d="M32.64,55.79a16.53,16.53,0,0,0,1.83,6c1.63,3.16,5.06,7.36,12.13,9.74a28.52,28.52,0,0,0,3.94,4.9A28.4,28.4,0,1,0,75.18,28.27a19.44,19.44,0,0,0-17.63-4.5L57,23.93A5,5,0,0,1,51.67,23a27.88,27.88,0,0,0-3.33-2.31c-3.79-2.13-9.19-2.21-13.73-.38a5.18,5.18,0,0,1-5.39-.91C23.3,15.36,16,14.38,8.28,16.09A34,34,0,0,0,1,18.29a33.82,33.82,0,0,1,7.29,2.07,14.65,14.65,0,0,1,7.33,5.86s1.16,1.7.4,2.21-1.72-.81-1.72-0.81a26,26,0,0,0,0,2.72c0.43,7.85,2,12.57,5.82,16.18,1.72,1.64,4.63,3.24,9.13,5C31.33,52.34,32.44,53.39,32.64,55.79Z"/>
    <path class="cls-2" d="M89.37,37.48a26.4,26.4,0,0,0-15-7.5A17.73,17.73,0,0,0,58,25.51c1.89,0.28,3.15,1.41,2.67,2.66C60.39,29,59,29,58.39,29c-2,0-3.72-1.2-5.09-2.32a46.18,46.18,0,0,0-5.85-4.4c-3.89-2.19-10.07-1.92-14.53.94,2.67,0.18,5.89.95,7.8,2.54,1.07,0.89,2.44,2.67,1.32,3.51s-3.39.35-4.62-.36a19.6,19.6,0,0,1-4.76-4.08c-7.07-8.33-17.1-8.8-25.36-6.76A16.12,16.12,0,0,1,18.58,28c2.24,5.33,4,7.59,7.66,9,2.31,0.9,2.93,1.07,2.75,2.09-0.27,1.5-3,.78-5.08,0-2.54-1-5.89-3.73-7.88-8.86,0.36,6.64,1.63,11.36,5.37,14.92C23,46.71,25.92,48.28,30.49,50c2.92,1.12,5.23,1.8,7.41,3.75,2.54,2.27,1.45,3.77-.23,3.49A5.89,5.89,0,0,1,34.41,55s0,10.82,13.38,15a26.85,26.85,0,0,0,4,5.13A26.59,26.59,0,0,0,89.37,37.48Z"/>
    <path class="cls-3" d="M88,38.82a24.38,24.38,0,0,0-14.64-7c-4.76-4.74-9.5-4.52-9.5-4.52,2.08,1.31,1,4.22-3.62,4.86s-10.42-.92-13.26-4.23-5.13-3.57-5.13-3.57c2.54,1.59,2.72,3.49,4.26,6.39s4.71,3.94,7.47,4.12,3,1.51.63,2.9c-2.56,1.52-4.83.08-6.47-1.54-2.6-2.56-5.19-3.06-8.77-3s-8.31.52-12.3-1S20,25.46,20,25.46c2,7,6.36,10.28,10.44,11.08,5.38,1.06,9.1,2.34,11.38,4.18A12.32,12.32,0,0,1,46,46.79c0.64,1.91.76,4.45,0.12,4.6s-0.89-.85-1.77-2.63A9.75,9.75,0,0,0,40,44c-3.15-1.68-6.23-1.58-9.38-1.54a21.11,21.11,0,0,1-4-.25s0.1,0.33,4.16,1.25c4.52,1,8.89,3.57,11.81,9.78,2.47,5.28,1.18,9-4.31,7.32,0,0,2.56,5.7,10.93,7.72a24.69,24.69,0,0,0,4,5.25A24.56,24.56,0,0,0,88,38.82Z"/>
    <path class="cls-1" d="M70.59,32.83a23.35,23.35,0,1,1-16.51,6.84A23.2,23.2,0,0,1,70.59,32.83Z"/>
    <g>
      <path class="cls-2" d="M70.62,77.53A21.34,21.34,0,1,1,91.93,56.15,21.34,21.34,0,0,1,70.62,77.53Z"/>
      <path class="cls-1" d="M65.37,51.87H59.05L57,55.58l-2.8-7.95H87l-2.8,7.95L82.1,51.87H75.88l-5.27,23Z"/>
      <polygon class="cls-4" points="86.96 47.64 54.16 47.64 54.7 49.14 70.33 49.14 65.37 51.87 70.61 74.9 70.61 49.14 86.43 49.14 86.96 47.64"/>
    </g>
    <path class="cls-5" d="M54.49,29.21c-4.76-.14-6.69-2-9.65-4.39a10,10,0,0,0-7.63-2.1c2.4-1.37,7.12-1.43,10.52,1.55C50.78,26.93,52.27,28.38,54.49,29.21Z"/>
    <path class="cls-5" d="M13.89,18.73s4.45-.11,8.34,6.87A12.11,12.11,0,0,0,36.3,31.35a11.76,11.76,0,0,1-9.3-6C23.64,19.4,19.2,17.75,13.89,18.73Z"/>
    <path class="cls-5" d="M39.09,52.52S38.46,46,29.21,44.16s-10.5-6.74-10.5-6.74,0.06,7,8.07,9.13C32.37,48,36.47,48.91,39.09,52.52Z"/>
    <g>
      <polygon class="cls-5" points="73.8 45.59 72.54 41.84 75.72 39.51 71.77 39.55 70.53 35.8 69.35 39.56 65.41 39.59 68.62 41.88 67.42 45.63 70.59 43.28 73.8 45.59"/>
      <polygon class="cls-5" points="59.72 58.81 57.1 61.77 53.49 60.19 55.5 63.58 52.87 66.53 56.73 65.67 58.72 69.08 59.09 65.15 62.95 64.31 59.33 62.74 59.72 58.81"/>
      <polygon class="cls-5" points="78.21 64.39 82.08 65.17 82.51 69.1 84.45 65.66 88.32 66.46 85.65 63.55 87.6 60.13 84.01 61.77 81.36 58.85 81.81 62.77 78.21 64.39"/>
    </g>
  </g>
</svg>
