<svg id="Layer_1" data-name="Layer 1" xmlns="http://www.w3.org/2000/svg" viewBox="0 0 100 100">
  <defs>
    <style>
      .cls-1 {
        fill: #fac400;
      }

      .cls-2 {
        fill: #293f38;
      }

      .cls-3 {
        fill: #fff;
      }
    </style>
  </defs>
  <g>
    <path class="cls-1" d="M99.5,50c0,17.89-22.16,32.4-49.5,32.4S0.5,67.89.5,50,22.66,17.6,50,17.6,99.5,32.11,99.5,50h0Z"/>
    <path class="cls-2" d="M97.2,50c0,17.06-21.13,30.89-47.2,30.89S2.8,67.06,2.8,50,23.93,19.11,50,19.11,97.2,32.94,97.2,50h0Z"/>
    <path class="cls-3" d="M91.88,48.71H42.25v7.48H70.92c-3.83,5.65-12.12,9.56-21.74,9.56-13.25,0-24-7.42-24-16.57s10.74-16.57,24-16.57a32.82,32.82,0,0,1,11,1.85,21.74,21.74,0,0,1,10.58,7.48H89.92a25,25,0,0,0-6.11-7.48C76.17,27.94,63.87,23.72,50,23.72,26.84,23.72,8.07,35.48,8.07,50S26.84,76.28,50,76.28c19.75,0,36.31-8.56,40.76-20.09A17.14,17.14,0,0,0,91.93,50q0-.65-0.05-1.29h0Z"/>
  </g>
</svg>
