<svg id="Layer_1" data-name="Layer 1" xmlns="http://www.w3.org/2000/svg" viewBox="0 0 100 100">
  <defs>
    <style>
      .cls-1 {
        fill: #221f1f;
      }

      .cls-2 {
        fill: #1a5465;
      }

      .cls-3 {
        fill: #c6922c;
      }

      .cls-4 {
        fill: #896828;
      }

      .cls-5 {
        fill: none;
        stroke: #221f1f;
        stroke-width: 0.04px;
      }

      .cls-6 {
        fill: #fff;
      }
    </style>
  </defs>
  <g>
    <path class="cls-1" d="M81.06,62.47s6.82-1.91,10.07-7.34c3.82-.8,7.87-5,7.87-8.77a8.05,8.05,0,0,0-3.52-6.77s-1.3-3.34-6.21-6.55a5.88,5.88,0,0,0,1.36-3.34c0-1.77-1.36-2.86-3.8-4.64S82,22.39,79,20.53s-9.64-5.07-13.91-6a42.35,42.35,0,0,0-9.32-1.23c-4.93,0-6.8.8-6.8,0.8a13.66,13.66,0,0,0-4.84-.64c-3.34,0-5.36.27-12.48,2.21S19.09,18.94,13.3,19.3,4.86,20,3.07,20,1,22.46,1,23.19c0,4.84,6.34,11.21,9.73,13a25.09,25.09,0,0,0-.3,3.43A22.92,22.92,0,0,0,16.34,53.9c7.18,7.59,14.23,8.62,19,11.71s6.39,6.46,8.91,10.28C48.1,82.31,54.58,86.7,61.6,86.7,73,86.7,78.18,75.59,78.18,73.2c0-1.57-1.91-1.89-1.91-1.89a17.44,17.44,0,0,0,.32-8.77,37.66,37.66,0,0,1-4,5.34s-3-2.57-2.36-5.46a11.78,11.78,0,0,0,4.55-2.86,10.78,10.78,0,0,0,5.59-3.09,6.12,6.12,0,0,0,.8,1.09l1.52-1.11,0.09,1.48,0.68-.16A14,14,0,0,1,81.06,62.47Z"/>
    <path class="cls-2" d="M69.61,70.13s0.45-1.57-1.61-2.8a6.54,6.54,0,0,1,.14,1.89Z"/>
    <path class="cls-2" d="M79.44,42.74c2.34-.13,5.35.51,5.29,2.85a19.23,19.23,0,0,1,1.54,2.7,8.21,8.21,0,0,0,2.47-3.6C82.63,41.89,80.75,41.77,79.44,42.74Z"/>
    <path class="cls-3" d="M75.44,42.23l4.74,3.88-6.58,2.45s0.53-1.56.1-1.77c-4.74-2.64-12.84-5-21-6.54a87.25,87.25,0,0,0-12.48-1.68L43,39.13l2.85,1.16-9.74.7v2l-3,.27c-0.67-1.48-1.43-1-2.32-1.58A3,3,0,0,1,29.65,40c-0.08-.36-0.53-0.34-1.35-0.57s-1.16,0-1.33.25S27.69,40,27.69,40A4,4,0,0,1,26,40.4l0,0.11,0.78,0.13a1.31,1.31,0,0,0,.11,1.62,1,1,0,0,0,1.18,0,1,1,0,0,0-.23.67c0.13,0.17-.42.7-0.42,1.22a1.9,1.9,0,0,0,1.22,1.48l-5.4,2.17-0.46.86a1.24,1.24,0,0,1-.48,1.1,1.93,1.93,0,0,0-.74.74c-0.17.19-2,1.54-2,1.54A8.79,8.79,0,0,1,17.91,50a2.9,2.9,0,0,0,1-2.11L18,47.73a2.21,2.21,0,0,0,1.14-1.16,0.54,0.54,0,0,1-.59.08c-0.19-1-.86-1-1.1-1.71a1,1,0,0,0-1.18-.46A3,3,0,0,1,17,43.81c0.3-1.24.63-1.31,0.63-1.75,0-.93-1.73-1.1-1.79-0.89a0.61,0.61,0,0,0,.36.44,5.06,5.06,0,0,0-1.54.74c-0.72-5.54.25-6.58,0.25-6.58C19.7,35.61,22,33.16,22,33.16l-2.21.08L18,32.32,21.93,31a17.88,17.88,0,0,0,10.75-4.41,16.65,16.65,0,0,1-7.63,2.26,15.35,15.35,0,0,1-9.49-3.58l-0.11-.48c0.72-.11.57-0.51,0.86-0.86a2.44,2.44,0,0,1,.78-0.3,0.43,0.43,0,0,0-.36-0.17l0-.25s1.05,0,1.05-.46-0.74-.06-1.73-0.55L15.5,20.91a50.13,50.13,0,0,0,8.85-1.54,1.71,1.71,0,0,0,1.14.84l-0.63.38a3.8,3.8,0,0,0,.89.06,3.58,3.58,0,0,1,.95-0.15c0.46,0,1.12.08,1-.29a1.56,1.56,0,0,0-.82-0.65l0.06-.17L28,19.67a1.26,1.26,0,0,1,0-1.12l9-2s0.55,1.35,1.56,1.3c1.58-.21,1.39.36,2.19,0.42a7.68,7.68,0,0,1-.95-1.45L40,16.7l1,0.78c1-.82,2.13-0.4,2.19-0.57s-0.53-.61-0.42-0.74,0.8,0.63,1,.51a2.41,2.41,0,0,0-.3-1.2,58.08,58.08,0,0,1,7.8.34l0,0.17c-0.91.19,0.15,1.18,0.15,1.18l-0.25.08a2.25,2.25,0,0,0-.78-0.57,0.51,0.51,0,0,0-.44.59,1.48,1.48,0,0,0,1.35.84,2,2,0,0,0,1-.3c0,0.23,1.41.13,1.35-.21a3.11,3.11,0,0,0-.84-1l1.5,0.72,0.55-.91A46.88,46.88,0,0,1,61,18.07a2.38,2.38,0,0,0-1,.38c-0.32.17,0,.61,0,0.61a0.29,0.29,0,0,0-.42.11,1.25,1.25,0,0,0,1.24.7l-0.17-.38a0.58,0.58,0,0,1,.55.38s0.57,0,1.12-.06a1.8,1.8,0,0,1,1.1.42l-0.11-.36,0.4-.51,0.27,0.36h0.74l0.76,0.67,0.11-.61a0.68,0.68,0,0,0,.4.36,1.86,1.86,0,0,1,.51-0.42c-0.13-.42.8-1,0.8-1,0.13-1-1.12-1.1-1.41-1s-0.06.42-.25,0.46a2.33,2.33,0,0,1-.36-0.44c-0.15,0-.08.42-0.08,0.42a1.75,1.75,0,0,0-.82.08,6.57,6.57,0,0,0-.67.89L60,17.25l1-.38,0.19,0.23c0.4-2-2-1.81-2.13-1.77s0.3,1,.08,1a5,5,0,0,1-.82-0.67,5.45,5.45,0,0,0-1,.55A15.32,15.32,0,0,0,54,15.35a15.81,15.81,0,0,1,3.54-.4,31,31,0,0,1,12.88,3c1.54,0.7,1.58,1.27,1.58,1.27a3.45,3.45,0,0,0-.67-0.27c0,0.44,2.51,1.48,2.51,1.48-0.59-.65-0.42-0.95-0.42-0.95a1.44,1.44,0,0,0,1.31.63c0.21,0.11,7.86,4.22,8.69,4.68s0.89,1,.65,1.08-0.53-.48-0.53-0.48a0.88,0.88,0,0,0-.11,1.14c0.23,0.06,0-.21.32-0.17a8.36,8.36,0,0,0,.76.42,4.39,4.39,0,0,1,1.1.48l0-.57,0.86,1.08a2,2,0,0,1,2,2.17,2.31,2.31,0,0,1-.76,1.77,30.93,30.93,0,0,0-8.31-4.45,40,40,0,0,1,8.39,6.68c1.35,1.56,1.6,2,1.6,2.76a7.84,7.84,0,0,1-.48,1.6,0.61,0.61,0,0,0,.55.68c0.61,0,1.71-1.39,1.71-1.39s2,1.43,2,3.23-2.26,1.1-4.07,2.66a40.48,40.48,0,0,0-9.95-2.53,36.7,36.7,0,0,0-7.48-.21Z"/>
    <path class="cls-4" d="M16.14,25.71a15.23,15.23,0,0,0,8.91,3.13,16.65,16.65,0,0,0,7.63-2.26A17.88,17.88,0,0,1,21.93,31L18,32.32l1.77,0.93L22,33.16s-2.3,2.45-7.06,2.61c0,0-1,1-.25,6.58a5.06,5.06,0,0,1,1.54-.74,0.61,0.61,0,0,1-.36-0.44c0.06-.21,1.79,0,1.79.89,0,0.44-.34.51-0.63,1.75a3,3,0,0,0-.72.67,1,1,0,0,1,1.18.46c0.23,0.67.91,0.74,1.1,1.71a0.54,0.54,0,0,0,.59-0.08A2.21,2.21,0,0,1,18,47.73l0.91,0.13a2.9,2.9,0,0,1-1,2.11,8.79,8.79,0,0,0,1.67,2.09s1.81-1.35,2-1.54a1.93,1.93,0,0,1,.74-0.74,1.24,1.24,0,0,0,.48-1.1l0.46-.86,5.4-2.17a1.9,1.9,0,0,1-1.22-1.48c0-.53.55-1.05,0.42-1.22a1,1,0,0,1,.23-0.67,1,1,0,0,1-1.18,0,1.31,1.31,0,0,1-.11-1.62L26,40.5l0-.11A4,4,0,0,0,27.69,40S26.8,40,27,39.7s0.51-.48,1.33-0.25,1.26,0.21,1.35.57a3,3,0,0,0,1.14,1.71c0.89,0.59,1.65.11,2.32,1.58l3-.27V41l9.74-.7L43,39.13l-2.76-.56a87.25,87.25,0,0,1,12.48,1.68c1.76,0.33,3.51.71,5.22,1.11a38.6,38.6,0,0,0-3.15-3,116.94,116.94,0,0,0-14.85-3,88.53,88.53,0,0,1,13.17,1.89c-3-2.4-5.44-3.07-5.44-4.16,0-.71,1.37-1.79,1.37-1.79l2-1.58L55.47,28l-0.13-1.28,0.34-.29a0.55,0.55,0,0,1,.67-0.78l0.06-.08s-4-1.53-13.59-1.62l1,1a11.09,11.09,0,0,1-1.93-.08,2.26,2.26,0,0,0,.23,1.91l-1-.08,1.37,0.69a0.84,0.84,0,0,0-.9.84c0,0.74-1.16.78-1.16,0.78l0.13,0.48-0.8-.36,0.48,0.59c-2.21.13-2.88-.36-2.41-1,0.19-.25,0-0.55-0.4-0.92l0-.42s1,0.17,1.37.21a4.31,4.31,0,0,0-1.37-.69c0.13-.59.61-0.31,0.94-1.13a8.84,8.84,0,0,1,1.09.34A2.23,2.23,0,0,0,38,25.3l1.13-.11a0.46,0.46,0,0,0,.46-0.44,64.27,64.27,0,0,0-11.74,2.41l0.92-1a23.35,23.35,0,0,1-5.42.82A28.41,28.41,0,0,1,16.14,25.71Z"/>
    <path class="cls-4" d="M80.17,41l-1-.13a40.77,40.77,0,0,0-7-.25l-0.42-.19A6.28,6.28,0,0,0,68.3,38a16.63,16.63,0,0,1,5.06-.78c2.86,0,4.64,1,5.88,1,1.09,0,.94-0.69.94-0.69C80.78,38.06,80.36,39,79,39A3.57,3.57,0,0,0,80.17,41Z"/>
    <path class="cls-5" d="M88.15,28.63a2.44,2.44,0,0,1,.36,1.28,2.31,2.31,0,0,1-.76,1.77,38.2,38.2,0,0,0-3.51-2.25C86.53,29.64,87.5,29.5,88.15,28.63Z"/>
    <path class="cls-2" d="M47.84,49.27c5.51,2.18,4.83,7.55,5.13,10.87,0.07,6.1,1,9.71,6.51,12.45,0,0,4.45-2.38,5.76-6.51-2.93-2-2.77-5.33-2.77-7.08,0-4.65-1-8.21-6.22-9.12,3.58,2.45,3.7,10.5,3.7,11.59,0,3.7,1.09,5.4,1.09,5.4s-1.84-.52-2.38-6.44C58.39,50.18,52.34,48,47.84,49.27Z"/>
    <path class="cls-1" d="M64.27,35.42A12.22,12.22,0,0,1,69.65,34a29.35,29.35,0,0,1,6.18.74,3.74,3.74,0,0,0,.78-2.54,6.05,6.05,0,0,0-2.5-4.52,6.34,6.34,0,0,1,.76,3c0,2-1.68,2.92-3.59,2.92A10.45,10.45,0,0,1,66.1,32L62.36,30.5,61.61,29.1l0.1-1.28a1.44,1.44,0,0,1,.71-0.57l-0.1-.46,0.4,0.36a1.68,1.68,0,0,0,1.16-1.3,0.92,0.92,0,0,0-1-.8c-0.4,0-.52.17-0.82,0.17s-0.21-.31-0.76,0S59.11,26,59.11,26a1.27,1.27,0,0,1-1.34-.36,1.45,1.45,0,0,0-1.3-.67c-0.78.13-.08,0.57-0.08,0.57l-0.06.08a0.56,0.56,0,0,0-.71.65l-0.8,2.44L50.48,29.9,48.9,31.53l0,0.15a10.62,10.62,0,0,1,4-.48l1.6,2.2,3.25,1.81,2.69,0.71,1.79,0.67a21.72,21.72,0,0,1,5.34,4.16S67.57,39,64.27,35.42Z"/>
    <path class="cls-4" d="M62.26,27.31a1.57,1.57,0,0,0-.55.51l-0.1,1.28,0.74,1.39L66.1,32a10.45,10.45,0,0,0,5.19,1.57,4.07,4.07,0,0,0,2.75-.9,4.64,4.64,0,0,1-1.81.33c-1.11,0-2-.42-4.28-2.16A26.57,26.57,0,0,0,62.26,27.31Z"/>
    <path class="cls-4" d="M75.66,29.31a5.15,5.15,0,0,1,1,2.92,3.74,3.74,0,0,1-.78,2.54A29.35,29.35,0,0,0,69.65,34a12.22,12.22,0,0,0-5.38,1.39,3.61,3.61,0,0,1,3.57,2.71,18.75,18.75,0,0,1,10.75-2.65A11.35,11.35,0,0,0,75.66,29.31Z"/>
    <path class="cls-1" d="M80.17,37.5s0.15,0.69-.94.69c-1.24,0-3-1-5.88-1A16.63,16.63,0,0,0,68.3,38l-0.21,0a16.68,16.68,0,0,1,3.21-1.47C74,35.61,78.55,36,80.17,37.5Z"/>
    <path class="cls-1" d="M54.76,38.38a116.94,116.94,0,0,0-14.85-3,88.53,88.53,0,0,1,13.17,1.89c7.14,1.35,16.86,4.48,20.33,6.49a0.77,0.77,0,0,1,.38.78,0.66,0.66,0,0,1-.73.55c-0.31,0-.31,0-1.55-0.61A98.41,98.41,0,0,0,54.76,38.38Z"/>
    <path class="cls-1" d="M79.69,24.86a0.3,0.3,0,0,1-.17.13,0.76,0.76,0,0,1-.25.11,0.52,0.52,0,0,0-.45.21,0.43,0.43,0,0,1,.12.2,0.8,0.8,0,0,0,.15.21,2.31,2.31,0,0,1,.4.38A0.55,0.55,0,0,1,79.18,26c-0.09-.05-0.24,0-0.31-0.1a0.74,0.74,0,0,0,.29.51,1.77,1.77,0,0,0,.72.4l0.21,0.06c0.08,0,.17,0,0.25.05s0.23,0.14.35,0.18a0.78,0.78,0,0,0,.19,0,0.58,0.58,0,0,0,.22,0A0.35,0.35,0,0,0,81,26.92c-0.05-.09-0.15-0.17-0.21-0.27s0-.14.18-0.08a2.6,2.6,0,0,1,.36.22,1.06,1.06,0,0,0,.42.2,1.22,1.22,0,0,0-.08-0.55,2,2,0,0,0-.29-0.59,2.7,2.7,0,0,0-.47-0.37,1.22,1.22,0,0,0-.25-0.14,0.51,0.51,0,0,0-.18-0.06s-0.05.08-.1,0.1a0.28,0.28,0,0,1-.34-0.18,2,2,0,0,0-.21-0.28Z"/>
    <path class="cls-1" d="M75.65,21.47a0.52,0.52,0,0,1,0,.39,0.46,0.46,0,0,1-.47-0.08c-0.09,0-.3-0.18-0.35,0a1,1,0,0,0,.17.38,0.35,0.35,0,0,1,.13.35,0.22,0.22,0,0,1-.23-0.07,0.75,0.75,0,0,1-.35-0.24,0.49,0.49,0,0,0,.08.22,0.69,0.69,0,0,0,.19.22L75.2,23a0.75,0.75,0,0,0,.51.25,2.13,2.13,0,0,1,.74.11,0.61,0.61,0,0,1,.36.25,1.16,1.16,0,0,0,.31.37,2.9,2.9,0,0,0,.6.41c0.09,0,.52.19,0.55,0a0.5,0.5,0,0,1-.14-0.22,0.77,0.77,0,0,1-.21-0.37c0-.1,0-0.13.09-0.14a0.18,0.18,0,0,1,.2.07c0.09,0.11.14,0.24,0.22,0.34a0.63,0.63,0,0,0,.33.2,0.32,0.32,0,0,0,0-.29,0.73,0.73,0,0,0,0-.32,0.41,0.41,0,0,0-.18-0.15,1.08,1.08,0,0,1-.17-0.07c-0.09-.11.13-0.17,0.2-0.19a0.62,0.62,0,0,0-.17-0.5,1,1,0,0,1-.33-0.38c-0.12,0-.12.12-0.21,0.16a0.25,0.25,0,0,1-.27-0.11,3.6,3.6,0,0,1-.41-0.36,0.65,0.65,0,0,0-.29-0.24,1.21,1.21,0,0,0-.4,0,1.1,1.1,0,0,0-.35.08,0.22,0.22,0,0,1-.26,0c-0.05-.07,0-0.19-0.11-0.27Z"/>
    <path class="cls-1" d="M72.49,24a2.19,2.19,0,0,0,.22.16,0.68,0.68,0,0,0,.2.14c0.16,0.16-.19.3-0.27,0.38a0.49,0.49,0,0,0-.24.47,1.72,1.72,0,0,1,.12.24c0,0.11,0,.23,0,0.33a0.91,0.91,0,0,0,.4.43c0.16,0.05.19-.12,0.28-0.19a0.37,0.37,0,0,1,.27,0,1.29,1.29,0,0,0,.31.06c0.07,0,.46,0,0.31.16s-0.35-.05-0.47.05a0.3,0.3,0,0,0,.21.14,1.09,1.09,0,0,1,.22.15,0.54,0.54,0,0,0,.33.15,0.55,0.55,0,0,0,.26,0l0.23-.1a1.48,1.48,0,0,1,.3,0,0.52,0.52,0,0,1,.3,0l0.33,0.14a1.73,1.73,0,0,1-.13-0.25,0.49,0.49,0,0,1-.07-0.29,1.82,1.82,0,0,0,.23-0.19,1.32,1.32,0,0,0-.22-0.52l-0.21-.18a0.39,0.39,0,0,1-.09-0.15,1.32,1.32,0,0,0-.4-0.48,3.54,3.54,0,0,0-.55-0.28,0.72,0.72,0,0,0-.3-0.13c-0.08,0-.26,0-0.27.07a1.28,1.28,0,0,0,.12.25c0,0.16-.06.17-0.18,0.13a2.11,2.11,0,0,1-.42-0.27L73,24.17c-0.11-.06-0.2-0.16-0.32-0.21Z"/>
    <path class="cls-1" d="M70.52,26.28s0,0,0,0,0,0,0,0a0.32,0.32,0,0,1-.17-0.2,0.63,0.63,0,0,0-.17-0.21c-0.16-.12-0.33-0.23-0.49-0.32a1.68,1.68,0,0,1-.46-0.42,1.67,1.67,0,0,0-.13-0.21,0.58,0.58,0,0,0-.24-0.14,0.92,0.92,0,0,0-.67.28,0.7,0.7,0,0,1-.37.28c-0.22,0-.41-0.16-0.63-0.19a1.08,1.08,0,0,0,.52.56h0a0.21,0.21,0,0,1,0,.25,0.34,0.34,0,0,1-.32-0.06l-0.14-.08c-0.06,0-.09-0.08-0.15-0.11a0.16,0.16,0,0,0-.22.15c0,0.05,0,.1.06,0.16a0.77,0.77,0,0,1,0,.16,0.36,0.36,0,0,1-.09.22,0.32,0.32,0,0,0-.16.25,0.5,0.5,0,0,0,.3.25,0.41,0.41,0,0,1,.21.2,0.07,0.07,0,0,1,0,.1,0.57,0.57,0,0,1-.37-0.07,2,2,0,0,0-.32,0c-0.1.2,0.29,0.41,0.44,0.46a2.15,2.15,0,0,0,.69.07c0.16,0,.3,0,0.46,0h0.41a0.88,0.88,0,0,0,.34-0.1,0.6,0.6,0,0,0,.26-0.24c0.13-.17.27-0.32,0.41-0.48s0.34-.3.18-0.49a1.34,1.34,0,0,0-.24-0.18c-0.07,0-.18-0.19-0.09-0.28a0.34,0.34,0,0,1,.27,0c0.09,0,.18.12,0.28,0.17a1,1,0,0,1,.18.11,1.59,1.59,0,0,0,.21.1Z"/>
    <path class="cls-1" d="M67.1,21.82s0.1,0.07.13,0.1a0.61,0.61,0,0,1,.19.16,1.41,1.41,0,0,0,.19.17l0.18,0.14a0.54,0.54,0,0,1,.2.15,1.23,1.23,0,0,1,.37.13L68.7,22.8a2.81,2.81,0,0,0,1,.16,0.45,0.45,0,0,0-.07-0.37,0.62,0.62,0,0,1-.22-0.33,0.72,0.72,0,0,1,.61.33c0.17,0.17.39,0.32,0.56,0.48a0.59,0.59,0,0,0,.29,0,0.39,0.39,0,0,0,.2-0.18,0.9,0.9,0,0,1,.66-0.14,0.48,0.48,0,0,0,.49-0.35,0.78,0.78,0,0,0,0-.32,0.79,0.79,0,0,0-.13-0.25,1.35,1.35,0,0,0-.32-0.3,1.42,1.42,0,0,1-.46-0.3c-0.09-.18.12-0.17,0.23-0.14a0.47,0.47,0,0,0,.35.13,0.63,0.63,0,0,0-.19-0.16l-0.22-.2A0.68,0.68,0,0,0,71,20.67a2.7,2.7,0,0,0-.58.11,1.15,1.15,0,0,0-.56.09,0.84,0.84,0,0,1,.45.55,0.3,0.3,0,0,1-.32.05c-0.06,0-.11-0.1-0.16-0.14a0.53,0.53,0,0,1-.21-0.14A1.71,1.71,0,0,1,69.35,21a1.85,1.85,0,0,0-.29-0.15,1.25,1.25,0,0,0-.7-0.06A1.33,1.33,0,0,0,68,21c-0.09.06-.16,0.15-0.26,0.21a2,2,0,0,0-.35.18c-0.11.1,0,.18,0.1,0.26a2.2,2.2,0,0,1,.2.2,2.29,2.29,0,0,1,.06.22,0.44,0.44,0,0,1-.4-0.13Z"/>
    <path class="cls-1" d="M61.34,21.63a0.45,0.45,0,0,1,.29.14,1,1,0,0,1,.22.18c0.09,0.18-.28.3-0.39,0.36a0.86,0.86,0,0,0-.42.31,1,1,0,0,0,.2.48,0.48,0.48,0,0,1,0,.21,0.65,0.65,0,0,1-.44-0.16A4,4,0,0,0,60.43,23a0.55,0.55,0,0,0,.36.39,0.76,0.76,0,0,0,.28.19,0.32,0.32,0,0,1,.16.28c0,0.15-.2.07-0.3,0a0.54,0.54,0,0,0-.36-0.09,0.45,0.45,0,0,0-.07.28,0.67,0.67,0,0,0,.18.21,0.44,0.44,0,0,0,.28.2,2.57,2.57,0,0,0,.42,0c0.23,0,.45,0,0.68,0l0.31,0a2.41,2.41,0,0,0,.32-0.14c0.1,0,.13,0,0.11-0.12a0.76,0.76,0,0,0-.11-0.23,1,1,0,0,1-.26-0.32,0.39,0.39,0,0,1,.36.14,1.28,1.28,0,0,0,.35.16,1.3,1.3,0,0,0,.79-0.08,2.17,2.17,0,0,0,.61-0.46c0.17-.14.44-0.08,0.62-0.23s-0.05-.29-0.08-0.43,0-.15.14-0.16a0.6,0.6,0,0,1,.17,0c0.07,0,.1.06,0.15,0.08s0.11-.07.12-0.16a1.22,1.22,0,0,0,0-.32,0.82,0.82,0,0,0-.5-0.4,5.71,5.71,0,0,0-.56-0.26,1.3,1.3,0,0,0-.7,0,0.7,0.7,0,0,1,.14.17,0.6,0.6,0,0,1,.11.09c0,0.11-.2.08-0.27,0.06a0.85,0.85,0,0,0-.71-0.21,1.37,1.37,0,0,0-.25.21,0.51,0.51,0,0,1-.34,0,2.63,2.63,0,0,1-.34-0.07l-0.35-.06a0.67,0.67,0,0,0-.25,0H61.34Z"/>
    <path class="cls-1" d="M56.18,23.8a0.24,0.24,0,0,0-.13-0.21,1.08,1.08,0,0,1-.26-0.2c-0.08-.09-0.35-0.37-0.2-0.5a1.52,1.52,0,0,1,.2-0.07l0.15-.09c0.08,0,.15-0.1.23-0.14a1.71,1.71,0,0,0,.38-0.42,1,1,0,0,0,.21-0.28A0.5,0.5,0,0,1,57,21.65a1.06,1.06,0,0,1,.64.15,0.46,0.46,0,0,1-.23-0.41,0.33,0.33,0,0,1,.2-0.21c0.12-.06.22-0.11,0.33-0.18,0.35-.22.61-0.77,0.17-1a0.74,0.74,0,0,0-.56-0.11c-0.07,0-.12.08-0.19,0.11a0.78,0.78,0,0,1-.29.06,2,2,0,0,1-.68-0.09,3.9,3.9,0,0,1-.39-0.1,1,1,0,0,0-.47-0.09,0.23,0.23,0,0,0,.12.08,0.48,0.48,0,0,1,.06.13c0.06,0.15,0,.18-0.14.2s-0.48-.07-0.57.2-0.39.23-.7,0.24c-0.1,0-.21,0-0.22.1a0.32,0.32,0,0,0,.19.23,1.25,1.25,0,0,1,.61.6c0.08,0.24-.1.16-0.25,0.07a3.91,3.91,0,0,0-.47-0.28c-0.26-.11-0.5-0.26-0.76-0.36a0.92,0.92,0,0,0-.66.08,1.17,1.17,0,0,0-.47.35,0.82,0.82,0,0,0-.16.59,1.45,1.45,0,0,0,.5.52,1.31,1.31,0,0,1,.23.21,0.52,0.52,0,0,1,.09.25,0.93,0.93,0,0,1-.37,0c-0.06,0-.34-0.12-0.35,0a2.12,2.12,0,0,1,.34.22c0.08,0,.18.06,0.27,0.1a0.5,0.5,0,0,0,.3.12c-0.1.21,0.6,0.17,0.71,0.17a1.22,1.22,0,0,0,.6-0.08c0.09,0,.18,0,0.19-0.14a0.31,0.31,0,0,0-.05-0.22c0-.07-0.1-0.22,0-0.27a0.42,0.42,0,0,1,.35.2,3.45,3.45,0,0,0,.45.35,2.18,2.18,0,0,0,.38.22Z"/>
    <path class="cls-1" d="M47.29,22.13a3.22,3.22,0,0,1,0-.35c0-.11,0-0.22,0-0.33a0.47,0.47,0,0,1,0-.15,0.54,0.54,0,0,1,.15-0.08l0.3-.2a1.27,1.27,0,0,0,.35-0.52,1.23,1.23,0,0,0,.15-0.7,2.1,2.1,0,0,0-.16-0.33A0.73,0.73,0,0,0,48,19.25,1,1,0,0,0,47.32,19a1.89,1.89,0,0,0-.69,0,0.88,0.88,0,0,1-.34.06,0.34,0.34,0,0,1-.3-0.2,2.57,2.57,0,0,1-.16-0.3c0-.08-0.05-0.18-0.1-0.26s-0.17-.16-0.18,0a0.89,0.89,0,0,0,0,.13c0,0.06,0,.13,0,0.2a5.26,5.26,0,0,1,.15,1.22,0.1,0.1,0,0,1,0,.11c-0.1.05-.14-0.09-0.18-0.16l-0.16-.23a0.89,0.89,0,0,0-.44-0.48,0.72,0.72,0,0,0-.59.16,1.91,1.91,0,0,0-.43.31,0.59,0.59,0,0,0-.17.54,3.38,3.38,0,0,1,.25.55c0,0.3-.38,0-0.48-0.08a1.8,1.8,0,0,1-.38-0.42,1.13,1.13,0,0,0,0,.64,2,2,0,0,0,.38.64,1.88,1.88,0,0,0,.27.19,2,2,0,0,0,.33.15,1.08,1.08,0,0,0,.8.1,6.2,6.2,0,0,1,1.1-.47,0.87,0.87,0,0,1,.62.1,2,2,0,0,1,.27.21,1.69,1.69,0,0,0,.19.24Z"/>
    <path class="cls-1" d="M50.16,28.51a1.14,1.14,0,0,0-.4-0.38c-0.08,0-.2-0.1-0.12-0.22a1.21,1.21,0,0,1,.22-0.16,1.63,1.63,0,0,0,.35-0.52,0.53,0.53,0,0,0,.06-0.32,0.84,0.84,0,0,0-.16-0.24,0.36,0.36,0,0,1-.09-0.2,0.6,0.6,0,0,1,.49.14c0-.06-0.06-0.14-0.1-0.2a0.46,0.46,0,0,0-.24-0.17A0.2,0.2,0,0,1,50,26a0.49,0.49,0,0,1,.22-0.16,0.2,0.2,0,0,0,0-.16,0.63,0.63,0,0,0,0-.17,0.45,0.45,0,0,0-.24-0.19l-0.28-.17a0.54,0.54,0,0,0-.3-0.1c-0.26.09,0.12,0.62-.32,0.33a2.47,2.47,0,0,0-.63-0.32,0.9,0.9,0,0,0-.64.13,3.86,3.86,0,0,1-.72.3,0.8,0.8,0,0,0-.31.15c-0.12.12,0,.17,0,0.27a2.73,2.73,0,0,1,.16.29,0.42,0.42,0,0,1,.08.27,2.46,2.46,0,0,1-.54-0.19l-0.24-.07c-0.12,0-.17,0-0.24.06a1.9,1.9,0,0,0-.09.31,0.45,0.45,0,0,1-.27.18,2.54,2.54,0,0,0-.41.22,0.77,0.77,0,0,0-.28.2,0.5,0.5,0,0,0,.18.59,0.54,0.54,0,0,1,.27.42,0.7,0.7,0,0,0-.47.06,1.06,1.06,0,0,1,.13.11c0.1,0.07.21,0.12,0.31,0.19s0.3,0.16.43,0.26S46.09,29,46,29s-0.28,0-.42,0a0.72,0.72,0,0,0,.07,0,1.26,1.26,0,0,0,.12.12,1.28,1.28,0,0,0,.27.06,4.22,4.22,0,0,1,.56.13,0.81,0.81,0,0,0,.79,0c-0.13,0-.51-0.16-0.42-0.38s0.24,0,.3,0a2.21,2.21,0,0,0,.33.21c0.5,0.23.89-.36,1.18-0.65a1.08,1.08,0,0,1,.46-0.35,0.58,0.58,0,0,1,.61.15Z"/>
    <path class="cls-1" d="M22.82,38c-0.12,0-.24,0-0.35,0a2.25,2.25,0,0,0-.33-0.11,1.6,1.6,0,0,0-.89-0.46,1.83,1.83,0,0,0-1,0,3.2,3.2,0,0,0-.75.74,2.44,2.44,0,0,0-.34.45,2,2,0,0,0-.17.64c-0.09.45-.5,0.31-0.83,0.48,0.26,0,.52,0,0.78,0a0.94,0.94,0,0,1,.66.14,1.73,1.73,0,0,0-.61.35,0.9,0.9,0,0,1,.22.17,1.89,1.89,0,0,1,.16.37,2.3,2.3,0,0,1,0,.66,5.52,5.52,0,0,0,0,.82,4.07,4.07,0,0,0,.05.72,2.51,2.51,0,0,1,1,0,0.69,0.69,0,0,1-.33.23l-0.42.25a0.66,0.66,0,0,0-.25.87,1.41,1.41,0,0,0,.64.73,2,2,0,0,0,1.06.25c0.71-.08,1.11-1,1.56-1.41a5.15,5.15,0,0,0,1-.73,2.09,2.09,0,0,0,.3-1.27,1.31,1.31,0,0,0-.23-0.51,1,1,0,0,0-.47-0.32,0.67,0.67,0,0,0-.61,0,2.42,2.42,0,0,1-.53.13,1.68,1.68,0,0,1,.43-0.36,1.4,1.4,0,0,0,.33-0.19,1,1,0,0,0,0-.41,1,1,0,0,0-.2-0.38,3,3,0,0,1-.35-0.83,1,1,0,0,0-.12-0.37,0.34,0.34,0,0,0-.39-0.14,2,2,0,0,1,.82-0.35Z"/>
    <path class="cls-1" d="M26.7,34.33a1.36,1.36,0,0,0-.84-0.47,1.61,1.61,0,0,0-.45-0.11,0.61,0.61,0,0,0-.35.2,4.68,4.68,0,0,1-1,.12,0.93,0.93,0,0,0-.56.65,0.28,0.28,0,0,1,.21.1l0.15,0a1.69,1.69,0,0,0,.41.06,0.16,0.16,0,0,1,0,.15,2.4,2.4,0,0,0-.32.06,1.37,1.37,0,0,1-.33,0c-0.14,0-.47-0.19-0.57,0,0.2,0.18,0,.32,0,0.52a1.68,1.68,0,0,0,.28.67h0a1.05,1.05,0,0,0,.66.61,3.48,3.48,0,0,0,.71.14,2.33,2.33,0,0,0,.49,0,0.36,0.36,0,0,0-.29-0.3c-0.11,0-.43-0.12-0.27-0.26a1.08,1.08,0,0,1,.66.05c0.2,0,.38.09,0.58,0.1a1.34,1.34,0,0,0,1-.12,2.33,2.33,0,0,0,.26-0.44,1.61,1.61,0,0,0,.33-0.38,1.73,1.73,0,0,0,0-.45,0.84,0.84,0,0,0-.19-0.42A3.29,3.29,0,0,1,27,34.68a0.72,0.72,0,0,0-.37-0.1,0.62,0.62,0,0,1-.41-0.06c-0.11-.14,0-0.19.11-0.24Z"/>
    <path class="cls-1" d="M34.32,30.55a0.45,0.45,0,0,0-.24,0,1.23,1.23,0,0,1-.27-0.14,1.79,1.79,0,0,0-.6-0.22,0.41,0.41,0,0,1,0-.41,1.33,1.33,0,0,0,.22-0.39,0.9,0.9,0,0,0-.21-0.83,2.65,2.65,0,0,0-1.84-.39,1.92,1.92,0,0,0,.22.18,0.3,0.3,0,0,0,.26.17,0.32,0.32,0,0,1,.07.19h0c0.1,0.26-.89.09-1,0.08a0.38,0.38,0,0,0-.3.07,2.34,2.34,0,0,1-.21.26c-0.15.1-.35,0.13-0.51,0.24a3.5,3.5,0,0,1-.88.51c-0.15,0-.35.07-0.27,0.28a1.43,1.43,0,0,0,.31.33,0.13,0.13,0,0,0,.08,0,0.18,0.18,0,0,1-.1.21,0.39,0.39,0,0,1-.37-0.12l-0.51-.3a0.88,0.88,0,0,0,0,.54,0.75,0.75,0,0,1,.08.27,0.41,0.41,0,0,1-.15.24c-0.34.44,0.62,0.48,0.83,0.73A1.06,1.06,0,0,1,28.17,32a1.17,1.17,0,0,0-.73,0,4.24,4.24,0,0,0,1.25.49,6.4,6.4,0,0,0,.75.14,4.54,4.54,0,0,0,.67.14,5.82,5.82,0,0,0,.58,0,0.69,0.69,0,0,0,.47-0.21,0.62,0.62,0,0,1,.47-0.17,1.91,1.91,0,0,0,.52,0,0.73,0.73,0,0,0,.61-0.53,0.82,0.82,0,0,1-.14-0.74,0.52,0.52,0,0,1,.27-0.2c0.11-.06.17-0.15,0.26-0.2a0.91,0.91,0,0,1,.73,0Z"/>
    <path class="cls-1" d="M38.53,36a1.23,1.23,0,0,0-.42.17,1.6,1.6,0,0,1-.52,0,1.52,1.52,0,0,1-.85-0.49c-0.4-.48-0.59-1.1-1-1.55a1.4,1.4,0,0,1-.37-0.36,3.48,3.48,0,0,0-.85-0.09c-0.11,0-.65-0.13-0.63.09,0.17,0,1,.22.69,0.54a2.37,2.37,0,0,1-1.15.05,0.43,0.43,0,0,0-.31.4c-0.07.16-.16,0.33-0.23,0.49a1.65,1.65,0,0,0-.21,1,0.85,0.85,0,0,0,.5.12,1.61,1.61,0,0,1,.44.16,1.89,1.89,0,0,1-.66.32c-0.23.48,0.66,1,1,1.22a1.6,1.6,0,0,1,.49.45c0.13,0.3-.2.4-0.42,0.51,0,0.16.29,0.23,0.4,0.27a1.67,1.67,0,0,0,.36.09,1.37,1.37,0,0,1,.34.1,1.71,1.71,0,0,0,1.2-.13,1.16,1.16,0,0,1,.53-0.18c0.21,0,.42,0,0.62,0a3.31,3.31,0,0,0,.94-0.31,0.31,0.31,0,0,0,.24-0.32,0.93,0.93,0,0,0-.2-0.44C38.28,38,38.13,37.82,38,37.66s-0.25-.19-0.35-0.3A0.9,0.9,0,0,1,37.46,37a0.23,0.23,0,0,1,.15-0.34c0.27-.11.51-0.29,0.78-0.4Z"/>
    <path class="cls-1" d="M45.15,34c-0.29,0-.49-0.2-0.76-0.25a0.33,0.33,0,0,1,0-.13,0.81,0.81,0,0,1,.59-0.06,1.6,1.6,0,0,0,.59.19,0.64,0.64,0,0,1-.32-0.29,3.43,3.43,0,0,0-.39-0.23,7.22,7.22,0,0,0-.63-0.59c-0.12-.07-1-0.23-0.85-0.45s0.45,0,.35-0.14a2.11,2.11,0,0,0-.49-0.24,1.9,1.9,0,0,0-.5-0.05,2.21,2.21,0,0,0-.59,0c-0.13,0-.06,0-0.13.1a2,2,0,0,1-.13.26,0.69,0.69,0,0,1-.53.1,0.59,0.59,0,0,0-.42.18,0.85,0.85,0,0,0,.51.24c0.1,0,.41.13,0.29,0.3a0.56,0.56,0,0,1-.48,0,1.24,1.24,0,0,0-.67-0.15,1.45,1.45,0,0,0,.75.51c0.08,0,.29.09,0.2,0.24a0.49,0.49,0,0,1-.39.05,0.82,0.82,0,0,1,.48.21,2.78,2.78,0,0,1,.51.33,1.1,1.1,0,0,1,.14.47,0.77,0.77,0,0,0,.35.33,1,1,0,0,0,.86,0c0.13-.08.29-0.16,0.42-0.24s0.17-.23.31-0.33a0.81,0.81,0,0,1,.5-0.24Z"/>
    <path class="cls-1" d="M26,22.45c-0.35,0-.62.16-1,0.17a7.47,7.47,0,0,1-1.12-.21,1,1,0,0,0-1,.22,4.69,4.69,0,0,1-.8.75,1.15,1.15,0,0,0-.25.36,0.59,0.59,0,0,1-.36.12A3.23,3.23,0,0,0,21,24a2.26,2.26,0,0,0-.46.12,1,1,0,0,0,.34,0,1.71,1.71,0,0,1,.48.1c0.3,0.07.44,0.17,0.2,0.46a0.37,0.37,0,0,0-.05.52,1,1,0,0,0,.28.18l0.26,0.1a0.28,0.28,0,0,0,.18.11,0.26,0.26,0,0,1,0,.12c-0.26.09-.77-0.15-0.92,0.14a1.08,1.08,0,0,0,.89.3,1.77,1.77,0,0,0,1.06-.28,0.65,0.65,0,0,1,.47-0.14,1.53,1.53,0,0,0,.37,0,0.38,0.38,0,0,0,.19-0.14,0.67,0.67,0,0,1,.52-0.21,0.53,0.53,0,0,0,.4-0.21,0.57,0.57,0,0,0,.21-0.71,1.31,1.31,0,0,1-.09-0.33,1.15,1.15,0,0,1,.12-0.42,0.67,0.67,0,0,0-.06-0.4,1.07,1.07,0,0,1-.13-0.3c0-.28.31-0.24,0.47-0.33Z"/>
    <path class="cls-1" d="M36.55,19.54a1.44,1.44,0,0,1-1,.09,0.6,0.6,0,0,0-.44-0.13,0.64,0.64,0,0,0-.47.12c-0.29.2-.64,0.32-0.91,0.51a0.84,0.84,0,0,1-.56.26,3.22,3.22,0,0,0-.54,0,2.21,2.21,0,0,0-1,.63,1.36,1.36,0,0,0-.46,1,0.8,0.8,0,0,0,.64,0A0.39,0.39,0,0,1,32.12,22c0.14,0.1,0,.28-0.1.33l-0.66.43a0.93,0.93,0,0,0-.51.42,3.28,3.28,0,0,0,.63,0A1.74,1.74,0,0,1,32,23a0.6,0.6,0,0,0,.24.19,3.09,3.09,0,0,0,.26.27,1.38,1.38,0,0,0,.45.21,4.79,4.79,0,0,0,1.25.07c0.36,0,.73,0,1.08,0a1.57,1.57,0,0,0,.5-0.09,1.19,1.19,0,0,0,.46-0.36,1.62,1.62,0,0,0-.68,0c-0.11-.25.18-0.31,0.35-0.35a1,1,0,0,0,.49-0.24A4.31,4.31,0,0,0,37,21.91a1.38,1.38,0,0,1,.37-0.25,4,4,0,0,0,.45-0.36,0.92,0.92,0,0,0,.17-1,1.39,1.39,0,0,0-.67-0.4,1.81,1.81,0,0,0-.77.28c-0.09.05-.72,0.34-0.62,0a4.74,4.74,0,0,1,.61-0.43Z"/>
    <path class="cls-1" d="M41.86,24.87a2.26,2.26,0,0,0,.23,1.91l-1-.08,1.37,0.69a0.84,0.84,0,0,0-.9.84c0,0.74-1.16.78-1.16,0.78l0.13,0.48-0.8-.36,0.48,0.59c-2.21.13-2.88-.36-2.41-1,0.19-.25,0-0.55-0.4-0.92l0-.42s1,0.17,1.37.21a4.31,4.31,0,0,0-1.37-.69c0.13-.59.61-0.31,0.94-1.13a8.84,8.84,0,0,1,1.09.34A2.23,2.23,0,0,0,38,25.3l1.13-.11a0.46,0.46,0,0,0,.46-0.44,4.13,4.13,0,0,1,1-.26A1.81,1.81,0,0,1,41.86,24.87Z"/>
    <path class="cls-6" d="M71.22,55.4s0.48,2.89-2.57,6.16a11.78,11.78,0,0,0,8.09-6.84,8.06,8.06,0,0,1,.18,2.77s1.45-.39,3.77-3.68a4.07,4.07,0,0,0,.91,1.93l2-1.7A6.67,6.67,0,0,1,84,55.87a10.21,10.21,0,0,0,1.8-1.09s0,1.18-2.11,5.25c3-1.55,5.91-4.91,5.91-6.34A1.49,1.49,0,0,0,88,52.37,2.49,2.49,0,0,0,86.5,53a1.79,1.79,0,0,0-1.3-.57,2.29,2.29,0,0,0-1.48.75A0.57,0.57,0,0,0,83,52.6C82.22,52.6,78.68,55,71.22,55.4Z"/>
    <path class="cls-6" d="M75.68,65.47A34.51,34.51,0,0,1,71.56,71a2.62,2.62,0,0,0-.8-1.14,14.57,14.57,0,0,0-1.82,1.64,6.91,6.91,0,0,0-1-1.39,10.35,10.35,0,0,0-1.3,1.2s1.3-2.23,0-6.07a16.66,16.66,0,0,1-5.91,7.89c-0.2.18-.27,1.2,1.34,1.2a5.36,5.36,0,0,0,4-2,20,20,0,0,1,5.09-.11,3.06,3.06,0,0,0,1.5.82C73.38,73.1,75.88,70.44,75.68,65.47Z"/>
    <path class="cls-6" d="M17.92,21.36h-1.2V20.83s1.21,0-10.91.34A49.43,49.43,0,0,1,13.22,24a3.2,3.2,0,0,1,1.07-.39c0.43,0,.48-0.2,1-0.23s0.48-.34.48-0.34h0.8a1.24,1.24,0,0,0-.84-0.64A11.83,11.83,0,0,1,17.92,21.36Z"/>
    <path class="cls-6" d="M2.67,23.2a5,5,0,0,1,2,1.41c0,2.25,1.89,4.16,4.32,6.16H7.37a16,16,0,0,0,4,1.68,3.77,3.77,0,0,1-1.71.43s2.09,1.39,7,1.39c4.09,0,5.86-1.25,5.86-1.25l-3.32-.45S25,32,28,29.54c0,0-1.84,1.2-8.14,1.2s-9.07-1.82-9.07-1.82a20.59,20.59,0,0,0,6,.23C11.51,25.47,9,23.11,2.67,23.2Z"/>
    <path class="cls-6" d="M85.54,50.37a7.68,7.68,0,0,1,5.23,2.34s3.52-.63,5.21-2.87c-1.64.08-2.11-.23-2.11-0.57s0.38-.4,1.37-0.4h1.31s0.74-.25.86-2.55c-1.29,1.18-2.82,1.52-3.08,1s2.28-1,3-2.15A3.39,3.39,0,0,0,97,43.35C96,44.95,95.47,45.2,95,44.93c-0.65-.42,1.24-1.14,1.52-2.32l-0.91-1.1C93,46.91,88.51,45.81,85.54,50.37Z"/>
    <path class="cls-6" d="M22.76,49a4.92,4.92,0,0,1,.84-0.73l-0.18.68h0.11a2.48,2.48,0,0,1,1.3-.8,0.3,0.3,0,0,0,.16.52,16.68,16.68,0,0,0,3.23.32,1.4,1.4,0,0,0,1.27-.07,3.93,3.93,0,0,1,1.25-.27,3.85,3.85,0,0,0-1.25.77,1.61,1.61,0,0,1,.7,1.23,1.94,1.94,0,0,1-1,1.82A2.16,2.16,0,0,0,28,53.76l0.68-.43A1.74,1.74,0,0,1,27,54.89a3.62,3.62,0,0,1-1.39-.48,2.73,2.73,0,0,0-.75.64,3.2,3.2,0,0,1,1.07-1.66,2.76,2.76,0,0,0-1,.66c-1.45-.86-3.09-1-3.09-2.27a3.25,3.25,0,0,1,.45-1.32,0.65,0.65,0,0,0-.52.41l-0.07-.7L19.48,52a29.93,29.93,0,0,0,3.59,3.21A49.18,49.18,0,0,0,33.17,61c3.82,1.59,7,3.43,8.84,5.39s3.36,4.82,5,7.23,5.46,6.64,9.34,7.64l-0.8,1a23,23,0,0,0,6.66-.07L61,83.49c6.23-.64,11.32-3.46,14.16-8.84,0,0-1.07-.93-4-0.93-4.39,0-8.41,2.82-12.3,2.82s-6.61-3.43-8.73-6.71-5.82-10.71-5.82-16.14c0-8.82,6.23-9.59,6.23-9.59a121,121,0,0,0-13-2.16c12.3,0.55,26,4.07,32.51,7.32a0.66,0.66,0,0,1-.57,1.07c-0.59,0-2.43-1.25-7.09-2.82,1.14,2.23,3.89,6.14,9.18,6.14,5,0,7-3.27,13.48-3.46,0.18-3.75-1.61-4.59-5.75-6.64a40.76,40.76,0,0,0-7.28-2.84l-0.17,0a25.94,25.94,0,0,1,4,2.64l-0.48.27a14,14,0,0,1,2.85,2.8,12.91,12.91,0,0,1-4.35,1,0.58,0.58,0,0,1-.64.5c-0.41,0-2-.82-5.71-2.43a111.54,111.54,0,0,0-27.26-6.93s2.17,0.66,3,1a5.72,5.72,0,0,0-2.07-.17l1,0.61a53.38,53.38,0,0,0-10.33.55s2.51,0.72,3.5,2a23.76,23.76,0,0,0-2.52.17,2.57,2.57,0,0,1,.25.73,2.67,2.67,0,0,1-.82.8H32.8v1.55s-0.86,1.23-3.27.61l0.09-.39-1.43.14a9.8,9.8,0,0,0,1.48-.86s-1.47.61-1.79-.17c0,0-4.87,1.2-7.21,3.12a7.47,7.47,0,0,1,2.08.66"/>
    <path class="cls-6" d="M55.12,27.41s-4.33.72-6.47,4.22l0.34-.1s1.87-2.1,6.93-2.1c5.88,0,9.66,3.32,13,3.78a5.28,5.28,0,0,1-3.21-2.42,1.39,1.39,0,0,0,0,.94c-2.42-1.36-3.84-1.89-4-4a1.91,1.91,0,0,0-.57,1.41l-0.4-.31a0.75,0.75,0,0,0,.55.74c0.23,0.11-.11.42-0.11,0.42a4.7,4.7,0,0,1-1.37-.48s0.5,0,.32-0.23a6.12,6.12,0,0,1-.8-0.92c-0.31-.38.52-0.19,0.52-0.19a1.46,1.46,0,0,0-1-.53,0.53,0.53,0,0,1,.52-0.19c0.34,0.06-.08-0.36.38-0.5a2.79,2.79,0,0,0,1.51-1.26c0.31-.48.86,0.13,0.86,0.13a1.21,1.21,0,0,0-1.37-.8,4.45,4.45,0,0,0-2.46.8l0.85,0.43a1.66,1.66,0,0,1-.82-0.13c-0.46-.19-0.76.38-0.76,1,0,0.84,1,1,1,1.49s-0.08.84-.44,0.38l0,0.42c-0.94-.69-1.76-0.65-2.33-1.64l0.67,0.27a1.44,1.44,0,0,0-.8-0.63s-0.11-.31.1-0.31l0-.84h-1.7v0.17Z"/>
    <path class="cls-2" d="M65.88,33.57V33.42l-2.58-.8-0.06.23a0.54,0.54,0,0,1,.15.44,0.86,0.86,0,0,1-1,.82,0.89,0.89,0,0,1-.94-1s0.71,0,.71-0.44c0-.67-2.79-1.37-6.43-1.24,3.15,2.42,5,3.38,6.32,3.38A9.92,9.92,0,0,0,65.88,33.57Z"/>
    <path class="cls-6" d="M61.51,33.12s0.71,0,.71-0.44-1.14-.87-2.92-1.1C59.29,31.58,60.46,32.31,61.51,33.12Z"/>
    <path class="cls-6" d="M53,31.17a7.67,7.67,0,0,0-1.7,0,5.38,5.38,0,0,0,1.18,1.68s-0.8-.06-1.16-0.13A10.17,10.17,0,0,0,59.6,36l-0.53.29a13.21,13.21,0,0,1,4.16.88C57.88,33.65,58.2,35.14,53,31.17Z"/>
    <path class="cls-1" d="M41.12,48.87a4.27,4.27,0,0,0-1.25.27s-0.82-1.68-2-1.68a7.82,7.82,0,0,0-3,1.16L35,48.19c-2,0-2.52.11-2.52,0.86s0.8,0.84,1.68,1.66A1.35,1.35,0,0,1,35,50.33l-1.09,1a1.31,1.31,0,0,1,1.46,0c0.77,0.52,2.57-.07,3.27-0.48a1.81,1.81,0,0,1-.68.75s1.64,0.5,2.36-.41a1.71,1.71,0,0,0-.25-1.64A3.51,3.51,0,0,1,41.12,48.87Z"/>
    <path class="cls-1" d="M37.33,54.44c-1.66.5-3.48,0.07-5.43,0l0.27-.36a3.87,3.87,0,0,0-1.11.36c-0.5.27-1.64,0.36-1.64,1.34a1.78,1.78,0,0,0,.68,1.32l0.64-.7a1,1,0,0,1-.16.75c2.3,1.48,4.86.61,5.89,1.66l1.2-.82a2.55,2.55,0,0,1-.57,1.23,2.62,2.62,0,0,0,2,1,1,1,0,0,0,1.27-1.14l0.3-.34-0.45,0a1.3,1.3,0,0,0-.16-0.91s0.18-.2.73,0.18a0.68,0.68,0,0,0,.45-0.3l0.25-.3-0.27,0c-0.18-1.39-1.27-2.07-2-1.77A1.13,1.13,0,0,0,38,54.74c-0.39,0-1.14.45-1.7,0.45Z"/>
  </g>
</svg>
