<svg id="Layer_1" data-name="Layer 1" xmlns="http://www.w3.org/2000/svg" viewBox="0 0 100 100">
  <defs>
    <style>
      .cls-1 {
        fill: #fff;
      }

      .cls-2 {
        fill: #b21e35;
      }

      .cls-3 {
        fill: #06192e;
      }
    </style>
  </defs>
  <g>
    <path class="cls-1" d="M72.59,21.43c20.33,15.47,4.86,17.79-11,20,0,0-6.7-1.85-18.31-7.61-26.32-13.08-18-19.24,2.65-23C12.8-3.54-14.8,21.58,15.65,46L7.3,52c6.87,4.21,21.08,13,19,26.55l-7.06,5,21.55,9.77,17-7.7c0.13-7.49,13.5-11.37,19.26-26.6,31.68-7.27,23.61-35.15-4.49-37.61h0Z"/>
    <path class="cls-2" d="M78.3,23.85C92,34.54,82.48,41.36,65.83,43.22c4.21,17.75-8.7,34-22.37,46.6L56,84.13c0.93-7.21,13.64-11,19.67-27C104,50.85,99.35,30.54,78.3,23.85h0Z"/>
    <path class="cls-3" d="M58.11,42.9c-39.77-15.36-42.41-28-17.58-32.32C9.47,2.14-8.63,24.64,22.09,46.1L13.84,52c8.76,5.85,18,14.51,14.88,28.14l-4.15,3,16,7.23C55.37,74.07,63.14,58.28,58.11,42.9h0Zm-10,24.74L42,60.69l-7,1,3.25-5.35-6.11-7,8.11,3.66,3.23-5.34,1.77,7.59L53.33,59l-7,1,1.78,7.6h0Z"/>
    <path class="cls-3" d="M58.11,42.9c-39.77-15.36-42.41-28-17.58-32.32C9.47,2.14-8.63,24.64,22.09,46.1L13.84,52c8.76,5.85,18,14.51,14.88,28.14l-4.15,3,16,7.23C55.37,74.07,63.14,58.28,58.11,42.9h0Zm-10,24.74L42,60.69l-7,1,3.25-5.35-6.11-7,8.11,3.66,3.23-5.34,1.77,7.59L53.33,59l-7,1,1.78,7.6h0Z"/>
    <path class="cls-2" d="M78.3,23.85C92,34.54,82.48,41.36,65.83,43.22c4.21,17.75-8.7,34-22.37,46.6L56,84.13c0.93-7.21,13.64-11,19.67-27C104,50.85,99.35,30.54,78.3,23.85h0Z"/>
    <path class="cls-1" d="M57.83,89.93l0.66-1.71h0.63v2.33H58.7V88.65h0L58,90.54H57.68L57,88.65h0v1.89H56.53V88.22h0.63l0.66,1.71h0Zm-1.7-1.37H55.41v2H55v-2H54.29V88.22h1.84v0.34h0Z"/>
  </g>
</svg>
