<svg id="Layer_1" data-name="Layer 1" xmlns="http://www.w3.org/2000/svg" viewBox="0 0 100 100">
  <defs>
    <style>
      .cls-1 {
        fill: #2296cf;
      }

      .cls-1, .cls-2, .cls-3, .cls-4 {
        fill-rule: evenodd;
      }

      .cls-2 {
        fill: #fff;
      }

      .cls-4 {
        fill: #cfd1d4;
      }
    </style>
  </defs>
  <g>
    <path class="cls-1" d="M76.12,76.7l-4.79-.09c-7.89-.2-18.89-4.71-18.89-4.71L43.81,68.4A67,67,0,0,0,26,64l-0.48,0c-17.73-1-25,2-25,2C21.89,40.55,39.36,34.57,39.36,34.57,36.53,31.25,36.28,29,36.28,29c-0.26-2.32,2.23-2,2.23-2a21,21,0,0,0,5.86-.67c3.25-1,8-1.91,8-1.91A76.21,76.21,0,0,1,65.89,23.3c9.11-.35,18.26,3,18.26,3,2,1,5.94,1.27,5.94,1.27,1.31-.14,1.24.42,1.24,0.42,0.18,3.14-2.58,5.41-2.58,5.41a3.56,3.56,0,0,1,.5,2.26c5.33,0.39,7.56,2,7.56,2a28.2,28.2,0,0,0-7.63-1.24c-0.18,1.48-.28,1.34-0.28,1.34C96.1,38,98.57,40,98.57,40a29,29,0,0,0-9.82-1.52c-0.28,1.1-.37,1.42-0.37,1.42C98,41,99.5,43.08,99.5,43.08,92.59,40.39,88,40.83,88,40.83a38,38,0,0,1-9,14.53,11.41,11.41,0,0,1,.26,3.71s-0.2,7.06-5.37,8.57l0,0.1a65.23,65.23,0,0,1,2.15,9"/>
    <path class="cls-2" d="M69.63,31.22c-2.18-.07-5-0.69-7.82-0.53-0.27-.34.24-0.74,0.26-1.19a16,16,0,0,0-3.18-.27A10.57,10.57,0,0,1,69.63,31.22Z"/>
    <path class="cls-2" d="M85.27,31.09c-1.59,0-4-.05-5,0.93C79.8,29.67,84.14,29.8,85.27,31.09Z"/>
    <path class="cls-2" d="M80.37,34c-1.55,1.1-3.2,2.11-4,4-0.77-2.23-2.57-3.44-4.64-4.38C74.3,32.66,78.13,33.12,80.37,34Z"/>
    <path class="cls-2" d="M80.76,42.63c-0.68,2.5-1.5,4.86-3,6.5,0.1-1.29.83-3.44,0.4-5.3-1.53-.83-4.46-0.54-6.23-0.13a59.23,59.23,0,0,1-3.18,5c-0.35.42-.75,1.11-1.19,0.93a10.57,10.57,0,0,0,.66-7C71.25,41.07,77.71,40.95,80.76,42.63Z"/>
    <path class="cls-2" d="M76.52,54.82c2.45,5-3.88,6.54-7.69,4.91a19.36,19.36,0,0,0,2.25-4.51,5.3,5.3,0,0,1,.13,3.32C74.32,59.58,76.51,57.73,76.52,54.82Z"/>
    <path class="cls-2" d="M66,34.4a5.79,5.79,0,0,1-1.19.93,49.24,49.24,0,0,0-16.18-.93c-0.2-.07,0-0.14.13-0.13A44.63,44.63,0,0,1,66,34.4Z"/>
    <path class="cls-2" d="M63.79,36.39c0,0.5-.5.56-0.53,1.06-4.21-.77-10.88-0.3-14.32,0A47.45,47.45,0,0,1,63.79,36.39Z"/>
    <path class="cls-2" d="M62.73,39.44a129.08,129.08,0,0,0-13.52,1.19c0.33,0-.81.35,0,0,2.88-1.14,7.61-1.72,11.27-1.86C61.21,38.75,62.79,38.11,62.73,39.44Z"/>
    <path class="cls-2" d="M45.49,43.69c1.36,7,6.06,10.84,12.07,13.39,0.2,0.09.78,0,.66,0.4C50.59,56.35,44.33,53.17,45.49,43.69Z"/>
    <path class="cls-3" d="M65.91,48.86c-2.38,7-.35,17,7.69,16.18a6.11,6.11,0,0,0,5.3-4.38C78.5,64.89,76.12,68.3,70.69,68a44,44,0,0,1,5.44,8.75c-19.1.53-29-9.29-45.21-12.07,1.7-6.74,5.48-11.4,9.94-15.38A37.61,37.61,0,0,0,25.47,64,91.65,91.65,0,0,0,9,64.24c7.92-13.87,20.45-23.13,34.61-30.76-2.72.89-3.79-.55-5.17-2.39-0.86-1.15-1.85-2.27-1.72-3.31,4.65,0.28,12.17,1.29,14.72-2,6-2.71,16.75-2.3,19.49,3,0.18-3.06-3.45-3.43-5.17-5C71.69,24.61,78.06,25,80.5,29.23a6.88,6.88,0,0,1,8.09,3,5.88,5.88,0,0,0-2.39-3.85,23.39,23.39,0,0,1,5.17-.53C91.48,30,90,31.53,88.72,32.68,85.91,32.13,82,32.09,80.63,34c3.15,0.56,4.68,5.54,2,7.82,2.42-.5,3.5-4.91,1.72-6.5,5.37,2.19,1.38,9.19-.66,12.86A54.68,54.68,0,0,1,79,55.35a12.94,12.94,0,0,1,.26,3.71c-0.13-5.17-5-9.08-2.25-14.19-4.69,3.85,1.62,8.66.8,13.39-0.55,3.15-6,4.72-9.28,2.92S65.11,53.26,65.91,48.86Z"/>
    <path class="cls-4" d="M58.89,29.23a16,16,0,0,1,3.18.27c0,0.46-.54.86-0.26,1.19,2.86-.16,5.64.46,7.82,0.53A10.57,10.57,0,0,0,58.89,29.23Z"/>
    <path class="cls-4" d="M80.23,32c1-1,3.45-.9,5-0.93C84.14,29.8,79.8,29.67,80.23,32Z"/>
    <path class="cls-1" d="M71.75,33.61c2.07,0.93,3.87,2.14,4.64,4.38,0.78-1.87,2.42-2.88,4-4C78.13,33.12,74.3,32.66,71.75,33.61Z"/>
    <path class="cls-1" d="M48.81,34.27c-0.14,0-.34.06-0.13,0.13a49.24,49.24,0,0,1,16.18.93A5.79,5.79,0,0,0,66,34.4,44.63,44.63,0,0,0,48.81,34.27Z"/>
    <path class="cls-1" d="M48.94,37.45c3.44-.3,10.11-0.77,14.32,0,0-.5.5-0.56,0.53-1.06A47.45,47.45,0,0,0,48.94,37.45Z"/>
    <path class="cls-1" d="M60.48,38.78c-3.66.13-8.39,0.72-11.27,1.86-0.81.35,0.33,0,0,0a129.08,129.08,0,0,1,13.52-1.19C62.79,38.11,61.21,38.75,60.48,38.78Z"/>
    <path class="cls-4" d="M68.17,42.63a10.57,10.57,0,0,1-.66,7c0.44,0.19.85-.5,1.19-0.93a59.23,59.23,0,0,0,3.18-5c1.77-.41,4.7-0.7,6.23.13,0.43,1.87-.3,4-0.4,5.3,1.55-1.63,2.37-4,3-6.5C77.71,40.95,71.25,41.07,68.17,42.63Z"/>
    <path class="cls-1" d="M58.22,57.48c0.12-.38-0.46-0.31-0.66-0.4-6-2.55-10.71-6.43-12.07-13.39C44.33,53.17,50.59,56.35,58.22,57.48Z"/>
    <path class="cls-4" d="M71.22,58.54a5.3,5.3,0,0,0-.13-3.32,19.36,19.36,0,0,1-2.25,4.51c3.81,1.63,10.14.12,7.69-4.91C76.51,57.73,74.32,59.58,71.22,58.54Z"/>
    <path class="cls-1" d="M63.8,28.63a9.73,9.73,0,0,0-5.18.65,21.35,21.35,0,0,1,3.44.28A1.84,1.84,0,0,1,63.8,28.63Z"/>
  </g>
</svg>
