<svg id="Layer_1" data-name="Layer 1" xmlns="http://www.w3.org/2000/svg" viewBox="0 0 100 100">
  <defs>
    <style>
      .cls-1 {
        fill: #3c1e5e;
      }

      .cls-2 {
        fill: #fff;
      }

      .cls-3 {
        fill: #eec6a5;
      }

      .cls-4 {
        fill: #eebf1b;
      }
    </style>
  </defs>
  <g>
    <path d="M79.16,55.61c0.17-.94.7-2,0.25-3,0.5-.28,1.06-0.56,1.61-0.84a4.46,4.46,0,0,0-2.27-3.85s0.93-.32.49-2.2c-2.55.21-1.89-2.66-2.59-4.09a4.43,4.43,0,0,0,2-5.31A4,4,0,0,1,76,38.58c-5.85-15.17-20.77-19-29.62-18.49a12.06,12.06,0,0,1-.77,3.07c-6.43-1.68-6.26-8.71-9.3-13.11-0.72-1-2.64-3.44-4.84-3.85a0.41,0.41,0,0,0-.55.42c4.55,3.08,5,8.29,5.45,13.32,0.37,4.23,3,6.64,5.79,8.7a4,4,0,0,0-.51.88A13.62,13.62,0,0,1,30.81,28c-6-3.94-4.53-11.45-6.19-17.38C24.12,9,23.33,6.92,21.75,6.1c-0.5-.27-1,0-0.74.35A10.51,10.51,0,0,1,23.11,12c0,5.32-1.26,11,.78,16,3,6.77,8.65,11.66,15.48,13.1a23.82,23.82,0,0,0,.42,6.71c-7.32,4-13,8.12-22.4,22.66-0.29.59,0,1.15,0.78,0.41,9.21-8.56,24.41-12.8,33.94,1.46C56.7,79.51,56.3,84.6,56,89.35c0,1.65-1,3.95.49,4.58s3.19-3.36,3.19-3.92a2.68,2.68,0,0,0,.54-1.6,3,3,0,0,0,.43-2c1-1.13,1.81-4,.75-5.62A8.22,8.22,0,0,0,61.22,76c0.33-1.44.67-4.72-.52-6.22a17.87,17.87,0,0,1,6.21-4.47C67.47,69.56,68.3,75,64.6,77.85c-0.25.17-.21,0.45,0.25,0.33,6-2,7.22-13.35,7.64-14.76,2-1,7.63-2.56,9.33-3.18s0.55-3.07-.15-3.91A3.8,3.8,0,0,0,79.16,55.61Zm-0.92-9.47,0.08,0.65c-1.22.3-3.05,1.49-3.45,0.69s1.25-.83,1.53-1.18A0.4,0.4,0,0,0,76,45.71a7,7,0,0,0-1.71.14A2.45,2.45,0,0,0,74,48.49a14.9,14.9,0,0,0-4.12,3.34c-0.42-2.1,1.12-3.6,2.66-4.69,0.35-.33.14-2.45-0.14-3.53-0.29-.12-0.78,0-0.82-0.24s1.92-.28,2.72-0.32a1,1,0,0,1,1.87-.78C76.73,43.56,76.31,45.93,78.24,46.14Zm-0.09-8a3.3,3.3,0,0,1-1.68,2.45c-2.55,1.12-5.94-.52-8.29,1.08A2.07,2.07,0,0,1,70,39.51C73.34,39.37,75.73,40.46,78.14,38.16Zm-3.53.42a41.78,41.78,0,0,0-13.76,1.71c-0.63,6.44-8.23,8.85-12.68,3.92A43.19,43.19,0,0,0,41.4,46.9c-0.63-.84-1.16-2.89-0.19-3.35a14.42,14.42,0,0,1,3.7-1.64,9.58,9.58,0,0,1,3.88.57c5.06,3,10.21,3.12,11.51-5.89A48,48,0,0,1,73,35.4,13.27,13.27,0,0,1,74.61,38.58ZM40.8,42.46V41.34l1.92,0.28A13.42,13.42,0,0,0,40.8,42.46ZM47.2,21c19.54,0.5,25.17,13.43,25.17,13.43A46.12,46.12,0,0,0,60,35.57c-2-5.13-5.08-7.24-16.78-6.22C44.85,26.42,46.8,24.5,47.2,21Zm-8.15,3.11a18.66,18.66,0,0,1-1.93-6.52c0-.09.07-0.09,0.11-0.06a9.21,9.21,0,0,0,1,3.16c0.1,0.1.29,0.06,0.24-.12a20.84,20.84,0,0,1-1-4c0-.07.1-0.15,0.14,0a14.61,14.61,0,0,0,1.38,3,0.15,0.15,0,0,0,.26-0.1c-0.17-.51-0.55-1.49-0.68-2-0.07-.16.07-0.1,0.12-0.06a10.46,10.46,0,0,0,4.77,5.78c0.74,0.51.49,2.58-1.19,2.94C40.8,26.34,39.72,25.15,39.05,24.07Zm2.08,13.68c-0.41-.53-2.25.91-2.49,0.65s0.83-.49.59-0.66c-0.63-.42-1.7.42-1.85,0.24s0.4-.24.24-0.49c-0.44-.45-2,0.44-2.17.18s1.16-.42.91-0.77c-0.42-.4-1.71.46-3.6-0.4-7-3.7-8.89-11.07-9.1-14.14,0-.1,0-0.13.09,0,0.55,2.69,1.62,6.42,4,8.3A0.13,0.13,0,0,0,28,30.43c-2.59-2-3.57-6.63-3.69-10.59,0-.15,0-0.17.09,0,0.18,3,1,6.61,3.43,8.88A0.12,0.12,0,0,0,28,28.51c-2.34-2.8-3-6.36-3-9.79,0-.14.11-0.09,0.1,0a13.14,13.14,0,0,0,5.34,10.18c6.26,4.71,16.71-.27,22.64,1.73,8.87,2.6,6.1,10.4,3.44,11.76-0.61-.63-1,0.24-1.26.1s0.31-.43,0-0.64-0.74.36-1,.23,0.31-.42.06-0.58c-0.53-.35-1.16.75-1.43,0.58s0.9-.68.46-1.05-1.36.73-1.61,0.53,1.6-1.15.84-1.5c-0.42-.21-1.74,1.17-2,0.91s1.62-1,1.1-1.34-2.69,1.36-3,1.1S50.52,39.4,50,39s-2.8,1.85-3.21,1.45,1.84-1.1,1.31-1.62-2.68,1.7-3.27,1.27c-0.27-.18,2.2-1.16,1.54-1.66s-3.23,1.74-3.46,1.41,2.18-1.16,1.85-1.57c-0.66-.63-3.05,1.46-3.36,1.15s1.88-1,1.49-1.32c-0.66-.47-2.87,1.26-3.09.9S41.63,38.41,41.13,37.75ZM24.93,64.64a32.14,32.14,0,0,0-5.17,4.15c-0.17.12-.24-0.08-0.08-0.29C30.8,51.89,44.07,46.57,47.3,45.74c0.63-.12.57,0.23,0.32,0.39-6.09,2.35-16.22,8.39-20.55,15.7A8.17,8.17,0,0,1,24.93,64.64Zm8.39-2.52C31,62.79,29,63.3,27,64c-0.18.08-.49,0-0.37-0.2,4.76-8.6,13.53-13.76,22-17.44,0.25-.12.43,0.16,0.22,0.24-6.24,3-10.76,9.09-14.51,14.77A2.74,2.74,0,0,1,33.32,62.12Zm2.25-.21a0.48,0.48,0,0,1-.22-0.68c4-4.93,7.16-11.19,13.28-13.71a2.72,2.72,0,0,1,1.64-.27,8.53,8.53,0,0,0,5.7.58,8.1,8.1,0,0,0,5.57-6.32,26,26,0,0,1,3.78-.84c-1.43,8.29-13,11.71-13.43,20.38a7.53,7.53,0,0,1-8.35-6,17,17,0,0,1-4,5.45C38.4,61.4,36.73,62.28,35.57,61.91ZM58,72.25a7.45,7.45,0,0,0-2.34-1.61c-0.1-3.22,2.11-6.87,2.84-8,0.28-.45.58-0.15,0.74,0.43C60.85,68,58.4,70,58,72.25Zm2.1-1.85c0.79,0.5.38,4.53-.49,6.61a16.11,16.11,0,0,0-1.74-2C58.41,73.66,59.73,70.23,60.1,70.4Zm-1.33-16A3.06,3.06,0,0,0,58.1,54c-0.22.13,0.57,1.26,0.57,1.26,0,6.69-3.52,8.09-3.5,12.17a11.17,11.17,0,0,0-2.56-1.73c-1.61-6.31,6.17-14.67,6.61-14.3A8.36,8.36,0,0,1,58.77,54.35ZM39.17,61.8a11.77,11.77,0,0,0,4-4.65c0.21,0.53.53,1.11,0.73,1.61-0.94,1.16-2.33,2.75-3.72,3.26C39.65,62.1,38.84,62.12,39.17,61.8Zm9.17,4.43a18.77,18.77,0,0,0-7.11-3.8,17.45,17.45,0,0,0,3.18-3c0.13,0.12.33,0.34,0.43,0.45a6.2,6.2,0,0,0,3.58,5.95C48.79,65.94,48.54,66.44,48.33,66.23Zm-2.57-5.59a9.3,9.3,0,0,0,5.94,1.68v3C45.88,64.68,45.77,60.64,45.77,60.64Zm6,9.07c-0.62-.37-3.1-2.69-2.19-3.44,1-1,5.28,1.85,5.28,1.85a13.76,13.76,0,0,0-.14,2.1A8.7,8.7,0,0,1,51.8,69.71Zm1.83,3.21c-0.31-.59-0.93-1.31-0.58-1.77,0.57-.52,3.19.37,4.53,1.84-0.14.66-.33,1.12-0.49,1.78C55.76,74.56,54.33,74.31,53.63,72.91Zm2.27,4.51c-0.28-.5-0.69-1.62-0.25-2s2.86,0.82,3.63,2.22a2.27,2.27,0,0,1-.76,1.57A4.46,4.46,0,0,1,55.9,77.42Zm3.6,4.79a1.29,1.29,0,0,1-.6,1.11c-0.24.07-2.13-1-2.27-2.11-0.11-.56-0.17-1.58.11-1.69C57.27,79.38,59.09,81.06,59.51,82.22ZM56.67,93.3c-0.58-.33-0.24-1.63.17-2.34a7.7,7.7,0,0,1,1,1C57.69,92.29,57.24,93.53,56.67,93.3Zm1.47-2a6,6,0,0,0-1.3-1.34c-0.21-.21,0-0.71.14-0.66A3.23,3.23,0,0,1,58.42,91C58.47,91.19,58.33,91.4,58.15,91.28ZM58.68,90A11.91,11.91,0,0,0,57,88.31c-0.27-.16,0-0.66.32-0.59a3.53,3.53,0,0,1,1.58,2C59,90,58.76,90.1,58.68,90Zm0.47-1.34A10.92,10.92,0,0,0,57,86.27c-0.37-.29.27-0.91,0.52-0.7C58.56,86.38,59.82,88.13,59.15,88.68Zm0.41-1.45a6.72,6.72,0,0,0-2.39-2.92c-0.37-.21-0.33-1.1,0-1a4.89,4.89,0,0,1,2.73,3.14C60,86.9,59.76,87.6,59.56,87.23ZM61,81.81c0.4,0.3.09,2.47-.64,3.45L59.44,84C59.93,83.23,60.7,81.63,61,81.81Zm-1.06-.19c-0.17-.73-0.61-1.12-0.82-1.79,0.17-.25,1.34-2.8,1.59-2.72C61.12,77.33,60.68,80.42,59.93,81.62Zm0.7-12.9c0.66-2.76-.42-5.21-1.43-7.48,0.36-1.79.44-3.29,0.66-5.09A0.45,0.45,0,0,1,60.62,56c0.49,4,2.13,5.4,5.7,5.21l0.24,2.69C64.3,64.8,62.37,66.76,60.62,68.72Zm5.75-8.79c-3.3,1-5.2-1-4.91-5.58-0.4-.63-1.47.8-1.61,0.35,0-4.78,2.06-5,2.86-6.17a3.11,3.11,0,0,1,2.06,1c1.28,2,1,4.41,1.73,6.65,0.19,0.4.56,0,.56,0-0.84-3.08.07-7.45-3.67-8.74a18.82,18.82,0,0,0,2.72-6.72,1.09,1.09,0,0,1,1.05-.23,10.82,10.82,0,0,0-.35,2.87c0.08,0.65,1.31-.78,2-1.12a7.39,7.39,0,0,1,4-.18c0.29,0,.25.33,0,0.37-1.36.14-3.46,0.41-3.57,1,0,0.44,1.57.87,2.52,0.91A4.55,4.55,0,0,1,72,46a5.2,5.2,0,0,0-2.72,6.71A23.07,23.07,0,0,0,66.37,59.93Zm6,1.13c-1.51,4.58-2.19,10.66-4.14,13.31,0,0.05-.14,0-0.1-0.06,2.29-4.57,1.87-8.67,3.22-13.07,0.07-.17-0.11-0.38-0.26-0.13-1.53,2-1.8,10-3.09,12.52,0,0.09-.19.11-0.14-0.07,1.54-5.81.33-11.39,2.72-15.84,0.09-.16-0.18-0.41-0.42-0.14a19.61,19.61,0,0,0-1.94,10.34c0,0.25-.19.29-0.22,0-0.66-5.35-1.19-10.69,2.58-15.32,1.59-1.95,4-3.75,5.56-4.16a3.33,3.33,0,0,1,4.27,2.73C76,52.43,73.65,57.19,72.37,61.06Zm1.24,0.38a0.42,0.42,0,0,1,0-.67c1.3-.36,5-1.2,5.18-0.8A28.77,28.77,0,0,1,73.61,61.44Zm8.06-2.3a29.79,29.79,0,0,0-7.8.66c0.45-2.72,4.07-6.84,4.79-6.44s-0.8,2.31,0,2.89c0.64,0.37,1.38.12,1.91,0.32C81.78,57.11,82.06,59,81.67,59.14Z"/>
    <path class="cls-1" d="M60.29,36.59c-1.29,9-6.45,8.93-11.51,5.89a9.59,9.59,0,0,0-3.88-.57,14.39,14.39,0,0,0-3.7,1.64c-1,.46-0.44,2.51.19,3.35a43.19,43.19,0,0,1,6.78-2.69c4.45,4.94,12,2.52,12.68-3.92a41.78,41.78,0,0,1,13.76-1.71A13.26,13.26,0,0,0,73,35.4,48,48,0,0,0,60.29,36.59Z"/>
    <g>
      <path class="cls-2" d="M82.43,55.7a3.17,3.17,0,0,0-2-1,4.59,4.59,0,0,0,.16-1.63l0.91-.47A1,1,0,0,0,82,51.82a5.25,5.25,0,0,0-1.86-4.09,3.68,3.68,0,0,0,.06-2.25,1,1,0,0,0-1-.76c-0.72.06-.89-0.07-1.14-1.7-0.05-.33-0.11-0.67-0.19-1a5.31,5.31,0,0,0,1.77-6.09,1,1,0,0,0-1.78-.11,4.67,4.67,0,0,1-1.27,1.5,28.73,28.73,0,0,0-13.8-14.74A33.72,33.72,0,0,0,46.3,19.1a1,1,0,0,0-.93.87,16,16,0,0,1-.38,2c-3.17-1.23-4.29-4.2-5.48-7.33a23.48,23.48,0,0,0-2.41-5.11c-1-1.41-3-3.81-5.47-4.26-1.94-.17-2,1.8-1.28,2.22,4.18,2.83,4.61,7.79,5,12.59,0.37,4.21,2.79,6.74,5.28,8.72a12.69,12.69,0,0,1-9.3-1.61h0c-3.84-2.52-4.41-6.59-4.83-11.11a43,43,0,0,0-1-5.74c-0.63-2-1.51-4.09-3.34-5a1.58,1.58,0,0,0-2,.24A1.23,1.23,0,0,0,20.21,7c1.94,2.65,2.06,5,1.89,7.65-0.82,7.18-.43,10.83,1.32,14.72,4.09,7.89,10.28,11.27,14.9,12.4a24.68,24.68,0,0,0,.37,5.41c-6.62,3.64-12.6,7.91-22.13,22.66-0.78,1,.18,3.37,2.29,1.68,5.83-5.41,13-8.21,19.31-7.48,5.23,0.61,9.65,3.56,13.13,8.75,4.33,6.83,4.12,12.28,3.58,17.9-0.14,1.43-.53,3.37,1.24,4.13a2,2,0,0,0,2-.23,8.11,8.11,0,0,0,2.54-4.17,3.72,3.72,0,0,0,.58-1.65,4.24,4.24,0,0,0,.47-2.08c1-1.47,1.7-4.15.81-6.06a9.71,9.71,0,0,0-.23-4.73c0.18-1,.64-4-0.32-6a16.87,16.87,0,0,1,4.17-3.12c0.31,3.78,1,7.56-2.12,10.26-0.78.62-.73,2.54,1.17,2,5.77-1.87,7.61-11.54,8.18-15,1.42-.63,8.23-2.72,8.81-2.94a2.28,2.28,0,0,0,1.48-1.58C84,58.15,83,56.41,82.43,55.7Zm-0.62,4.54c-1.69.62-7.34,2.15-9.33,3.18-0.41,1.41-1.68,12.77-7.64,14.76-0.45.13-.5-0.16-0.25-0.33,3.71-2.9,2.87-8.29,2.31-12.52A17.88,17.88,0,0,0,60.7,69.8c1.19,1.5.85,4.77,0.52,6.22a8.22,8.22,0,0,1,.19,4.75c1.06,1.65.21,4.49-.75,5.62a3,3,0,0,1-.43,2,2.68,2.68,0,0,1-.54,1.6c0,0.56-1.6,4.61-3.19,3.92S56,91,56,89.35c0.29-4.75.69-9.84-3.9-17.07-9.54-14.26-24.73-10-33.94-1.46-0.79.73-1.07,0.17-.78-0.41,9.4-14.54,15.07-18.7,22.4-22.66A23.84,23.84,0,0,1,39.37,41c-6.82-1.44-12.44-6.33-15.48-13.1-2-5-.75-10.64-0.78-16A10.52,10.52,0,0,0,21,6.45c-0.24-.33.24-0.62,0.74-0.35,1.58,0.82,2.37,2.93,2.86,4.47C26.28,16.5,24.79,24,30.81,28a13.62,13.62,0,0,0,10.83,1.57,4,4,0,0,1,.52-0.88c-2.76-2.07-5.43-4.47-5.79-8.7-0.44-5-.91-10.24-5.45-13.32a0.41,0.41,0,0,1,.55-0.42C33.65,6.61,35.57,9,36.29,10c3,4.41,2.87,11.43,9.3,13.11a12.06,12.06,0,0,0,.77-3.07C55.21,19.6,70.12,23.41,76,38.58a4,4,0,0,0,2.69-2.27,4.43,4.43,0,0,1-2,5.31c0.7,1.43,0,4.3,2.59,4.09,0.44,1.88-.49,2.2-0.49,2.2A4.46,4.46,0,0,1,81,51.76c-0.54.28-1.11,0.56-1.61,0.84,0.46,1-.07,2.06-0.25,3a3.79,3.79,0,0,1,2.51.71C82.35,57.17,83.58,59.56,81.81,60.24Z"/>
      <path class="cls-2" d="M43.42,23.16a10.47,10.47,0,0,1-4.77-5.78c-0.05,0-.19-0.11-0.12.06,0.12,0.5.5,1.48,0.68,2a0.15,0.15,0,0,1-.26.1,14.63,14.63,0,0,1-1.38-3c0-.12-0.1,0-0.14,0a20.84,20.84,0,0,0,1,4c0,0.19-.14.23-0.24,0.12a9.21,9.21,0,0,1-1-3.16s-0.1,0-.11.06a18.66,18.66,0,0,0,1.93,6.52c0.66,1.08,1.75,2.27,3.18,2C43.92,25.75,44.17,23.67,43.42,23.16Z"/>
      <path class="cls-2" d="M42.88,38.1c0.4,0.31-1.77,1-1.49,1.32s2.7-1.79,3.36-1.15c0.33,0.42-2.06,1.3-1.85,1.57s2.82-1.78,3.46-1.41-1.82,1.48-1.54,1.66c0.59,0.43,2.77-1.76,3.27-1.27s-1.63,1.37-1.31,1.62S49.34,38.54,50,39s-1.71,1.5-1.47,1.69,2.58-1.34,3-1.1-1.32,1.14-1.1,1.34,1.61-1.12,2-.91c0.76,0.35-1.22,1.23-.84,1.5s1-1,1.61-.53-0.67.91-.46,1.05,0.9-.93,1.43-0.58c0.24,0.15-.24.5-0.06,0.58s0.71-.36,1-0.23-0.23.47,0,.64,0.65-.74,1.26-0.1c2.66-1.36,5.43-9.16-3.44-11.76-5.94-2-16.39,3-22.64-1.73a13.15,13.15,0,0,1-5.34-10.18s-0.08-.09-0.1,0c0,3.43.66,7,3,9.79a0.12,0.12,0,0,1-.18.17c-2.41-2.27-3.25-5.88-3.43-8.88-0.05-.13-0.1-0.12-0.09,0,0.13,4,1.11,8.56,3.7,10.59a0.13,0.13,0,0,1-.18.18c-2.43-1.87-3.5-5.6-4-8.3-0.06-.08-0.07-0.05-0.09,0,0.21,3.07,2.08,10.44,9.1,14.14,1.89,0.86,3.19,0,3.6.4,0.25,0.35-1,.58-0.91.77s1.72-.63,2.17-0.18c0.15,0.24-.35.32-0.24,0.49s1.22-.66,1.85-0.24c0.23,0.17-.74.54-0.59,0.66s2.08-1.18,2.49-.65-1.54.92-1.34,1.25S42.22,37.63,42.88,38.1Z"/>
    </g>
    <g>
      <path class="cls-3" d="M72,46a4.53,4.53,0,0,0-.19-1.74c-0.95,0-2.52-.47-2.52-0.91,0.11-.59,2.21-0.86,3.57-1,0.29,0,.33-0.33,0-0.37a7.39,7.39,0,0,0-4,.18c-0.72.34-1.95,1.76-2,1.12a10.77,10.77,0,0,1,.35-2.87,1.09,1.09,0,0,0-1.06.23,18.82,18.82,0,0,1-2.72,6.72c3.74,1.29,2.83,5.66,3.67,8.74,0,0-.37.4-0.56,0-0.77-2.24-.45-4.65-1.73-6.65a3.11,3.11,0,0,0-2.06-1c-0.8,1.15-2.89,1.39-2.86,6.17,0.14,0.45,1.21-1,1.61-.35-0.29,4.54,1.61,6.57,4.91,5.58a23.08,23.08,0,0,1,2.88-7.2A5.2,5.2,0,0,1,72,46Z"/>
      <path class="cls-3" d="M74.27,43.05c-0.8,0-2.72.08-2.72,0.32s0.53,0.12.82,0.24c0.28,1.08.49,3.2,0.14,3.53-1.54,1.08-3.08,2.59-2.66,4.69A14.92,14.92,0,0,1,74,48.49a2.45,2.45,0,0,1,.36-2.64A7,7,0,0,1,76,45.71a0.4,0.4,0,0,1,.35.59c-0.28.35-1.88,0.47-1.53,1.18s2.23-.39,3.45-0.69l-0.08-.65c-1.92-.21-1.5-2.58-2.1-3.87A1,1,0,0,0,74.27,43.05Z"/>
      <path class="cls-3" d="M80.61,56.57c-0.53-.2-1.27,0-1.91-0.32-0.84-.59.65-2.51,0-2.89s-4.34,3.72-4.79,6.44a29.8,29.8,0,0,1,7.8-.66C82.06,59,81.78,57.11,80.61,56.57Z"/>
      <path class="cls-3" d="M60.62,56a0.45,0.45,0,0,0-.77.19c-0.23,1.8-.3,3.29-0.66,5.09,1,2.27,2.1,4.72,1.43,7.48,1.75-2,3.67-3.92,5.94-4.86l-0.24-2.69C62.75,61.36,61.11,60,60.62,56Z"/>
      <path class="cls-3" d="M73.62,60.77a0.42,0.42,0,0,0,0,.67A28.68,28.68,0,0,0,78.81,60C78.62,59.57,74.92,60.42,73.62,60.77Z"/>
    </g>
    <g>
      <path class="cls-4" d="M40.8,41.34v1.12a13.42,13.42,0,0,1,1.92-.84Z"/>
      <path class="cls-4" d="M60,35.57a46.14,46.14,0,0,1,12.34-1.19S66.73,21.46,47.2,21c-0.4,3.54-2.35,5.46-4,8.39C54.95,28.33,58,30.44,60,35.57Z"/>
      <path class="cls-4" d="M70,39.51a2.07,2.07,0,0,0-1.81,2.18c2.34-1.61,5.73,0,8.29-1.08a3.3,3.3,0,0,0,1.68-2.45C75.73,40.46,73.34,39.37,70,39.51Z"/>
      <path class="cls-4" d="M43.53,55a7.53,7.53,0,0,0,8.35,6c0.45-8.67,12-12.1,13.43-20.38a26,26,0,0,0-3.78.84A8.1,8.1,0,0,1,56,47.83a8.54,8.54,0,0,1-5.7-.58,2.72,2.72,0,0,0-1.64.27C42.51,50,39.37,56.31,35.35,61.24a0.48,0.48,0,0,0,.22.68c1.16,0.37,2.84-.51,4-1.41A17,17,0,0,0,43.53,55Z"/>
      <path class="cls-4" d="M47.61,46.13c0.25-.16.32-0.51-0.32-0.39-3.23.82-16.5,6.15-27.62,22.75-0.17.21-.09,0.41,0.08,0.29a32.14,32.14,0,0,1,5.17-4.15,8.17,8.17,0,0,0,2.13-2.81C31.39,54.52,41.52,48.48,47.61,46.13Z"/>
      <path class="cls-4" d="M48.81,46.63c0.21-.08,0-0.37-0.22-0.24-8.43,3.67-17.19,8.83-22,17.44-0.11.24,0.19,0.28,0.37,0.2,2-.72,4-1.23,6.31-1.9a2.74,2.74,0,0,0,1-.71C38.05,55.72,42.57,49.67,48.81,46.63Z"/>
      <path class="cls-4" d="M80.42,51.17a3.33,3.33,0,0,0-4.27-2.73c-1.59.41-4,2.22-5.56,4.16-3.77,4.62-3.24,10-2.58,15.32,0,0.28.24,0.24,0.22,0a19.64,19.64,0,0,1,1.94-10.34c0.24-.27.51,0,0.42,0.14-2.39,4.45-1.18,10-2.72,15.84,0,0.19.1,0.17,0.14,0.08,1.29-2.47,1.56-10.5,3.09-12.52,0.15-.25.33,0,0.26,0.13-1.35,4.4-.93,8.5-3.22,13.07,0,0.11.06,0.11,0.1,0.06,1.94-2.64,2.63-8.73,4.14-13.31C73.65,57.19,76,52.43,80.42,51.17Z"/>
      <path class="cls-4" d="M59.22,51.42c-0.44-.37-8.22,8-6.61,14.3a11.18,11.18,0,0,1,2.56,1.73c0-4.08,3.52-5.48,3.5-12.17,0,0-.79-1.13-0.57-1.26a3.12,3.12,0,0,1,.68.31A8.41,8.41,0,0,0,59.22,51.42Z"/>
      <path class="cls-4" d="M43.87,58.76c-0.2-.51-0.52-1.09-0.73-1.61a11.77,11.77,0,0,1-4,4.65c-0.33.32,0.48,0.31,1,.22C41.55,61.5,42.93,59.91,43.87,58.76Z"/>
      <path class="cls-4" d="M48.42,65.78a6.2,6.2,0,0,1-3.58-5.95c-0.11-.11-0.3-0.32-0.43-0.45a17.51,17.51,0,0,1-3.18,3,18.76,18.76,0,0,1,7.11,3.8C48.54,66.44,48.79,65.94,48.42,65.78Z"/>
      <path class="cls-4" d="M51.71,62.32a9.3,9.3,0,0,1-5.94-1.68s0.11,4,5.94,4.72v-3Z"/>
      <path class="cls-4" d="M58.5,62.65c-0.73,1.12-2.95,4.77-2.84,8A7.45,7.45,0,0,1,58,72.25C58.4,70,60.85,68,59.24,63.08,59.08,62.5,58.78,62.21,58.5,62.65Z"/>
      <path class="cls-4" d="M54.89,68.12s-4.31-2.86-5.28-1.85c-0.91.74,1.57,3.06,2.19,3.44a8.7,8.7,0,0,0,2.95.51A13.76,13.76,0,0,1,54.89,68.12Z"/>
      <path class="cls-4" d="M59.61,77c0.87-2.08,1.28-6.11.49-6.61-0.37-.17-1.69,3.26-2.23,4.58A16.11,16.11,0,0,1,59.61,77Z"/>
      <path class="cls-4" d="M57.58,73c-1.34-1.47-4-2.36-4.53-1.84-0.35.46,0.27,1.18,0.58,1.77,0.7,1.4,2.13,1.64,3.46,1.85C57.25,74.1,57.44,73.64,57.58,73Z"/>
      <path class="cls-4" d="M58.53,79.22a2.28,2.28,0,0,0,.76-1.57c-0.77-1.4-3.08-2.52-3.63-2.22s0,1.49.25,2A4.47,4.47,0,0,0,58.53,79.22Z"/>
      <path class="cls-4" d="M59.11,79.83a19.53,19.53,0,0,1,.82,1.79c0.75-1.21,1.2-4.29.77-4.51C60.45,77,59.27,79.58,59.11,79.83Z"/>
      <path class="cls-4" d="M56.75,79.52c-0.28.11-.22,1.13-0.11,1.69,0.14,1.09,2,2.18,2.27,2.11a1.29,1.29,0,0,0,.6-1.11C59.09,81.06,57.27,79.38,56.75,79.52Z"/>
      <path class="cls-4" d="M59.44,84l0.91,1.26c0.73-1,1-3.15.64-3.45S59.93,83.23,59.44,84Z"/>
      <path class="cls-4" d="M57.16,83.3c-0.33-.08-0.37.81,0,1a6.73,6.73,0,0,1,2.39,2.92c0.21,0.37.46-.34,0.34-0.79A4.89,4.89,0,0,0,57.16,83.3Z"/>
      <path class="cls-4" d="M57.51,85.57c-0.25-.21-0.89.41-0.52,0.7a10.92,10.92,0,0,1,2.15,2.41C59.82,88.13,58.56,86.38,57.51,85.57Z"/>
      <path class="cls-4" d="M57.34,87.72c-0.3-.07-0.6.43-0.32,0.59A12,12,0,0,1,58.68,90c0.08,0.08.29-.06,0.25-0.31A3.53,3.53,0,0,0,57.34,87.72Z"/>
      <path class="cls-4" d="M57,89.28c-0.17,0-.35.46-0.14,0.66a6.05,6.05,0,0,1,1.3,1.34c0.18,0.12.32-.09,0.28-0.27A3.23,3.23,0,0,0,57,89.28Z"/>
      <path class="cls-4" d="M56.85,91c-0.41.71-.75,2-0.18,2.34s1-1,1.14-1.34A7.69,7.69,0,0,0,56.85,91Z"/>
    </g>
  </g>
</svg>
