<svg id="Layer_1" data-name="Layer 1" xmlns="http://www.w3.org/2000/svg" viewBox="0 0 100 100">
  <defs>
    <style>
      .cls-1 {
        fill: #9babb6;
      }

      .cls-2 {
        fill: #fff;
      }

      .cls-3 {
        fill: #231f20;
      }

      .cls-4 {
        fill: #f1c817;
      }

      .cls-5 {
        fill: #204182;
      }

      .cls-6 {
        fill: #bf2026;
      }
    </style>
  </defs>
  <g id="PITTSBURGH_STEELERS" data-name="PITTSBURGH STEELERS">
    <path class="cls-1" d="M50,5A45,45,0,1,0,95,50,45,45,0,0,0,50,5Zm0,83.12A38.13,38.13,0,1,1,88.15,50,38.14,38.14,0,0,1,50,88.12Z"/>
    <path class="cls-2" d="M30.36,49.12c0-.59-0.14-0.78-0.6-0.78s-0.55.52-.55,1v0.24h1.14V49.12Z"/>
    <path class="cls-2" d="M25.36,48.34c-0.57,0-.55.52-0.55,1v0.24H26V49.12C26,48.53,25.82,48.34,25.36,48.34Z"/>
    <path class="cls-2" d="M37.2,49.12c0-.59-0.14-0.78-0.6-0.78s-0.55.52-.55,1v0.24H37.2V49.12Z"/>
    <path class="cls-2" d="M50,11.85A38.13,38.13,0,1,0,88.15,50,38.14,38.14,0,0,0,50,11.85ZM18.32,53.49c-1.48,0-2-1-2-2.36V50.56h1.23V51c0,0.76.17,1.31,0.78,1.31a0.75,0.75,0,0,0,.76-0.91,1.23,1.23,0,0,0-.49-1,10.1,10.1,0,0,1-1.94-1.79,2.45,2.45,0,0,1-.32-1.19,1.78,1.78,0,0,1,1.94-2.05c2,0,1.91,1.78,1.92,2.55H19c0-.69,0-1.38-0.72-1.38a0.62,0.62,0,0,0-.68.72,1.27,1.27,0,0,0,.7,1.11,11.51,11.51,0,0,1,1.5,1.27,2.22,2.22,0,0,1,.56,1.63A2,2,0,0,1,18.32,53.49Zm4.67-5H22.51v3.62c0,0.25.34,0.22,0.49,0.2v1.06c-0.68.09-1.63,0.17-1.63-.92v-4H20.9v-1h0.46V47l1.15-1.13v1.61H23v1h0Zm4.11,2.22H24.82v0.85c0,0.77.25,0.91,0.6,0.91s0.55-.36.53-1.1h1.15c0,1.31-.42,2.13-1.58,2.13-1.32,0-1.86-.74-1.83-2.45V49.47c-0.05-1.38.55-2.16,1.67-2.16,1.59,0,1.76,1,1.76,2.57v0.79h0Zm1,0.34V49.47c-0.05-1.38.55-2.16,1.67-2.16,1.59,0,1.76,1,1.76,2.57v0.79H29.22v0.85c0,0.77.25,0.91,0.6,0.91s0.55-.36.53-1.1h1.14c0,1.31-.41,2.13-1.58,2.13S28,52.72,28.07,51ZM49.6,88c-2-10.76-5.77-16.74-19.27-19,13.49-2.29,17.24-8.27,19.27-19-2-10.76-5.77-16.74-19.27-19,13.49-2.29,17.24-8.27,19.27-19,2,10.76,5.77,16.74,19.27,19C55.38,33.25,51.63,39.23,49.6,50c2,10.76,5.77,16.74,19.27,19C55.37,71.31,51.63,77.29,49.6,88ZM32.66,53.3V45.54h1.14V53.3H32.66Zm4-.88c0.42,0,.55-0.36.53-1.1h1.14c0,1.31-.41,2.13-1.58,2.13s-1.86-.74-1.83-2.45V49.47c-0.05-1.38.54-2.16,1.67-2.16,1.59,0,1.76,1,1.76,2.57v0.79H36.06v0.85C36.07,52.28,36.31,52.43,36.66,52.43ZM40.5,48.5A2,2,0,0,1,41,47.67a0.89,0.89,0,0,1,.71-0.31V49a0.88,0.88,0,0,0-1.14,1V53.3H39.38V47.46h1.1v1h0Zm3.2,3.93a0.5,0.5,0,0,0,.48-0.65,1.09,1.09,0,0,0-.56-0.69L43,50.57A2.22,2.22,0,0,1,42,48.73a1.43,1.43,0,0,1,1.71-1.42c1.11,0,1.62.68,1.59,1.94H44.2c0-.65-0.13-0.9-0.53-0.9a0.44,0.44,0,0,0-.48.48,0.83,0.83,0,0,0,.43.67l0.93,0.75a2.06,2.06,0,0,1,.78,1.15c0.1,1-.11,2.07-1.7,2.07-0.61,0-1.74-.3-1.61-2.08h1.14C43.09,52.46,43.44,52.43,43.7,52.43ZM68.88,69c-2-10.76-5.77-16.74-19.27-19,13.5-2.29,17.24-8.27,19.27-19,2,10.76,5.77,16.74,19.27,19C74.65,52.23,70.91,58.21,68.88,69Z"/>
    <path class="cls-3" d="M18.3,48.35a1.27,1.27,0,0,1-.7-1.11,0.62,0.62,0,0,1,.68-0.72c0.68,0,.73.68,0.72,1.38h1.19c0-.76,0-2.55-1.92-2.55a1.78,1.78,0,0,0-1.94,2.05,2.45,2.45,0,0,0,.32,1.19,10.14,10.14,0,0,0,1.94,1.79,1.23,1.23,0,0,1,.49,1,0.75,0.75,0,0,1-.76.91c-0.61,0-.8-0.55-0.78-1.31V50.56H16.31v0.57c0,1.39.53,2.36,2,2.36a2,2,0,0,0,2-2.24,2.22,2.22,0,0,0-.56-1.63A11.37,11.37,0,0,0,18.3,48.35Z"/>
    <path class="cls-3" d="M22.51,45.86L21.35,47v0.48H20.9v1h0.47v4c0,1.09,1,1,1.63.92V52.27c-0.14,0-.46.05-0.49-0.2V48.45H23v-1H22.5V45.86h0Z"/>
    <path class="cls-3" d="M25.34,47.31c-1.13,0-1.72.79-1.67,2.16V51c0,1.72.51,2.45,1.83,2.45,1.17,0,1.63-.83,1.58-2.13H25.94c0,0.74-.11,1.1-0.53,1.1s-0.59-.15-0.6-0.91V50.66h2.29V49.88C27.1,48.28,26.94,47.31,25.34,47.31ZM26,49.63H24.82V49.39c0-.53,0-1,0.55-1s0.59,0.19.6,0.78v0.51h0Z"/>
    <path class="cls-3" d="M31.49,51.33H30.34c0,0.74-.11,1.1-0.53,1.1s-0.59-.15-0.6-0.91V50.66H31.5V49.88c0-1.59-.17-2.57-1.76-2.57-1.13,0-1.73.79-1.67,2.16V51c0,1.72.51,2.45,1.83,2.45C31.07,53.46,31.53,52.63,31.49,51.33Zm-2.27-1.94c0-.53,0-1,0.55-1s0.59,0.19.6,0.78v0.51H29.22V49.39Z"/>
    <rect class="cls-3" x="32.66" y="45.54" width="1.14" height="7.77"/>
    <path class="cls-3" d="M38.35,50.66V49.88c0-1.59-.17-2.57-1.76-2.57-1.13,0-1.72.79-1.67,2.16V51c0,1.72.51,2.45,1.83,2.45s1.63-.83,1.58-2.13H37.18c0,0.74-.11,1.1-0.53,1.1s-0.59-.15-0.6-0.91V50.66h2.29Zm-2.29-1.27c0-.53,0-1,0.55-1s0.59,0.19.6,0.78v0.51H36.06V49.39Z"/>
    <path class="cls-3" d="M39.38,47.46v5.84h1.14V49.93a0.88,0.88,0,0,1,1.14-1V47.36a0.89,0.89,0,0,0-.71.31,2,2,0,0,0-.45.83h0v-1h-1.1Z"/>
    <path class="cls-3" d="M42,51.38c-0.13,1.78,1,2.08,1.61,2.08,1.58,0,1.79-1.06,1.7-2.07a2.07,2.07,0,0,0-.78-1.15l-0.93-.75a0.83,0.83,0,0,1-.43-0.67,0.44,0.44,0,0,1,.48-0.48c0.4,0,.56.25,0.53,0.9h1.14c0-1.25-.48-1.94-1.59-1.94A1.43,1.43,0,0,0,42,48.73,2.23,2.23,0,0,0,43,50.57l0.63,0.51a1.09,1.09,0,0,1,.56.69,0.5,0.5,0,0,1-.48.65c-0.26,0-.61,0-0.53-1H42Z"/>
    <path class="cls-4" d="M49.6,50c2-10.76,5.77-16.74,19.27-19-13.49-2.29-17.24-8.27-19.27-19-2,10.76-5.77,16.74-19.27,19,13.49,2.29,17.24,8.27,19.27,19h0Z"/>
    <path class="cls-5" d="M49.6,50h0c-2,10.76-5.77,16.74-19.27,19,13.49,2.29,17.24,8.27,19.27,19,2-10.76,5.77-16.74,19.27-19C55.37,66.72,51.63,60.74,49.6,50Z"/>
    <path class="cls-6" d="M68.88,30.9c-2,10.76-5.77,16.74-19.27,19,13.5,2.29,17.24,8.27,19.27,19,2-10.76,5.77-16.74,19.27-19C74.65,47.64,70.91,41.66,68.88,30.9Z"/>
  </g>
</svg>
