<svg id="Layer_1" data-name="Layer 1" xmlns="http://www.w3.org/2000/svg" viewBox="0 0 100 100">
  <defs>
    <style>
      .cls-1 {
        fill: #d1b336;
      }

      .cls-2 {
        fill: #fff;
      }

      .cls-3 {
        fill: #2d2062;
      }

      .cls-4 {
        fill: #c6332c;
      }
    </style>
  </defs>
  <g>
    <path class="cls-1" d="M73.93,34.9a6.06,6.06,0,0,1-.78,3.1c-0.86-3.14-5.27-7.27-5.27-7.27a4.79,4.79,0,0,1,.53,2.94C68.14,33.43,66,32,66,32c-4.29-3.07-11.35-6.25-22.17-6.25-27.37,0-38.93,17.6-39.41,18.35a34,34,0,0,0-3.38,6l5.83-3.49a25.31,25.31,0,0,1,12.29-2.95c0.58,0,2,.07,2.26.7,0.73,1.5-1.55,6.08-4.15,9.41l-5.57,7.15,7.88-4.51a18.34,18.34,0,0,1,8.4-1.79,3.81,3.81,0,0,1,1.66.25,3.26,3.26,0,0,1-.59,1.3l-3.86,5.22,6-2.5a25.6,25.6,0,0,1,9-1.53c3.09,0,5.2.6,5.8,1.65s-0.13,2.55-.42,3l-1.23,2.07,2.33,0.59a4,4,0,0,0,1.94-.13c0,0.19,0,.38,0,0.57A11,11,0,0,0,50,70.59l2.36,3.65L53.29,70A8.31,8.31,0,0,1,59,63.94l0.54,2,1.87-.75a32.22,32.22,0,0,0,5.45-3.44,32.45,32.45,0,0,1,5.57-.49c1.55,0,3.36.15,5.27,0.3,2.41,0.19,5.13.41,8.08,0.41a48.35,48.35,0,0,0,9.66-1.07l3.42,2.28L99,60.05q0-.4,0-0.79c0-6.6-4.08-10.78-8.51-13.18l0.28,0-4.78-3a10.77,10.77,0,0,0-3.25-1L83,41.64l-2.12-.56a16.18,16.18,0,0,0-5.24-.53A6.55,6.55,0,0,0,73.93,34.9Z"/>
    <path d="M5.89,45.07s11.2-17.52,37.91-17.52c19.67,0,26.22,11,26.22,11A4.57,4.57,0,0,0,69.9,36a9.32,9.32,0,0,1,2.38,5.25,5.77,5.77,0,0,0,1.31-1.79,5.48,5.48,0,0,1,0,3.22,12.54,12.54,0,0,1,6.79.12L80,43.52s4.05,0.48,5,1.07c0,0-2.27.12-2.27,0.72,0,0,15,2.27,14.42,14.66l-1.43-1a46.63,46.63,0,0,1-10,1.19c-5.24,0-9.77-.71-13.35-0.71a33,33,0,0,0-6.32.6,35.16,35.16,0,0,1-5.36,3.46l-0.48-1.79s-7.27,1.07-8.7,7.87c0,0-2.38-3.7-.6-7.51a24.86,24.86,0,0,1-3.93.83s4.53-7.39-6.91-7.39a27,27,0,0,0-9.66,1.67s3.34-4.41-2.5-4.41a19.71,19.71,0,0,0-9.3,2s10.14-13,.48-13A26.71,26.71,0,0,0,5.89,45.07Z"/>
    <path class="cls-2" d="M65.73,46.5s-7.87-1.43-11.26.54c0,0,8.76,0,12.16,2,0,0-15.56-2.15-22,3,0,0,9.48-2.32,16.81-1.61,0,0-2.68,1.07.18,2.86s4.65,2.15,3.93,5.19L67,56.27l1.67,1.67a44.69,44.69,0,0,1,7.27,0c3,0.36,7,.72,9.3.72s8.46-.83,8.46-0.83-13-5.13-24.67-5.13c-1.31,0-2.74.24-1.91,1.67,0,0-4.05-2-4.05-3.07s3.1-.51,3.1-0.51c1.43,0,27.18,2.62,29.8,7.27,0,0,0-10.61-21.34-12.75l2.38,2L73.24,47l2.26,2A64.59,64.59,0,0,0,65.73,46.5Z"/>
    <path class="cls-3" d="M11.91,41.13s11.8-11.8,31.83-11.8c17.52,0,25,9.83,25,9.83S72,44,70.2,45.78s-2.15-4.47-6.62-5.9l3.75,1.25A11.9,11.9,0,0,0,56.25,37s3.93,0.89,5,2.15c0,0-8.76.89-9.12,1.61,0,0,6.79,1.43,7.15,2.5,0,0-6.44.18-8.22,1.79,0,0,12,.54,14.66,1.43,0,0-7.87-1.43-11.26.54,0,0,8.76,0,12.16,2,0,0-15.56-2.15-22,3,0,0,9.48-2.32,16.81-1.61,0,0-2.68,1.07.18,2.86s4.65,2.15,3.93,5.19a9.24,9.24,0,0,1-3.58,3L61.79,59S55,59.55,52,65.81c0,0,.54-5.19,2-6.44L50,60.62s3.93-6.44-5.9-7-10.37,1.07-10.37,1.07,1.25-4.83-9.83-2.86C23.89,51.86,34.44,34.52,11.91,41.13Z"/>
    <path class="cls-2" d="M52.07,33.66C51,32.07,48.32,31.3,43.91,31.3c-12.45,0-19.51,3.54-19.8,3.69l-4.79,2.64L24.83,37a88.86,88.86,0,0,1,14-1.88c-8.27,1-11.2,14.67-11.32,15.27L27.2,51.75,40,51.12l0.31-.42c0.52-.58,4.25-2.31,7.4-3.57l0.4-.16,1.14-2.5,0-.16a2.92,2.92,0,0,0,0-.39,2.75,2.75,0,0,0-.69-1.82,5.52,5.52,0,0,0-2.44-1.45c4.82-1.2,6.2-4.51,6.26-4.66A2.57,2.57,0,0,0,52.07,33.66ZM36,48.21c0.65-1.78,2-4.88,2.37-5.81,0.68,0,4.15-.2,4.15,1.83C42.52,45.19,40.92,48.23,36,48.21Zm3.48-8.42c0.63-1.25,1.78-4.22,2-4.73,0.83,0.12,4,.43,3.77,1.79A5,5,0,0,1,42.9,40Z"/>
    <path class="cls-1" d="M41.23,41L38,40.78,40,36.13c-8.4-.18-11.44,14.48-11.44,14.48l10.91-.54c0.72-1.07,7.87-3.93,7.87-3.93l0.89-2C48.62,41.07,41.23,41,41.23,41Zm2.32,3.75c-1.71,4.64-8,4.65-9.12,4.65l3.43-8S44.91,41,43.55,44.71Zm0.36-12.34c-12.34,0-19.31,3.58-19.31,3.58s11.26-2.5,17.7-1.79c8.4,0.93,2.15,5.72,2.15,5.72,5.54-.72,7-4.29,7-4.29S52.67,32.37,43.91,32.37Z"/>
    <ellipse class="cls-4" cx="62.87" cy="42.85" rx="2.04" ry="1.88"/>
    <ellipse class="cls-2" cx="63.28" cy="43.16" rx="1.85" ry="1.91"/>
    <ellipse class="cls-4" cx="63.64" cy="43.28" rx="1.49" ry="1.43"/>
    <ellipse cx="64" cy="43.22" rx="1.25" ry="1.37"/>
  </g>
</svg>
