<svg id="Layer_1" data-name="Layer 1" xmlns="http://www.w3.org/2000/svg" viewBox="0 0 100 100">
  <defs>
    <style>
      .cls-1 {
        fill: #c9b074;
      }

      .cls-2 {
        fill: #840026;
      }

      .cls-3, .cls-4 {
        fill: #fff;
      }

      .cls-3 {
        fill-rule: evenodd;
      }
    </style>
  </defs>
  <ellipse cx="51.1" cy="50" rx="49.5" ry="28.91"/>
  <ellipse class="cls-1" cx="51.39" cy="50.2" rx="43.22" ry="25.9"/>
  <ellipse class="cls-2" cx="50" cy="50" rx="39.94" ry="25"/>
  <path d="M66.85,45.82a7.22,7.22,0,0,0-.45-2,8.08,8.08,0,0,0-2.72-3.5,12.14,12.14,0,0,0-1.54-1l3.57,0V29.46H57.25l-1,.92a58.26,58.26,0,0,0-10.2-1,28.17,28.17,0,0,0-10.6,1.75A12.64,12.64,0,0,0,31,34.1,10.23,10.23,0,0,0,28.49,39h0v0.08h0a3.58,3.58,0,0,0-.08.8A4.85,4.85,0,0,0,29,42.17a6.46,6.46,0,0,0,1.71,2,11.7,11.7,0,0,0,3.5,1.8H28.79V59.26H34l0.35-.17a6.06,6.06,0,0,0,1.52-1.15,6.23,6.23,0,0,0,1.07-1.48L37,56.33a33.25,33.25,0,0,0,10.36,1.75v7.28a1.25,1.25,0,0,1-.16.39,3.12,3.12,0,0,1-1.46,1.18,12.29,12.29,0,0,1-4.89.91l-1.6,0v5.22h25V67.63H62.59s-0.4,0-1-.06a11.26,11.26,0,0,1-1.42-.23A7.29,7.29,0,0,1,59.12,67,3.16,3.16,0,0,1,58,66.29a1.29,1.29,0,0,1-.25-0.37,1.3,1.3,0,0,1-.1-0.47V62.3h6.08a6.66,6.66,0,0,1,1.82.78,3.68,3.68,0,0,1,1.1,1,2.54,2.54,0,0,1,.43,1.47V67.2h5.61V52h2.43a2.67,2.67,0,0,1,1.3.51,2.48,2.48,0,0,1,.59.68,4.4,4.4,0,0,1,.52,1.43,7.19,7.19,0,0,1,.13,1.35c0,0.17,0,.3,0,0.39v0.09h0l-0.2,1.81h5.91V45.82H66.85Zm-25,4.89a18.86,18.86,0,0,1-3.05-1.26,13.94,13.94,0,0,1-3.91-3L34.51,46c0.47,0.15,1,.29,1.51.42a35.09,35.09,0,0,0,5.86.81v3.44ZM49.7,36.82H48.12a31.76,31.76,0,0,1-3.8-.19,9.55,9.55,0,0,1-1.63-.32,3,3,0,0,1-.6-0.25,0.51,0.51,0,0,1-.19-0.15h0a1.77,1.77,0,0,1,.33-0.26,5.26,5.26,0,0,1,1.49-.59,9.13,9.13,0,0,1,2.18-.26l0.66,0a32.61,32.61,0,0,1,6.28,1A16.68,16.68,0,0,1,56.07,37c0.33,0.17.65,0.36,1,.56A34.82,34.82,0,0,0,49.7,36.82ZM67.07,53.91a3.1,3.1,0,0,1-.31.79,3,3,0,0,1-1.23,1.18,6.68,6.68,0,0,1-3.21.65H62.08l-0.92,0c-0.64,0-1.54,0-2.44-.11l-0.48-.05a21.06,21.06,0,0,0,2.22-1A13.6,13.6,0,0,0,64.89,52H67.1l0.05,1.37A2.66,2.66,0,0,1,67.07,53.91Z"/>
  <g>
    <path class="cls-3" d="M63.76,30.4H57.57L56.4,31.45s-24-5.26-26.64,7.24c0,0-1.87,7,18.46,6.31,0,0,10.67-.93,9.81,3.86-0.89,5-10,3.86-10,3.86s-9.23.12-14.61-5.84H30.11v10h3.15a4.61,4.61,0,0,0,2.34-3.51S39.93,55.75,48,55.75s16.71-3.39,16.94-9.7-8.65-8.41-16.12-8.3S40,36.71,39.93,35.19s2.92-2.92,6.43-2.69,9.7,0.93,13.2,4.56l4.2,0V30.4Z"/>
    <path class="cls-3" d="M54.3,46.76H43.2v2.8h3.39a2.26,2.26,0,0,1,1.87,2.1S56,52.6,56.52,48.51C56.52,48.51,56.87,46.87,54.3,46.76Z"/>
    <path class="cls-4" d="M48.65,57.43v7.28s0,3.86-8.1,4.05v2H62.28V68.57s-6.47,0-6.58-3.78V60h7.91s4.79,0.93,4.79,4.91h2.34V52.6H68.47s0.19,4.95-6.62,4.87a21.14,21.14,0,0,1-6.43-.66A17.38,17.38,0,0,1,48.65,57.43Z"/>
    <path class="cls-4" d="M66.72,46.76H81.41v9.15H79s0.62-5.69-4-6.27H65.86S66.68,48.94,66.72,46.76Z"/>
  </g>
</svg>
