<svg id="Layer_1" data-name="Layer 1" xmlns="http://www.w3.org/2000/svg" viewBox="0 0 100 100">
  <defs>
    <style>
      .cls-1 {
        fill: #12274b;
      }

      .cls-2 {
        fill: #3997d3;
      }

      .cls-3 {
        fill: #f0c818;
      }
    </style>
  </defs>
  <g>
    <path class="cls-1" d="M45.29,23.19c1.08,1.1,3.17,4,3.17,4C21.18,25.91,6.89,44.44,6.89,44.44l4.3,0.39C-2.79,63.44,1,76.74,1,76.74,11.26,62.7,18,54.06,35.69,47.38a43,43,0,0,0-2.75-3.84c25.18-2.29,48.87,12.93,48.87,12.93s-2.3-5.53-2.87-6.77c11.31,9.65,20.48,27.12,20.48,27.12C100.44,61,92.29,24.88,45.29,23.19Z"/>
    <path class="cls-2" d="M97.6,70.25C95.45,46.35,79.37,27.6,49.13,25.11l2.93,3.94C23.47,26.94,10.94,43,10.94,43s1.93,0.2,3.6.33C1.47,58.83,2.28,71.84,2.28,71.84,12.16,58.7,19.53,52.32,33,46.54a26.11,26.11,0,0,0-3.76-4.32c25.31-3.75,49,10.38,49,10.38a61.46,61.46,0,0,0-4.44-8.69C87.26,51.79,97.6,70.25,97.6,70.25Z"/>
    <path class="cls-3" d="M52.1,26.82c0.78,1,1.59,2.13,2.83,3.81C47.39,30,28.11,28.75,14.08,42c0,0,3.25.29,3.23,0.32-4.83,5.15-11.9,16-13.4,25.3C14.6,53.27,24.66,48.75,30.89,46a23.61,23.61,0,0,0-4.78-4.56c15.39-3.45,35.36.69,49.29,8.1a89.08,89.08,0,0,0-5.33-9.07C83.7,46.29,92.73,60.19,95.58,64.6,94.06,56.91,87,30.84,52.1,26.82Z"/>
  </g>
</svg>
