<svg id="Layer_1" data-name="Layer 1" xmlns="http://www.w3.org/2000/svg" viewBox="0 0 100 100">
  <defs>
    <style>
      .cls-1 {
        fill: #ed4823;
      }

      .cls-1, .cls-2, .cls-3, .cls-4, .cls-5, .cls-6, .cls-7 {
        fill-rule: evenodd;
      }

      .cls-2 {
        fill: #2b1b10;
      }

      .cls-3 {
        fill: #f6ebe4;
      }

      .cls-4 {
        fill: #441512;
      }

      .cls-5 {
        fill: #631410;
      }

      .cls-6 {
        fill: #312416;
      }

      .cls-7 {
        fill: #fff;
      }
    </style>
  </defs>
  <g>
    <path class="cls-1" d="M43,77.73a1.3,1.3,0,0,1-1.22-.85c-1.31-1.76-.13-3.53,1.63-3.44,2.8,0.13,2.16,4.3-.42,4.3h0Zm-8.09-2.24V75.9c0.59-.33,1.25-0.74,2.1-1.2-0.43.09-1.16,0.44-2.1,0.79h0Zm-8.65,5.83H25.41A35.41,35.41,0,0,0,30,83.53a21.7,21.7,0,0,0,9.89,1.55c3.56-.43,6.41-1.1,8.7-3a10.3,10.3,0,0,0,4.13-7.38L54,74.95c0.38,11.94-15.28,14.51-26.26,8.94a36.27,36.27,0,0,1-4.24-2.6c-5.57-3.71-8.26,0-10.89-.76-1-.31-0.77-1-1.45-1.95a52.43,52.43,0,0,1-6-11.13A47.19,47.19,0,0,1,2.07,44.1a34.68,34.68,0,0,1,8.77-18.43,35.56,35.56,0,0,1,7.46-6.23c5.42-3.36,9-5,15.51-5a41.58,41.58,0,0,1,6.3.53c3.89,0.61,8.08.2,11.16,1.71L65.48,29.77c-1.56,1.69,0,6,.24,8.57-3.85.91-11.59,2.42-14.8,4.91a4.25,4.25,0,0,0-1.51,1.24c-1.89,1-4.82,6.86-6.2,8.71l-0.07.09a1.3,1.3,0,0,0-.83.43A2,2,0,0,0,42,55.24a4.34,4.34,0,0,1-.61,1,30.74,30.74,0,0,1-1.94,3c-0.57.36-.66,0-1.31,1.15s-1.34,2.05-1.9,3c-0.89,1.5,1-.24-2.65,5-0.32.69-1.2,1.46-1.13,2.2a1.78,1.78,0,0,0,2,1.35,5,5,0,0,1,.7-0.06l13.35,2.18,3.24,0.52h0c-1.11,3.44-1.06,4.65-4,7-4.86,3.84-12.12,3.34-17.71,1.4a25.82,25.82,0,0,1-3.83-1.62h0Zm5.12-11c-1.7.18-2.6,0.12-3.72-.65-3.47-2.37-2.67-7.35.71-8.07a4.73,4.73,0,0,1,5.39,3.08c0.58,1.7.21,1.93-.62,3.07-0.57.79-1.33,1.88-1.76,2.57h0Z"/>
    <path class="cls-2" d="M7.68,74.26a35.5,35.5,0,0,0,3.14,5c0.57,0.77.18,0.27,0.47,1.16l2.45,0.81c-0.07.15,0.06,0.4-.64,0.6a1.89,1.89,0,0,1-2.33-1c-0.4-1.25.5-.2-1.13-2.69l-0.35-.43c0.06,1,.59,1.29.85,2.11,0.33,1-.1,1.52.78,2.23a2.44,2.44,0,0,0,3.15-.2L14.75,81c-0.94,2.56-1.21.62-1.75,2.6,1.16,0.61,5.19-.66,6.56-1.24a6,6,0,0,0,1.78-.94c-1.66-1.1-3.17-.87-5.26-0.9,1.07,0,1.88-.53,3.59-0.29l2.85,1.13c-1.77,1.58-11.06,5.26-12.75,1.09-0.48-1.19.38-.83-0.55-2.73A21.05,21.05,0,0,1,7.59,75c-0.14-.94,0-0.65.08-0.76h0ZM69.19,31a30.3,30.3,0,0,0-2.85-4.18A44.54,44.54,0,0,0,63,23.25c-12-10.87-22.59-9.73-31.25-9.3a48.62,48.62,0,0,1,13.68-.51,37.37,37.37,0,0,1,11.46,3.47,35.34,35.34,0,0,1,6.89,4.46l2,1.72a33.67,33.67,0,0,1,6.45,8.42C71.12,30.78,70.4,30,69.19,31h0ZM54.54,75L54,74.9c0.42,12-15.26,14.56-26.26,9a36.27,36.27,0,0,1-4.24-2.6c-5.57-3.71-8.26,0-10.89-.76-1-.31-0.77-1-1.45-1.95a52.43,52.43,0,0,1-6-11.13A47.19,47.19,0,0,1,2.07,44.1a34.68,34.68,0,0,1,8.77-18.43,35.56,35.56,0,0,1,7.46-6.23c5.42-3.36,9-5,15.51-5a41.58,41.58,0,0,1,6.3.53c11.11,1.75,20,10.3,24.47,16.52-1.56,1.69.86,4.29,1.15,6.85l0.7-.09a37.44,37.44,0,0,1-1.58-6.06c-0.09-.77,1.34,4.86,2.24,5.91,0.14-.22.13,0.09,0.12-0.29a1.85,1.85,0,0,0-.12-0.41l-0.26-.71a35.71,35.71,0,0,1-1.35-4.62c0.61-.26,1.39,0,2-0.3a13.43,13.43,0,0,1,1.71-.8c-0.44,1.44.79,3.24,1.31,4.38l1.8,4.19,2.5,0c-0.08-1.48-1.78-5.79-2.36-7.44l0.8,0.05,1.68,5.06L77,37.45c-0.19-.68-2-4.7-2.43-5.7-1.55.36-1.7-.77-2.93-2.7-0.38-.6-0.82-1.22-1.24-1.79A36.54,36.54,0,0,0,46,12.9a41.64,41.64,0,0,0-30.33,7.48c-1.08.77-1.63,1.35-2.48,2a8.59,8.59,0,0,0-.84.68,35.63,35.63,0,0,0-6.6,8.3C-1.48,44.28.2,59,6.39,71.87c0.66,1.37.58,0.76,0.54,2.43C6.88,76.82,9,80.21,9.06,81.13a3.23,3.23,0,0,0,.62,2.36,4.83,4.83,0,0,0,4.51,1.43,20.6,20.6,0,0,0,8.94-3.15c0.59,0.37,1,.72,1.56,1.09,6.37,4.27,15.64,6.28,22.66,3.17,3.7-1.64,4-2.79,5.77-4.66,2.17,0,4.61.08,6.56-.14a17.15,17.15,0,0,0,5.22-1.91l-0.69-1.09A17.09,17.09,0,0,1,59.64,80a47.48,47.48,0,0,1-5.84.18,11.47,11.47,0,0,0,1.14-3.64A2.51,2.51,0,0,0,55,75Z"/>
    <path class="cls-2" d="M67.44,57.29c-1.6-2.24-.71-8.77,2-9.47l-0.64.81C67.45,50.42,67,55,67.44,57.29h0ZM66.52,41.22c-0.13,2.87-2.36,1.76-6.68,3a15.69,15.69,0,0,0-5.55,3.07c-0.21.17-.38,0.25-0.62,0.42L54,48.51l1.34-1.05a0.74,0.74,0,0,1-.26.34l-1,.95,5.09,11.08a3.72,3.72,0,0,1,5.51-2.77c2,1,2.59,3.62,3.4,5.82l1.23-.09c0-.75-0.54-2.24-0.69-3.22l-0.24-3.79c2.79,3.09,4.14,3.52,7.91,5.51a11.17,11.17,0,0,0-.76-2.06c-0.42-.86-2.89-1.06-6.32-5.58-0.72-.94-0.69-0.8-0.31-2.18l2.06-4C71.42,48,72.15,50.2,72.51,51c1.49,3.27,3.18,7.42,4.57,10.79l2-.22C79,60.92,76.44,55.17,76,54.08l-3.15-7.57A19.27,19.27,0,0,1,74.08,45l-9.15-.48c1.89-.17,3.16-0.88,3.16-2.8a3.56,3.56,0,0,0,0-.41l-0.43-.4c-0.13.19-.09-0.05-0.13,0.28s0.25,2-1.23,2.48l-3.45.61Zm7.88,3.19A25.85,25.85,0,0,1,77.34,41c1.16,0.3,2.69.43,3.27-.75s-0.45-2.58-.88-3.42c-1-1.84-2.31-4.07-3.38-5.9l-1.45.6a29.78,29.78,0,0,0,1.32,3,14,14,0,0,0,1.48,3,12,12,0,0,1,1.74.52,1.51,1.51,0,0,1,.4,1.83l-3.92.33-1.51,4v0.23Z"/>
    <path class="cls-3" d="M38.32,61.33a16.14,16.14,0,0,0,2.59,1.77c0.92,0.59,1.91,1.15,2.83,1.69s2,1.07,2.33,2a2.17,2.17,0,0,1-1.73,2.67c-1.08.18-4.34-2.16-5.85-3-2.76-1.6-2.53-1.67-.18-5.14h0Zm3.92-.07c1,0.56,2.17,1.38,3.14,2,1.14,0.77,2.48,1.65,1.71,3.12,0-2-2.22-2.76-3.65-3.78L41.9,61.57Zm0,1.08c1,0.62,3.74,2.25,4.19,3.07a1.25,1.25,0,0,1,.13,1.34,3.32,3.32,0,0,0-1.81-1.86l-4.62-2.76c-0.52-.32-2.08-1-1.11-2,1.65,2.52,1.19.89,3.21,2.18h0Zm-2.55-2.26c0.67-1.26,1.2-2,1.91-3.17l0.76-1,1.34,1.56-2.36,3.78Zm-6.11,8.31c0,0.34-.15.3,0.1,0.3,0,0.3,0,0,.3.09,0.73-1.23,1.36-2.1,2.16-3.25l1.7,1.21-0.1.36,0,0.23c-0.67,0,0-.09-0.28.27L37.56,68a2.17,2.17,0,0,0,.77-0.9,16.5,16.5,0,0,1,2.55,1.43C41.71,69,42.62,69.62,43.42,70c-0.05.35,0.6,0.19,0.9,0.14,2.22-.53,4.15-3.83,3.37-5.46-0.53-1.1-4.08-3.12-5.28-3.89a22,22,0,0,1,1.49-2.54l0.32-.33c1.23,1.21,3.92,3.9,5.13,5,0.59,0.53,1.34.88,2,1.41,1.19,0.44.76,0.2,1.48,2.24l1,2.67-1-4.15a17.28,17.28,0,0,0,3.17.87,1.53,1.53,0,0,0-.16-0.4l-0.07.06s-0.08-.1-0.1-0.07l-0.43-.17A12.78,12.78,0,0,1,50,62.68,8,8,0,0,1,49.13,62L47,59.8c-1.18-1-3.31-3.35-4.38-4.5L44,53.94a73.6,73.6,0,0,0,5.24,5.53l0.32,0.34,0.53-.05V59.55a49,49,0,0,1-4.32-4.29c0.36-.59,4.38-7,4.52-7.39L50,47.77a14.76,14.76,0,0,0-2.4,3.43c-0.36.58-.74,1.21-1.08,1.79a10.5,10.5,0,0,0-1,1.81,15.33,15.33,0,0,1-1.58-1.44,0.15,0.15,0,0,1-.08-0.09,0.2,0.2,0,0,0-.08-0.1l4.06-6.28,1.46-2,0.1-.45c-1.89,1-4.82,6.86-6.2,8.71-0.39.52-.92,0.49-1.15,1.31-0.28,1,.29.25-0.69,1.77a30.74,30.74,0,0,1-1.94,3c-0.57.36-.66,0-1.31,1.15s-1.34,2.05-1.9,3c-0.89,1.5,1-.24-2.65,5h0Z"/>
    <path class="cls-2" d="M31.36,70.3c0.43-.69,1.19-1.78,1.76-2.57,0.82-1.14,1.2-1.37.62-3.07a4.73,4.73,0,0,0-5.39-3.08c-3.39.72-4.18,5.7-.71,8.07,1.12,0.76,2,.83,3.72.65h0Z"/>
    <path class="cls-1" d="M44.33,70.15a0.32,0.32,0,0,0,.28.19c0.56,0.2,7,1.1,7.16,1.1a54.15,54.15,0,0,0-1.26-5.54,1,1,0,0,1,.35.54l0.79,2.08c0.31,1.1.56,2,.81,3.06l1.09,0.14a14.1,14.1,0,0,0-1-3.82c-0.45-1.22-.82-2.45-1.2-3.6-0.64-.54-1.39-0.89-2-1.41-1.21-1.07-3.9-3.76-5.13-5l-0.32.33a22,22,0,0,0-1.49,2.54c1.2,0.77,4.75,2.79,5.28,3.89,0.79,1.63-1.15,4.93-3.37,5.46h0Z"/>
    <path class="cls-2" d="M58.14,63.27l2.1,0.13a20.75,20.75,0,0,0-1-2.4c-2.41-5.54-5.2-11.56-7.85-17-2.73-.24-0.73,3.07-0.12,4.32,1.87,3.85,3.92,8.86,5.72,12.47a23.74,23.74,0,0,0,1.21,2.49h0Z"/>
    <path class="cls-2" d="M51.66,43.4v0h0.06l0.14,0.3,0.45,0.93,0.27,0.51a22.56,22.56,0,0,1,4-1.87,42.56,42.56,0,0,1,4.49-1.39c3-.8,6.48-1.54,9.59-2.27,0.72-2.35-2.76-1.18-4.25-.89-3.11.61-13.32,3-14.75,4.66h0Z"/>
    <path class="cls-2" d="M93,59.53c0.8,0.94,1.28,1.27-.12,2.43l1.67,5.45,0,0a2.56,2.56,0,0,1,1.92.81,1.58,1.58,0,0,1,.3.64,2.35,2.35,0,0,1,.06.4c0,0.05,0,.1,0,0.15a1.85,1.85,0,0,1-.24.92,1.91,1.91,0,0,1-.39.49L96,71.05a1.59,1.59,0,0,0-.23.24l1.33,9.11c1.89,0.83,1,.41,1.88,1.33L97.3,69.3c-0.47-1.88-1-3.76-1.57-5.54-0.5-1.52-1-4.22-2.75-4.23h0Z"/>
    <path class="cls-2" d="M57.45,63.19c-1.27-2.48-3.71-8.19-5.16-11.27-1.09,1.72-1,5.7-.67,7.88,0.18,1.32.1,1.23,0.69,1.64a10.1,10.1,0,0,0,5.14,1.75h0Z"/>
    <path class="cls-1" d="M50.1,59.55c0.19-1.59-.19-3.53.1-5.25,0.16-.92.74-3.12,1.44-3.79a14.51,14.51,0,0,0-.58-1.36c-0.1-.25-0.16-0.4-0.29-0.67a0.84,0.84,0,0,0-.47-0.61c-0.14.39-4.16,6.8-4.52,7.39a49,49,0,0,0,4.32,4.29h0Z"/>
    <path class="cls-2" d="M53.54,71.73l0.91,0.17L55,72l0.2-.24,0.14-.14c1.14-1.08,3.56-3.61,3.48-5.2-0.51,0-1-.06-1.53-0.1a10.89,10.89,0,0,1-2.29-.41c-0.78-.26-1.51-0.52-2.21-0.81l1,4.12-1-2.67c-0.35-1-.43-1.45-0.56-1.7-0.31-.14-0.61-0.29-0.9-0.46,0.38,1.13.73,2.34,1.18,3.53a14.1,14.1,0,0,1,1,3.82h0Z"/>
    <path class="cls-2" d="M80.22,70.76L79.4,68.69C78,68.44,70.76,67.29,70,67l-0.1-1.15-0.68.07L68.6,66c0.17,3.41.06,3-.42,6.52l1.4-.15,0.52-3.31Z"/>
    <path class="cls-4" d="M52.78,74.65l-0.71-.09-0.32,0c-1.11,3.44-1.06,4.65-4,7-4.86,3.84-12.12,3.34-17.71,1.4a24.54,24.54,0,0,1-3.93-1.67,22.77,22.77,0,0,0-3.72-1.8l0.47,0.41A47.84,47.84,0,0,0,30,83.53a21.7,21.7,0,0,0,9.89,1.55c3.56-.43,6.41-1.1,8.7-3a10.34,10.34,0,0,0,4.15-7.47h0Z"/>
    <path class="cls-2" d="M43.26,65.64c2.36,0.24,2.43,1.91,1.92,2.65a1.85,1.85,0,0,1-1.89.52l-1.36-1.27a1.84,1.84,0,0,1-1.87-.71c-1.34-1.73,1.41-4.16,3.2-1.18h0Zm-4.94-4.31c-2.35,3.47-2.58,3.54.18,5.14,1.51,0.88,4.76,3.22,5.85,3a2.17,2.17,0,0,0,1.73-2.67c-0.32-1-1.52-1.57-2.33-2s-1.91-1.1-2.83-1.69a16.14,16.14,0,0,1-2.59-1.77h0Z"/>
    <path class="cls-3" d="M10.82,79.21a35.5,35.5,0,0,1-3.14-5c-0.07.12-.23-0.17-0.08,0.76A21.05,21.05,0,0,0,9.22,79.7c0.93,1.91.07,1.54,0.55,2.73,1.68,4.17,11,.49,12.75-1.09l-2.85-1.13c-1.72-.24-2.52.29-3.59,0.29,2.08,0,3.59-.2,5.26.9a6,6,0,0,1-1.78.94c-1.37.58-5.4,1.84-6.56,1.24,0.54-2,.81,0,1.75-2.6l-0.69.79a2.44,2.44,0,0,1-3.15.2c-0.88-.71-0.46-1.21-0.78-2.23-0.26-.82-0.79-1.15-0.85-2.11l0.35,0.43c1.63,2.49.73,1.44,1.13,2.69a1.89,1.89,0,0,0,2.33,1c0.71-.2.57-0.45,0.64-0.6l-2.45-.81c-0.29-.9.1-0.39-0.47-1.16h0Z"/>
    <path class="cls-1" d="M53.76,47.66c0.19-.13.35-0.21,0.53-0.36a15.69,15.69,0,0,1,5.55-3.07c4.32-1.26,6.55-.14,6.68-3a55.18,55.18,0,0,0-10.61,2.91l-3.09,1.55,0.95,2h0Z"/>
    <path class="cls-2" d="M50,47.77l0.08-.31a0,0,0,0,0,0,0c-0.09-.18-0.17-0.36-0.26-0.55A5.21,5.21,0,0,1,49.35,45l0-.09-1.46,2-4.06,6.28a0.2,0.2,0,0,1,.08.1,0.15,0.15,0,0,0,.08.09,15.33,15.33,0,0,0,1.58,1.44,10.5,10.5,0,0,1,1-1.81c0.34-.59.73-1.22,1.08-1.79A14.76,14.76,0,0,1,50,47.77h0Z"/>
    <path class="cls-2" d="M93.9,82a1.13,1.13,0,0,0-1-.75l2.17,0.65L92.19,83l-0.09,2c2.39-.62,5.12-1,6.34-2.38L97.7,81.11c-0.54.52-.79,1.21-2,1.41l1.11-1.38-4.7-1.4,0.1,2Z"/>
    <path class="cls-2" d="M82.41,74.16c0.9,1.87,4.44,5.54,6.6,6.2L88.9,78.12A24.76,24.76,0,0,1,86.45,76a11.36,11.36,0,0,1-2-2.38L82.79,74c-0.72.23-.1,0-0.38,0.21h0Z"/>
    <path class="cls-2" d="M59.37,66.44c0.35,1.22,2.43,5.29,3,6.5,0.71,0,1.41-.06,2.12-0.1L61.6,66.46c-0.69,0-1.37,0-2.06,0H59.37Z"/>
    <path class="cls-2" d="M90.06,69c0.24,0.58.36,0.41,1.09,0.24,1.29-.29,3.08-1,3.68-0.46L90.42,70l0.5,1.77c2.64-.52,5.77-0.6,5.3-2.74-0.43-2-5.63-.48-6.16,0h0Z"/>
    <path class="cls-2" d="M82.81,70.44a43,43,0,0,1-2.56-6.07l-2,.32,2.53,6.07,2-.32h0Z"/>
    <path class="cls-2" d="M34,68.78a8.29,8.29,0,0,0-.64.95,1,1,0,0,0,.89,1.67c1.29,0,2.43-3.53,3.51-4.31l0.1-.36-1.7-1.21c-0.8,1.14-1.43,2-2.16,3.25h0Z"/>
    <path class="cls-2" d="M67.92,31.88l1.46,5.73c2.16-.19,2.64,2.31.71,2.89a1.15,1.15,0,0,0-.67.3,1.27,1.27,0,0,0,2.29-.45C72,39.2,71.38,38.05,71,37.2L70.51,36l-0.23-.53c-0.13-.3-0.29-0.6-0.44-0.9s-0.36-.7-0.52-1.06a5.05,5.05,0,0,1-.47-1.74l-0.12-.29a6.9,6.9,0,0,0-.82.41h0Z"/>
    <path class="cls-2" d="M39.68,60.08l1.64,1.18,2.36-3.78-1.34-1.56-0.76,1c-0.71,1.16-1.24,1.91-1.91,3.17h0Z"/>
    <path class="cls-2" d="M87.09,60.87l0.7,1.63c1-.14,2.09-0.38,3-0.59s2.54-.34,2.15-1.53-3.32.27-5.89,0.49h0Z"/>
    <path class="cls-1" d="M37.56,68L37,69.06a34.82,34.82,0,0,0,6.41.94c-0.81-.38-1.71-1-2.55-1.53a16.5,16.5,0,0,0-2.55-1.43,2.17,2.17,0,0,1-.77.9h0Z"/>
    <path class="cls-2" d="M75.28,39.51L79,40c0.65-.5.57-0.75,0.3-1.53a23.82,23.82,0,0,0-4.47-.7Z"/>
    <path class="cls-3" d="M42.82,66.92l0.58-1,1.68,0.91L45,68a1.47,1.47,0,0,1-2.18-1.07h0Zm0.38,1.16c0.53,0.38.67,0.1,1.18,0.47-2.12-.37-1.71-0.1-2.35-1.33-1.35.08-2.1-.32-2-1.79a15.5,15.5,0,0,1,2.54,1.74l0.1,0.19c0.07,0.12.06,0.15,0.13,0.27a1.21,1.21,0,0,0,.38.43h0Zm-1.36-3.44,1.09,1.5-1.29.62-0.07-.43L42,66.1l-0.49-.29Zm-0.69,1.93a1.19,1.19,0,0,1-.76-1.16c0-.72.27-0.78,0.95-0.86-0.27,1.12-.13.89-0.45,1.13Zm2.12-.93c-1.79-3-4.55-.55-3.2,1.18a1.84,1.84,0,0,0,1.87.71l1.36,1.27a1.85,1.85,0,0,0,1.89-.52c0.51-.74.44-2.4-1.92-2.65h0Z"/>
    <path class="cls-2" d="M46.55,66.74a1.25,1.25,0,0,0-.13-1.34C46,64.58,43.21,63,42.23,62.34c-2-1.29-1.57.33-3.21-2.18-1,.92.59,1.65,1.11,2l4.62,2.76a3.32,3.32,0,0,1,1.81,1.86h0Z"/>
    <path class="cls-2" d="M50.1,59.55v0.21L51,60.46a24.05,24.05,0,0,1-.28-5L52,51.2l-0.33-.69c-0.7.67-1.28,2.87-1.44,3.79-0.29,1.72.09,3.66-.1,5.25h0Z"/>
    <path class="cls-4" d="M30.79,76.91c2.71,0.15,3.45-.71,6.2-2.21-1.28.27-5.35,2.92-9.59,0.8L24.74,74c0.15,0.47-.12.05,0.27,0.44a4.59,4.59,0,0,0,.37.31,10,10,0,0,0,5.41,2.13h0Z"/>
    <path class="cls-3" d="M67.44,57.29c-0.43-2.27,0-6.87,1.34-8.66l0.64-.81c-2.69.71-3.58,7.23-2,9.47h0Z"/>
    <path class="cls-2" d="M82.7,69l0.57,1.36,3.44-.54L86.46,69Z"/>
    <path class="cls-2" d="M79.54,61.44l4.2-.6c0.17-.18.35-0.45,0.49-0.61-1.87-.07-3.35,0-5.26-0.19Z"/>
    <path class="cls-5" d="M44.43,76.56l0,0.24-0.33.12a1.25,1.25,0,0,1-1.34.5A1.15,1.15,0,0,1,42,76.55l-0.29-.1,0-.33A2,2,0,0,1,42,74.37a1.68,1.68,0,0,1,1.62-.53c1.14,0.24,1.73,1.26.85,2.72h0ZM43,77.73c2.57,0,3.22-4.17.42-4.3-1.76-.08-2.94,1.68-1.63,3.44a1.3,1.3,0,0,0,1.22.85h0Z"/>
    <path class="cls-2" d="M26.5,77.91a3.69,3.69,0,0,1-.59-0.47c0-.47,1.14-0.07,1.19,1a0.89,0.89,0,0,1-.6-0.48h0Zm-1.62-.47,0,0c0,0.47.14,0.38-.26,0.38l0.09,0.33a1,1,0,0,1,1.7,0l0.07,1.72c-1.5.14-1.27-.44-1.79-0.9a1.18,1.18,0,0,0,.18.63c0.92,0.38,1,.75,2.27.31l0.09-.11,0.32-.31c-0.28-.1-0.23.21-0.23-0.12a1.51,1.51,0,0,0-.38-2c-0.84-.74-1.42-0.31-2,0.07h0Z"/>
    <path class="cls-2" d="M45.39,63.29c-1-.66-2.15-1.48-3.14-2l-0.35.31,1.55,1.06c1.43,1,3.64,1.74,3.65,3.78,0.76-1.48-.57-2.35-1.71-3.12h0Z"/>
    <path class="cls-2" d="M42.82,66.92A1.47,1.47,0,0,0,45,68l0.08-1.13-1.68-.91Z"/>
    <path class="cls-2" d="M66.89,32.43l1.4,5.4,0.59-.15c0.14-.38-0.56-1.91-0.78-2.52L67.46,32.1a1.4,1.4,0,0,0-.57.33h0Z"/>
    <path class="cls-3" d="M71.24,34.42L72,35.72a0.57,0.57,0,0,1-.54-0.48,4.38,4.38,0,0,1-.19-0.82h0Z"/>
    <path class="cls-6" d="M42,67.22c0.64,1.22.23,1,2.35,1.33-0.51-.37-0.65-0.09-1.18-0.47a1.21,1.21,0,0,1-.38-0.43c-0.07-.12-0.07-0.15-0.13-0.27l-0.1-.19A15.5,15.5,0,0,0,40,65.44c-0.11,1.47.64,1.86,2,1.79h0Z"/>
    <path class="cls-4" d="M24.6,77.85c0.4,0,.28.09,0.26-0.38l0,0C25,77.25,25.65,75.67,27,77s0.52,2.12.47,2.54l-0.32.31-0.09.11a1.41,1.41,0,0,0,1.08-1.79,2.73,2.73,0,0,0-.88-1.57c-0.64-.59-2.67-1.09-2.71,1.29h0Z"/>
    <path class="cls-2" d="M43.7,74.56l0.47,0.77c-1.4-.54-0.78-0.35-1.53-0.28-0.56.05-.16,0-0.37-0.08,0.31-.57.8-0.45,1.42-0.42h0Zm-2.08,1.57,0,0.33L42,76.55c0-.84.32-1.41,1.29-1.29s0.94,0.8.83,1.65l0.33-.12,0-.24c0-.23.56-2.05-1-2.26s-1.62,1.52-1.76,1.83h0Z"/>
    <path class="cls-4" d="M51.77,71.44l0.68,0.14c-0.25-1.06-.49-2-0.81-3.06l-0.79-2.08a1,1,0,0,0-.35-0.54,54.15,54.15,0,0,1,1.26,5.54h0Z"/>
    <path class="cls-3" d="M41.62,76.13c0.14-.3.14-2,1.76-1.83s1,2,1,2.26c0.88-1.46.29-2.47-.85-2.72a1.68,1.68,0,0,0-1.62.53,2,2,0,0,0-.34,1.76h0Z"/>
    <path class="cls-2" d="M42.43,76.38a1.26,1.26,0,0,0,1.28.09A0.62,0.62,0,0,1,43,77c-0.47,0-.51-0.22-0.56-0.64h0Zm0.15,0.76c1.7,0.29,1.52-1.27.89-1.57-1-.44-1.77.57-0.89,1.57h0Z"/>
    <path class="cls-2" d="M71.52,41.3c1.66,0.09,1.68-.12,2.91-0.92-0.49,0-2-.18-2.29.14a2.87,2.87,0,0,0-.23.32c-0.16.2-.23,0.24-0.39,0.46h0Z"/>
    <path class="cls-3" d="M24.88,77.44c0.6-.37,1.18-0.81,2-0.07a1.51,1.51,0,0,1,.38,2c0,0.33,0,0,.23.12,0.05-.42.89-1.29-0.47-2.54s-2,.29-2.17.48h0Z"/>
    <path class="cls-2" d="M25.14,78.32a9.88,9.88,0,0,1,1,.91l0.14,0.12s-0.21.44-.83-0.11a1,1,0,0,1-.29-0.93h0Zm1.33,1.22c0.4-1.2-1.09-2-1.53-1.36a1.09,1.09,0,0,0,1.53,1.36h0Z"/>
    <path class="cls-3" d="M42.58,77.14c-0.89-1-.09-2,0.89-1.57,0.63,0.29.82,1.85-.89,1.57h0ZM42,76.55a1.15,1.15,0,0,0,.79.87,1.25,1.25,0,0,0,1.34-.5c0.1-.85.05-1.55-0.83-1.65S42,75.71,42,76.55h0Z"/>
    <polygon class="cls-2" points="41.52 65.81 42 66.09 41.57 66.33 41.63 66.76 42.92 66.14 41.83 64.64 41.52 65.81"/>
    <path class="cls-2" d="M67.12,77.27a4.33,4.33,0,0,0,1-1.33l-1.56.15a3.58,3.58,0,0,0,.6,1.18h0Z"/>
    <path class="cls-2" d="M41.14,66.57l-0.27-.89c0.32-.24.19,0,0.45-1.13-0.68.08-1,.14-0.95,0.86a1.19,1.19,0,0,0,.76,1.16h0Z"/>
    <path class="cls-3" d="M26.47,79.53a1.09,1.09,0,0,1-1.53-1.36c0.44-.68,1.93.16,1.53,1.36h0Zm-1.79-1.36,0,0.81c0.52,0.46.29,1,1.79,0.9l-0.07-1.72a1,1,0,0,0-1.7,0h0Z"/>
    <path class="cls-3" d="M42.28,75c0.21,0.1-.19.13,0.37,0.08,0.74-.07.12-0.26,1.53,0.28l-0.47-.77c-0.63,0-1.11-.16-1.42.42h0Z"/>
    <path class="cls-3" d="M26.12,79.23a9.88,9.88,0,0,0-1-.91,1,1,0,0,0,.29.93c0.63,0.55.83,0.11,0.83,0.11Z"/>
    <path class="cls-3" d="M25.91,77.44a3.69,3.69,0,0,0,.59.47,0.89,0.89,0,0,0,.6.48c-0.05-1-1.15-1.42-1.19-1h0Z"/>
    <path class="cls-3" d="M43.72,76.47a1.26,1.26,0,0,1-1.28-.09C42.49,76.8,42.52,77,43,77a0.62,0.62,0,0,0,.72-0.55h0Z"/>
    <path class="cls-6" d="M71.24,34.42a4.38,4.38,0,0,0,.19.82,0.57,0.57,0,0,0,.54.48Z"/>
    <path class="cls-6" d="M86.2,60.22L86.67,60c-0.76.13-.2,0-0.47,0.19h0Z"/>
    <path class="cls-2" d="M59.56,65.85C65.38,66,72.31,65,78.11,64.12l7-1.14,2.35,7.33c-8.44,1.26-16.84,3-25.71,3.25-2.15.06-23.31-4-24.88-4l-1.24,1.78,13,2.11,6.47,1c2.14,0.34,4.24.76,6.4,1,4.93,0.5,14.86-1,20.24-1.93,1.24-.22,5.4-1.21,6.32-1l1.38,10.71a1.08,1.08,0,0,1-.73.44,25.24,25.24,0,0,1-13.68,0,17.84,17.84,0,0,1-3-1.26c-4.24-2.14-5.36-5.53-6.05-6.31l-2.08,0c1.33,2.65,1.5,3.47,3.62,5.6,5,5,15.21,5.9,21.45,3.86,1.49-.49.92,0.12,1.89-0.18,2-.64-0.26-12.29-0.62-13.77a49.09,49.09,0,0,0-3.56-10c-0.22-.45-0.69-1.72-2-1a2.71,2.71,0,0,0-.51.59l-4.54.77c-4.22.66-9.88,1.25-14.12,1.64-6,.54-12.41.59-16.3-4.25A73.6,73.6,0,0,1,44,53.94c-1.36-.31-1.53.4-1.41,1.36,1.08,1.15,3.21,3.53,4.38,4.5L49.13,62a8,8,0,0,0,.84.67,12.78,12.78,0,0,0,5.27,2.67,16.42,16.42,0,0,0,4.32.51h0Z"/>
    <path class="cls-7" d="M70.43,31.95c0.42-.26,1.1.15,1.52,0.91a2,2,0,0,1,.24,1.52,2.34,2.34,0,0,1,.65.77,1.47,1.47,0,0,1,0,1.85c-0.42.26-1.1-.15-1.52-0.91a2,2,0,0,1-.24-1.52,2.29,2.29,0,0,1-.65-0.77,1.47,1.47,0,0,1,0-1.85h0ZM70.6,32.5a0.92,0.92,0,0,1,.52.63,0.94,0.94,0,0,1,.14.8,0.93,0.93,0,0,1-.52-0.63,0.92,0.92,0,0,1-.14-0.8h0Zm1,2.51a1.62,1.62,0,0,1,.66,1.43A1.62,1.62,0,0,1,71.65,35h0Z"/>
  </g>
</svg>
