<svg id="Layer_1" data-name="Layer 1" xmlns="http://www.w3.org/2000/svg" viewBox="0 0 100 100">
  <defs>
    <style>
      .cls-1 {
        fill: #fff;
      }

      .cls-2 {
        fill: #c6a876;
      }
    </style>
  </defs>
  <g>
    <path d="M81.77,39.81A21,21,0,0,0,62.08,39a31.86,31.86,0,0,0-1.47-6c-1.14-3.38-2.39-6.61-3.49-9.47-1.45-3.75-2.55-7-3.16-9.1L50,1,46,14.45c-0.63,2.14-1.7,5.36-3.14,9.12-1.1,2.85-2.34,6.08-3.47,9.47a32,32,0,0,0-1.46,6,21,21,0,0,0-19.69.87c-5.88,3.45-9,9.43-8.23,15.61A13.66,13.66,0,0,0,20,67.06l4.06,1.11,1-4.09c0.14-.55,1.61-5.67,6.22-5.58,3.2,0.06,5.86,2.89,7.19,4.72A10.12,10.12,0,0,0,38,67.73l-1.8-2.41L33,67.76c-2.94,2.19-7.22,7.6-4.58,14a9.07,9.07,0,0,0,7,5.35A16.14,16.14,0,0,0,41.89,87a22.69,22.69,0,0,0,5.2,9l3,3.09,3-3.1a22.67,22.67,0,0,0,5.19-9,16.32,16.32,0,0,0,6.52.15,9.1,9.1,0,0,0,7-5.37c2.63-6.4-1.67-11.81-4.61-14l-3.28-2.42L62,67.7a10.18,10.18,0,0,0-.45-4.51c1.32-1.84,4-4.67,7.17-4.74,4.62-.1,6.09,5,6.25,5.6l1,4.09S80,67,80,67A13.62,13.62,0,0,0,90,55.4c0.79-6.18-2.37-12.16-8.26-15.59"/>
    <path class="cls-1" d="M48.68,15a75.07,75.07,0,0,1-3.26,9.54c-1.09,2.83-2.32,6-3.43,9.35a24.21,24.21,0,0,0-1.5,7.79,18.63,18.63,0,0,0,.16,2.11c-4.11-2.82-12.2-6.68-21-1.52-4.9,2.86-7.53,7.78-6.87,12.85a10.91,10.91,0,0,0,8,9.23L22,64.73l0.32-1.3c0.08-.32,2-7.85,9-7.72,5.6,0.12,9.26,5.56,10.25,7.23a7.3,7.3,0,0,0-.86,3.44,8,8,0,0,0,1.78,4.84,3.62,3.62,0,0,1-2.33,1.62c-1.39.12-2.8-1.35-3.74-2.6L35.68,69.2l-1,.79C32.49,71.58,29,75.88,31,80.7a6.31,6.31,0,0,0,4.95,3.69,14.11,14.11,0,0,0,8-1A20.28,20.28,0,0,0,49.1,94L50,95,51,94A20.27,20.27,0,0,0,56.2,83.39a14.06,14.06,0,0,0,8,1,6.3,6.3,0,0,0,4.93-3.69c2-4.83-1.55-9.13-3.7-10.71l-1-.78-0.78,1c-0.93,1.26-2.34,2.73-3.74,2.62a3.66,3.66,0,0,1-2.33-1.62,8,8,0,0,0,1.78-4.82,7.38,7.38,0,0,0-.87-3.46c1-1.68,4.63-7.13,10.24-7.25,7-.16,8.92,7.36,9,7.68L78,64.67l1.29-.36a10.89,10.89,0,0,0,8-9.26c0.65-5.06-2-10-6.9-12.83-8.85-5.14-16.94-1.26-21,1.58a18.41,18.41,0,0,0,.16-2A24.29,24.29,0,0,0,58,33.89c-1.12-3.32-2.36-6.51-3.45-9.34A74.44,74.44,0,0,1,51.23,15L49.95,9l-1.27,6"/>
    <path d="M50.06,93.08a19.11,19.11,0,0,0,5.07-11.9c2.22,2.21,10.84,3.69,12.77-1C70,75,64.63,71,64.63,71c-5.22,7-8.72.14-8.72,0.14,4-4.29,1-8.15,1-8.15,0.26-.78,4.66-8.48,11.72-8.63,8.12-.18,10.3,8.69,10.3,8.69,8.53-2.36,10.18-14.24.79-19.7C67.81,36.43,57.44,47,57.44,47c1-3.95,1.24-6.9-.71-12.66-2.64-7.81-5.87-14.79-6.77-19-0.9,4.22-4.12,11.22-6.74,19C41.29,40.1,41.58,43,42.54,47c0,0-10.39-10.52-22.28-3.57-9.37,5.48-7.69,17.35.83,19.7,0,0,2.15-8.88,10.28-8.72,7.05,0.14,11.47,7.82,11.74,8.6,0,0-3,3.88,1,8.16,0,0-3.48,6.85-8.72-.13,0,0-5.37,4-3.24,9.18,1.95,4.7,10.55,3.2,12.77,1A19.12,19.12,0,0,0,50,93.07"/>
    <path class="cls-2" d="M71.37,43c-9.68,0-17.63,11-17.63,11,0.34-1.8,4.49-9.9.74-19.58S50,20.83,50,20.83v0s-0.76,3.9-4.48,13.59S45.91,52.2,46.25,54c0,0-8-11-17.65-11s-17.75,11-8.8,17.55a12.35,12.35,0,0,1,11.64-8.15c6.64,0,13.29,7.11,13.57,10.65a5.8,5.8,0,0,0,1.19,7.87s-4.57,9.61-10.9,2.69c0,0-4.87,6.08,1.5,7.56,5.05,1.17,10-4,10-4S46.29,85.33,50,89.75v0l0,0c3.73-4.43,3.17-12.53,3.17-12.53s5,5.11,10,3.93c6.36-1.49,1.48-7.56,1.48-7.56-6.31,6.92-10.9-2.66-10.9-2.66A5.82,5.82,0,0,0,55,63c0.27-3.52,6.91-10.67,13.55-10.67a12.35,12.35,0,0,1,11.67,8.12C89.15,54,81.06,43,71.37,43"/>
  </g>
</svg>
