<svg id="Layer_1" data-name="Layer 1" xmlns="http://www.w3.org/2000/svg" viewBox="0 0 100 100">
  <defs>
    <style>
      .cls-1 {
        fill: #1d294b;
      }

      .cls-2 {
        fill: #fff;
      }

      .cls-3 {
        fill: none;
      }
    </style>
  </defs>
  <g>
    <polygon class="cls-1" points="49.5 6.96 38.41 39.92 4 39.91 31.94 61.04 21.51 93.04 50.18 73.28 77.94 92.59 67.41 60.63 96 39.77 60.85 39.9 49.5 6.96"/>
    <polygon class="cls-2" points="49.5 14.89 40.12 42.17 11.42 42.31 34.57 59.97 26.47 86.32 50.15 70.53 73.49 86.32 64.86 59.77 88.74 42.04 59.05 42.04 49.5 14.89"/>
    <polygon class="cls-3" points="49.7 22.11 42 44.49 18.47 44.6 37.45 59.09 30.02 81.5 50.23 67.75 69.38 80.7 62.3 58.92 81.89 44.38 57.53 44.38 49.7 22.11"/>
    <polygon class="cls-3" points="49.61 22.31 41.91 44.69 18.37 44.8 37.36 59.28 29.92 81.7 50.14 67.95 69.28 80.9 62.21 59.12 81.79 44.58 57.43 44.58 49.61 22.31"/>
    <polygon class="cls-3" points="49.7 22.11 42 44.49 18.47 44.6 37.45 59.09 30.02 81.5 50.23 67.75 69.38 80.7 62.3 58.92 81.89 44.38 57.53 44.38 49.7 22.11"/>
    <polygon class="cls-3" points="49.61 21.71 41.91 44.1 18.37 44.21 37.36 58.69 29.92 81.11 50.14 67.36 69.28 80.3 62.21 58.52 81.79 43.99 57.43 43.99 49.61 21.71"/>
    <polygon class="cls-1" points="49.61 21.71 41.59 44.69 18.47 44.6 37.45 59.09 29.92 81.7 50.14 67.36 69.55 81.5 62.21 58.52 82.99 44.07 57.53 44.38 49.61 21.71"/>
  </g>
</svg>
