<svg id="Layer_1" data-name="Layer 1" xmlns="http://www.w3.org/2000/svg" viewBox="0 0 100 100">
  <defs>
    <style>
      .cls-1 {
        fill: #fff;
      }

      .cls-2 {
        fill: #f04e23;
      }
    </style>
  </defs>
  <g>
    <path class="cls-1" d="M1,62.77L13.64,84.48H72c18.84,0,27-9.83,27-20.38,0-7-5-12.65-10-15.21a0.56,0.56,0,0,1-.08-1c4.42-3.27,7.39-7.46,7.39-13.93,0-7.66-5.48-18.42-26.91-18.42H14.17L1.66,37.31h9.19a1.86,1.86,0,0,1,1.85,1.85V60.92a1.86,1.86,0,0,1-1.85,1.85H1"/>
    <path class="cls-2" d="M56.29,45.19H47.21V36.45a1.66,1.66,0,0,1,1.67-1.65h7.41c4.34,0,6,2.21,6,5.11,0,3.06-1.62,5.28-6,5.28m0,20.09H48.88a1.66,1.66,0,0,1-1.67-1.66V54.89h9.08c4.34,0,6,2.14,6,5.12S60.63,65.28,56.29,65.28Zm25.89-15.9a0.6,0.6,0,0,1-.07-1.16c6-2.27,9.48-6.3,9.48-13.41,0.08-9.54-8.34-16.09-22-16.09H17.61L8.5,34.81h6.27A2.24,2.24,0,0,1,17,37V63a2.24,2.24,0,0,1-2.24,2.24H8.57l9.18,16H72c15.49,0,21.88-10.29,21.88-17.87C93.89,56.75,89,51,82.18,49.37Z"/>
    <path d="M35.28,76.74a89.23,89.23,0,0,1-8.58-58H17.61L8.5,34.81h6.27A2.24,2.24,0,0,1,17,37V57A71.61,71.61,0,0,0,35.28,76.74M80.7,20.5c-11,16.34-17,37.18-14.32,56.16a71.09,71.09,0,0,1,25.2-41.39c0-.16,0-0.31,0-0.47C91.65,28.23,87.67,23.07,80.7,20.5ZM62.22,18.71a142.31,142.31,0,0,0-5.07,16.12c-0.27,0-.56,0-0.85,0H48.88a1.66,1.66,0,0,0-1.67,1.65v8.73H55c-0.51,3.13-.94,6.38-1.21,9.7H47.21v8.72a1.66,1.66,0,0,0,1.67,1.66h4.54a97.61,97.61,0,0,0,1.52,16H48.17c-5.34-12.89-12.69-34.71-5.38-62.56H62.22Z"/>
  </g>
</svg>
