<svg id="Layer_1" data-name="Layer 1" xmlns="http://www.w3.org/2000/svg" viewBox="0 0 100 100">
  <defs>
    <style>
      .cls-1 {
        fill: #bacad3;
      }

      .cls-2 {
        fill: #004d55;
      }

      .cls-3 {
        fill: #000114;
      }

      .cls-4 {
        fill: #fff;
      }
    </style>
  </defs>
  <g>
    <path class="cls-1" d="M58.07,22l-4.82,5.14c7.93-3.59,25.18-9.93,25.18-9.93l-5.51,5.53C88,17.66,99.5,15,99.5,15a122.4,122.4,0,0,1-8.18,15.45l7.21-1.2A108.6,108.6,0,0,1,86.46,45.49l3.64,0.69A99,99,0,0,1,77,61.28C66.25,71.16,60.67,70,60.67,70c-8,6-14.43,3.51-14.43,3.51s2.71-6.94-.14-7.48c-2.63-.54-6.55,1.62-7,2.45a32.78,32.78,0,0,1-4.81,8.93,29.3,29.3,0,0,1-9,7.57,11.06,11.06,0,0,1-3.82-8.12,14.9,14.9,0,0,1-6.68,3.8c-2.92.77-6.9,0.47-11-2.59C1.06,76,.5,68.58.5,68.58A36.7,36.7,0,0,1,8,59.3a5.81,5.81,0,0,1-2-2.67C19.09,50.4,19.09,45.08,29.5,38.09S46.26,27.93,58.07,22"/>
    <path class="cls-2" d="M51.68,26.86l-4.12,4.4C55.73,27.35,73,20.77,73,20.77l-5,5a259.71,259.71,0,0,1,28.92-8.57,107.34,107.34,0,0,1-8.46,15.08c2.34-.36,7.29-1.15,7.29-1.15a87.47,87.47,0,0,1-12.12,15.4c0.79,0.07,4.12.62,4.12,0.62a80.26,80.26,0,0,1-12,13.41c-9.68,8.76-14,8-14,8a2.25,2.25,0,0,0,.07-0.83,1.86,1.86,0,0,0-.05-0.56C54.27,74.41,48,72.39,48,72.39s2.72-6.63-1.56-7.73c-3.3-.86-8.31,2-8.72,3.42a31.67,31.67,0,0,1-4.56,8.46,28.15,28.15,0,0,1-7.57,6.66S22,80.69,23.18,72.72c0.25-1.74-.11-2.4-0.3-2.66-0.62-.85-5.25.33-6.36,2.89C15.73,74.78,20.36,76,20.36,76a12.45,12.45,0,0,1-5.85,3.33A11.26,11.26,0,0,1,4.73,77C2.48,75.2,2,68.84,2,68.84a37.37,37.37,0,0,1,8.13-9.6A6.15,6.15,0,0,1,8,57.07C18.9,52,20.34,45.46,32.62,37.64A180.91,180.91,0,0,1,51.68,26.86"/>
    <path class="cls-3" d="M80.83,47.58a19.82,19.82,0,0,1,3.23.63C80.35,54.27,69.2,66.39,63,67.2a4.1,4.1,0,0,0-1-2.42C59.66,69,52.5,72,49.5,71.46c3.55-13-11.78-7.36-12.94-3.78a27.21,27.21,0,0,1-10.71,14s-2.5-2.59-1.48-8.79c0.76-4.57-2.19-4.26-2.19-4.26-1.2,0-5.68.74-7.08,3.84-1.12,2.49,2.87,4,2.87,4S12.26,81.18,5.53,76c-1.64-1.29-2.3-7-2.3-7a36.66,36.66,0,0,1,9.15-10.1,4.7,4.7,0,0,1-2.44-1.5c8.94-4.45,12.39-11.24,20-16.53a113,113,0,0,1,14.79-8.85l-2.4,3.11s2-.95,2.89-1.43c8-4.2,21.55-9,21.55-9l-4.2,4.17a162.44,162.44,0,0,1,15.82-4.94c4.7-1.21,14.53-3.71,14.53-3.71a60.78,60.78,0,0,1-7.14,13.61c3-.36,6.16-0.68,6.16-0.68a59.8,59.8,0,0,1-11.1,14.42"/>
    <path class="cls-3" d="M44.31,40.52L44,40.66a1.73,1.73,0,0,1,.26-0.14h0"/>
    <path class="cls-3" d="M44,40.65h0"/>
    <path class="cls-4" d="M54.65,55.48s-4.3-1.81-11.07.67A34.25,34.25,0,0,1,64.7,52a30.83,30.83,0,0,0-18.63,1c-2.39,1-3.81,1.8-3.81,1.8s0.6-.44,1.74-1.14a55.75,55.75,0,0,1,10.27-6.12,47.57,47.57,0,0,1,9.9-3,30.43,30.43,0,0,0-10.39.84,55.75,55.75,0,0,1,15.44-3.91c2.57-.15,8.39-0.17,8.39-0.17a58.22,58.22,0,0,0-23.11-.83c-3.37,1-6.06,1.92-6.06,1.92l1.38-.66c2.13-1.35,10.91-6.39,27.26-9.68a45.55,45.55,0,0,0-4.64,0,69.11,69.11,0,0,0-7.78,1.25c3.74-1.83,10.76-3.8,19.45-5a81.52,81.52,0,0,0-29.34,4.82,0.75,0.75,0,0,0-.2.1s1.67-1.25,3.61-2.57c1.38-1,3.42-2.51,3.42-2.51a114.11,114.11,0,0,0-19.37,8c-3.13,1.61-4.79,2.53-4.79,2.53,0.49-.54,2.71-2.58,3.23-3.27-8.26,4.37-11.27,7.1-16.15,12.4-4.38,4.73-4.17,5.52-10.82,9.35a11.81,11.81,0,0,0,9.88-1.68A14.1,14.1,0,0,0,26,53.2c1.76-2.05,1.16-4.05,3.5-5.62a8,8,0,0,0-.93,2.73,22.57,22.57,0,0,1,5.76-5.2c6.28-3.92,10.44-4.76,10.44-4.76-0.19,0-.31.14-0.47,0.19-8.55,3.89-9.92,8.47-10,9-0.08,1,3.09-1.42,5.68-1.87a11.54,11.54,0,0,0-6.19,6.13c-0.47,1.13-.61,2.4-2,3.45a5.67,5.67,0,0,1-1.55,1.06,3.85,3.85,0,0,1-3.48.29,1.13,1.13,0,0,1-.4-0.44,4.26,4.26,0,0,0,3.14-.78,4.69,4.69,0,0,0,1.7-1.87,1.94,1.94,0,0,0,0-1.92,1.68,1.68,0,0,0-1.34-.68,7.16,7.16,0,0,1,1.28-2,14.3,14.3,0,0,0-2.51,2.6,1.79,1.79,0,0,1,1.42.72c0.58,0.9,0,2.3-1.18,3s-2.74.71-3.29-.19a2.1,2.1,0,0,1-.18-0.36l-0.21.1c-0.38.21-1.16,0.56-1.16,0.56a3.45,3.45,0,0,0,1.18,0c0.12,1.3,1,3.39,5.77,2-1.37,1.33-4.65,1.43-6.66.51,0.28,0.2.59,0.38,1,.59,6,3.3,12.91-.44,14.59-1.49,0.43-.25.85-0.51,1.26-0.73a14.54,14.54,0,0,0-2.91,4c2.08-2.72,8.18-7.19,16.38-6.64"/>
    <path class="cls-1" d="M32.66,50.87c0.24,0.84,1.75-.11,1.75-0.11a12.5,12.5,0,0,0-2.85,3.68,3.09,3.09,0,0,1-.3,1,2.5,2.5,0,0,0,.59,0A4.5,4.5,0,0,0,33,55a3.2,3.2,0,0,1-1.18,2.2c1.37-1,1.51-2.31,2-3.45A11.54,11.54,0,0,1,40,47.61c-2.59.45-5.77,2.9-5.68,1.87,0-.49,1.42-5.07,10-9a1.26,1.26,0,0,1-.34.13c-7.82,3.24-11.92,8-11.29,10.22"/>
    <path class="cls-2" d="M29.4,54.52a1.73,1.73,0,0,1-.89,2.21,1.73,1.73,0,0,1-2.37-.14A0.61,0.61,0,0,1,26,56.26c-0.18.14-.38,0.25-0.55,0.38a2.06,2.06,0,0,0,.18.36c0.56,0.89,2.06,1,3.29.19s1.76-2.13,1.18-3a1.78,1.78,0,0,0-1.42-.72c-0.14.17-.31,0.36-0.48,0.57a1.27,1.27,0,0,1,1.19.51"/>
    <path class="cls-3" d="M28.51,56.72a1.73,1.73,0,0,0,.89-2.21A1.27,1.27,0,0,0,28.21,54,10.84,10.84,0,0,1,27,55.39a1.26,1.26,0,0,0,.56,1.17,1.69,1.69,0,0,1-.91-0.16,0.85,0.85,0,0,1-.32-0.4c-0.11.08-.21,0.2-0.3,0.26a0.61,0.61,0,0,0,.13.32,1.73,1.73,0,0,0,2.37.14"/>
    <path class="cls-4" d="M26.63,56.4a1.69,1.69,0,0,0,.91.16A1.26,1.26,0,0,1,27,55.39a6.15,6.15,0,0,1-.67.6,0.85,0.85,0,0,0,.32.4"/>
    <path class="cls-1" d="M77.6,41.28s-5.83,0-8.4.17a55.77,55.77,0,0,0-15.44,3.91,30.44,30.44,0,0,1,10.39-.84,47.6,47.6,0,0,0-9.9,3A55.79,55.79,0,0,0,44,53.63a49.32,49.32,0,0,1,32.95-6.89,38,38,0,0,0,3.82-3.92c2.92-3.27,3.52-5.23,3.52-5.23s-13.56-.73-23.37,1.24c-2.11.44-4.4,1-6.41,1.62a58.22,58.22,0,0,1,23.11.83"/>
    <path class="cls-1" d="M46.39,58.45c11.07-3.24,18.79-.4,19.76,3l0.11-.09A18.56,18.56,0,0,0,71,57.7a27.36,27.36,0,0,0,5.06-6.36c-11.37-4.91-23.87-1-30,1.64A30.83,30.83,0,0,1,64.7,52a34.26,34.26,0,0,0-21.11,4.17c6.76-2.48,11.07-.67,11.07-0.67-8.2-.55-14.3,3.92-16.38,6.64-0.17.32-.31,0.67-0.45,1,1.9-1.82,3.9-3.32,8.57-4.67"/>
    <path class="cls-1" d="M84.1,28.24c-8.69,1.24-15.71,3.21-19.45,5A69.22,69.22,0,0,1,72.43,32a45.43,45.43,0,0,1,4.64,0c-16.35,3.3-25.14,8.34-27.26,9.68a74.67,74.67,0,0,1,13.62-4.6,163.17,163.17,0,0,1,16.72-2.64A25.59,25.59,0,0,0,86,25.17s-7.37,1-15.76,2.88a90,90,0,0,0-15.47,5A81.52,81.52,0,0,1,84.1,28.24"/>
    <path class="cls-1" d="M40.18,63.07a10.89,10.89,0,0,1,7.53-1.69c7,0.74,6.86,5,6.86,5a11.94,11.94,0,0,0,4.72-4.26A11.21,11.21,0,0,0,53.71,60c-9.34-1.12-13.53,3.08-13.53,3.08"/>
    <path class="cls-1" d="M21.19,61.41a3.86,3.86,0,0,1-2.48-.68l-2.1,1.17c-0.7,1.06.79,0.79,1.48,0.56l3.09-1.05M36.75,62a12.68,12.68,0,0,0-.93,2.63A24.49,24.49,0,0,1,26.18,79.6a10.7,10.7,0,0,1-.42-7A5.83,5.83,0,0,0,25,68.3c5,0,.12,6.2,2,8.69,3.3-2,5.28-8.74,5.76-11.12a1.74,1.74,0,0,0-.89-0.53c-4.8-1.26-12.81.43-15.69,2.26-9.07,5.81-.54,9-0.54,9S10.11,78.7,6.89,74c-0.82-1.27-1-3.6-1.22-5.45,3.3-5.61,8.54-8.05,10-9.1A11.06,11.06,0,0,0,21,59.1,13.66,13.66,0,0,0,36.75,62Z"/>
    <path class="cls-3" d="M16.62,61.9c-0.7,1.06.79,0.79,1.48,0.56l3.09-1.05a3.86,3.86,0,0,1-2.48-.68l-2.1,1.17"/>
  </g>
</svg>
