<svg id="Layer_1" data-name="Layer 1" xmlns="http://www.w3.org/2000/svg" viewBox="0 0 100 100">
  <defs>
    <style>
      .cls-1 {
        fill: #fff;
      }

      .cls-2 {
        fill: #1d3767;
      }

      .cls-3 {
        fill: #b42025;
      }
    </style>
  </defs>
  <g>
    <path class="cls-1" d="M50,2.5a24.05,24.05,0,0,1-3.26,4.91C38.53,16.93,27.48,20.12,15.1,9V73.84c0.13,7.37,5.73,9.86,10.91,11.8l4,1.15c6.07,0.78,12,2.29,20,10.71,8-8.42,13.89-9.92,20-10.71l4-1.15c5.17-1.94,10.77-4.43,10.91-11.8V9c-12.38,11.16-23.43,8-31.64-1.54A24.06,24.06,0,0,1,50,2.5"/>
    <path class="cls-2" d="M53.31,11.54A21.77,21.77,0,0,1,50.25,7a21.78,21.78,0,0,1-3.06,4.57,21.06,21.06,0,0,1-29,2.81V71.61c0.12,6.66,5.25,8.92,10,10.67l3.71,1c5.57,0.71,11,2.07,18.31,9.72l0,0,0,0C57.63,85.39,63,84,68.6,83.32l3.71-1c4.74-1.76,9.87-4,10-10.67V14.35A21.06,21.06,0,0,1,53.31,11.54Z"/>
    <g>
      <path class="cls-1" d="M58.1,18.09s-9.86-1.44-14.57,6.18a15.69,15.69,0,0,0-1.37,14.36s9.9,1.66,15.15-6.43C61.67,25.47,58.1,18.09,58.1,18.09Z"/>
      <g>
        <path class="cls-2" d="M47.52,23.87l4.41,2.26,0.51-.53L48,23.33Z"/>
        <path class="cls-2" d="M46,25.76l4.3,2.2,0.51-.62L46.5,25.11Q46.26,25.43,46,25.76Z"/>
        <path class="cls-2" d="M44.88,27.73L49,29.85q0.18-.31.37-0.6l-4.18-2.14Z"/>
        <path class="cls-2" d="M51.91,20.12l-0.65.45,4.26,2.18,0.58-.49Z"/>
        <path class="cls-2" d="M49.23,22.18l4.4,2.25,0.6-.56-4.37-2.24Z"/>
      </g>
      <g>
        <path class="cls-2" d="M54.12,21.61A57.29,57.29,0,0,1,58.69,18l-0.38-.25A19.36,19.36,0,0,0,53,21Z"/>
        <path class="cls-2" d="M46.77,28.24a56.74,56.74,0,0,0-5,10.51L42.26,39a68.85,68.85,0,0,1,5.4-10.33Z"/>
      </g>
    </g>
    <g>
      <g>
        <polygon class="cls-1" points="75.26 21.43 76.33 24.47 79.69 24.47 77 26.61 78.03 29.88 75.26 27.76 72.49 29.75 73.56 26.58 70.96 24.47 74.2 24.47 75.26 21.43"/>
        <polygon class="cls-1" points="75.26 31.35 76.33 34.38 79.69 34.38 77 36.52 78.03 39.79 75.26 37.68 72.49 39.66 73.56 36.5 70.96 34.38 74.2 34.38 75.26 31.35"/>
        <polygon class="cls-1" points="64.61 31.35 65.68 34.38 69.04 34.38 66.36 36.52 67.38 39.79 64.61 37.68 61.84 39.66 62.91 36.5 60.31 34.38 63.55 34.38 64.61 31.35"/>
        <polygon class="cls-1" points="64.53 21.43 65.59 24.47 68.96 24.47 66.27 26.61 67.29 29.88 64.53 27.76 61.76 29.75 62.82 26.58 60.23 24.47 63.46 24.47 64.53 21.43"/>
      </g>
      <g>
        <polygon class="cls-1" points="35.85 21.43 36.92 24.47 40.28 24.47 37.6 26.61 38.62 29.88 35.85 27.76 33.08 29.75 34.15 26.58 31.55 24.47 34.79 24.47 35.85 21.43"/>
        <polygon class="cls-1" points="35.85 31.35 36.92 34.38 40.28 34.38 37.6 36.52 38.62 39.79 35.85 37.68 33.08 39.66 34.15 36.5 31.55 34.38 34.79 34.38 35.85 31.35"/>
        <polygon class="cls-1" points="25.2 31.35 26.27 34.38 29.63 34.38 26.95 36.52 27.97 39.79 25.2 37.68 22.44 39.66 23.5 36.5 20.9 34.38 24.14 34.38 25.2 31.35"/>
        <polygon class="cls-1" points="25.12 21.43 26.18 24.47 29.55 24.47 26.86 26.61 27.89 29.88 25.12 27.76 22.35 29.75 23.41 26.58 20.82 24.47 24.05 24.47 25.12 21.43"/>
      </g>
    </g>
    <path class="cls-1" d="M21.39,42v27.5c0.11,6.12,4.73,8.19,9,9.8l3.34,1c5,0.65,9.88,1.9,16.5,8.93l0,0,0,0c6.62-7,11.48-8.28,16.5-8.93l3.34-1c4.27-1.61,8.89-3.68,9-9.8V42H21.39Z"/>
    <path class="cls-3" d="M52,45.65H45V50h1.83V75.2c-1.12-.13-2.08-0.2-2.08-0.2v3.94a27.63,27.63,0,0,1,4.13.78c1.38,0.42,4.78,2,4.78,2V77.36A13.83,13.83,0,0,0,52,76.47V62.38h2.67l0.64,1.8h2.87V56.1H55.27L54.59,58H52V50h3.36l1.1,2.56h3.46V45.65H52Z"/>
    <path class="cls-3" d="M41.76,45.65H35.17V50h1.49V60.64L31.32,45.4H24.76v4.35h1.45V68.91C25,68.85,24,68.85,24,68.85l0.35,4.43a24.75,24.75,0,0,1,4.19.54c1.42,0.36,4.95,1.87,4.95,1.87l-0.39-4.9a13.27,13.27,0,0,0-1.8-.86V60.86l5.52,15.79,4.91,1.52V50h1.42V45.65H41.76Z"/>
    <path class="cls-3" d="M72.14,63.68v6.19c-1.35.3-2.81,0.65-4,1V50l1.49-.68V45.65H61.52v3.68L63,50V72.9c-0.87.45-1.61,0.89-2.2,1.26v5a85.2,85.2,0,0,1,7.58-4,31.05,31.05,0,0,1,7.78-1.86v-9.6h-4Z"/>
  </g>
</svg>
